<?xml version="1.0" encoding="UTF-8"?>
<svg xmlns="http://www.w3.org/2000/svg" xmlns:xlink="http://www.w3.org/1999/xlink" viewBox="0 0 598 399.12">
  <defs>
    <style>
      .cls-1, .cls-2, .cls-3, .cls-4, .cls-5, .cls-6, .cls-7, .cls-8, .cls-9, .cls-10 {
        fill: none;
      }

      .cls-1, .cls-2, .cls-3, .cls-4, .cls-6, .cls-7, .cls-8, .cls-9, .cls-10 {
        stroke-miterlimit: 10;
      }

      .cls-1, .cls-2, .cls-6, .cls-7, .cls-10 {
        stroke: #d0e9f2;
      }

      .cls-1, .cls-6, .cls-7, .cls-10 {
        stroke-width: .5px;
      }

      .cls-11 {
        opacity: .22;
      }

      .cls-11, .cls-12, .cls-13, .cls-14, .cls-15, .cls-16, .cls-17, .cls-18, .cls-19, .cls-20, .cls-21, .cls-22, .cls-23, .cls-24, .cls-25, .cls-26, .cls-27, .cls-5, .cls-28, .cls-29, .cls-30, .cls-31, .cls-32, .cls-33, .cls-34, .cls-35, .cls-36, .cls-37, .cls-38, .cls-39, .cls-40, .cls-41, .cls-42, .cls-43 {
        stroke-width: 0px;
      }

      .cls-11, .cls-12, .cls-17, .cls-21, .cls-25, .cls-29 {
        fill: #134570;
      }

      .cls-12, .cls-44 {
        opacity: .4;
      }

      .cls-13 {
        fill: url(#radial-gradient-16);
      }

      .cls-14 {
        opacity: .53;
      }

      .cls-14, .cls-19, .cls-22, .cls-24, .cls-28, .cls-38, .cls-40, .cls-42 {
        fill: #2389af;
      }

      .cls-15 {
        fill: url(#linear-gradient);
      }

      .cls-16 {
        fill: #2d83a6;
      }

      .cls-18 {
        fill: url(#radial-gradient-7);
      }

      .cls-18, .cls-30, .cls-31, .cls-32, .cls-33, .cls-34, .cls-36 {
        mix-blend-mode: color-dodge;
      }

      .cls-45 {
        opacity: .5;
      }

      .cls-2, .cls-9 {
        stroke-width: .75px;
      }

      .cls-20 {
        fill: #d0e9f2;
      }

      .cls-21 {
        opacity: .34;
      }

      .cls-22 {
        opacity: .82;
      }

      .cls-23 {
        fill: url(#radial-gradient-8);
      }

      .cls-46 {
        isolation: isolate;
      }

      .cls-24 {
        opacity: .32;
      }

      .cls-3 {
        stroke: #023e73;
      }

      .cls-25 {
        opacity: .64;
      }

      .cls-26 {
        fill: url(#radial-gradient-13);
      }

      .cls-4 {
        stroke: #134570;
        stroke-width: 2px;
      }

      .cls-27 {
        fill: url(#radial-gradient-12);
      }

      .cls-6 {
        stroke-dasharray: 0 0 4.07 4.07;
      }

      .cls-28 {
        opacity: .24;
      }

      .cls-29 {
        opacity: .15;
      }

      .cls-30 {
        fill: url(#radial-gradient);
      }

      .cls-31 {
        fill: url(#radial-gradient-3);
      }

      .cls-32 {
        fill: url(#radial-gradient-5);
      }

      .cls-7 {
        stroke-dasharray: 0 0 3.62 3.62;
      }

      .cls-47 {
        clip-path: url(#clippath);
      }

      .cls-8, .cls-9 {
        stroke: #2d83a6;
      }

      .cls-33 {
        fill: url(#radial-gradient-4);
      }

      .cls-34 {
        fill: url(#radial-gradient-2);
      }

      .cls-35 {
        fill: url(#radial-gradient-14);
      }

      .cls-36 {
        fill: url(#radial-gradient-6);
      }

      .cls-37 {
        fill: url(#radial-gradient-10);
      }

      .cls-38 {
        opacity: .62;
      }

      .cls-39 {
        fill: url(#radial-gradient-15);
      }

      .cls-40 {
        opacity: .72;
      }

      .cls-41 {
        fill: url(#radial-gradient-9);
      }

      .cls-42 {
        opacity: .41;
      }

      .cls-10 {
        stroke-dasharray: 0 0 4.05 4.05;
      }

      .cls-43 {
        fill: url(#radial-gradient-11);
      }
    </style>
    <linearGradient id="linear-gradient" x1="28.14" y1="-78.62" x2="455.83" y2="360.62" gradientUnits="userSpaceOnUse">
      <stop offset=".04" stop-color="#023859"/>
      <stop offset="1" stop-color="#011826"/>
    </linearGradient>
    <radialGradient id="radial-gradient" cx="-147.23" cy="227.15" fx="-147.23" fy="227.15" r="26.88" gradientTransform="translate(1104.42 255.11) scale(4.66 .1)" gradientUnits="userSpaceOnUse">
      <stop offset=".07" stop-color="#d0e9f2"/>
      <stop offset=".92" stop-color="#000"/>
    </radialGradient>
    <radialGradient id="radial-gradient-2" cx="-141.51" cy="-1351.89" fx="-141.51" fy="-1351.89" r="26.88" xlink:href="#radial-gradient"/>
    <radialGradient id="radial-gradient-3" cx="-164.43" cy="-965.48" fx="-164.43" fy="-965.48" r="26.88" xlink:href="#radial-gradient"/>
    <radialGradient id="radial-gradient-4" cx="-201.24" cy="-1956.09" fx="-201.24" fy="-1956.09" r="16.85" xlink:href="#radial-gradient"/>
    <radialGradient id="radial-gradient-5" cx="-184.39" cy="980" fx="-184.39" fy="980" r="16.85" xlink:href="#radial-gradient"/>
    <radialGradient id="radial-gradient-6" cx="-923.62" cy="-1104.99" fx="-923.62" fy="-1104.99" r="26.88" gradientTransform="translate(-734.9 167.56) rotate(-180) scale(1.31 .03)" xlink:href="#radial-gradient"/>
    <radialGradient id="radial-gradient-7" cx="-139.99" cy="-675.61" fx="-139.99" fy="-675.61" r="26.88" xlink:href="#radial-gradient"/>
    <radialGradient id="radial-gradient-8" cx="500.71" cy="163.79" fx="500.71" fy="163.79" r="17.62" gradientTransform="translate(581.92 -356.74) rotate(80.75)" gradientUnits="userSpaceOnUse">
      <stop offset="0" stop-color="#d0e9f2"/>
      <stop offset=".01" stop-color="rgba(200, 225, 234, .96)" stop-opacity=".96"/>
      <stop offset=".1" stop-color="rgba(154, 178, 189, .74)" stop-opacity=".74"/>
      <stop offset=".19" stop-color="rgba(113, 137, 148, .54)" stop-opacity=".54"/>
      <stop offset=".28" stop-color="rgba(78, 102, 114, .38)" stop-opacity=".38"/>
      <stop offset=".37" stop-color="rgba(50, 74, 86, .24)" stop-opacity=".24"/>
      <stop offset=".47" stop-color="rgba(28, 52, 65, .13)" stop-opacity=".13"/>
      <stop offset=".56" stop-color="rgba(13, 36, 50, .06)" stop-opacity=".06"/>
      <stop offset=".67" stop-color="rgba(3, 27, 40, .01)" stop-opacity=".01"/>
      <stop offset=".78" stop-color="#011826" stop-opacity="0"/>
    </radialGradient>
    <radialGradient id="radial-gradient-9" cx="318.26" cy="180.53" fx="318.26" fy="180.53" r="19.57" gradientTransform="matrix(1,0,0,1,0,0)" xlink:href="#radial-gradient-8"/>
    <radialGradient id="radial-gradient-10" cx="516.81" cy="118.84" fx="516.81" fy="118.84" r="14.81" gradientTransform="matrix(1,0,0,1,0,0)" xlink:href="#radial-gradient-8"/>
    <radialGradient id="radial-gradient-11" cx="527.68" cy="274.94" fx="527.68" fy="274.94" r="27.12" gradientTransform="translate(673.14 -302.02) rotate(76.63)" xlink:href="#radial-gradient-8"/>
    <radialGradient id="radial-gradient-12" cx="328.4" cy="278.04" fx="328.4" fy="278.04" r="14.81" gradientTransform="translate(548.84 -91.5) rotate(80.56)" xlink:href="#radial-gradient-8"/>
    <radialGradient id="radial-gradient-13" cx="340.79" cy="207.42" fx="340.79" fy="207.42" r="26.05" gradientTransform="translate(464.92 -171.73) rotate(76.8)" xlink:href="#radial-gradient-8"/>
    <radialGradient id="radial-gradient-14" cx="503.56" cy="215.94" fx="503.56" fy="215.94" r="26.05" gradientTransform="translate(583.54 -326.1) rotate(75.18)" xlink:href="#radial-gradient-8"/>
    <radialGradient id="radial-gradient-15" cx="548.13" cy="158.77" fx="548.13" fy="158.77" r="13.5" gradientTransform="translate(617.27 -407.69) rotate(80.8)" xlink:href="#radial-gradient-8"/>
    <radialGradient id="radial-gradient-16" cx="295.39" cy="212.95" fx="295.39" fy="212.95" r="13.5" gradientTransform="translate(261.52 -149.62) rotate(48.88)" xlink:href="#radial-gradient-8"/>
    <clipPath id="clippath">
      <rect class="cls-5" width="598" height="399.12"/>
    </clipPath>
  </defs>
  <g class="cls-46">
    <g id="Layer_2" data-name="Layer 2">
      <g id="OBJECTS">
        <g>
          <rect class="cls-15" width="598" height="399.12"/>
          <g>
            <path class="cls-30" d="M542.99,278c0,1.5-56.12,2.71-125.34,2.71s-125.34-1.21-125.34-2.71,56.12-2.71,125.34-2.71,125.34,1.21,125.34,2.71Z"/>
            <ellipse class="cls-34" cx="444.34" cy="118.84" rx="125.34" ry="2.71"/>
            <path class="cls-31" d="M462.77,157.79c0,1.5-56.12,2.71-125.34,2.71s-125.34-1.21-125.34-2.71,56.12-2.71,125.34-2.71,125.34,1.21,125.34,2.71Z"/>
            <ellipse class="cls-33" cx="165.75" cy="57.93" rx="78.58" ry="1.7"/>
            <path class="cls-32" d="M322.91,353.89c0,.94-35.18,1.7-78.58,1.7s-78.58-.76-78.58-1.7,35.18-1.7,78.58-1.7,78.58.76,78.58,1.7Z"/>
            <ellipse class="cls-36" cx="470.6" cy="198.73" rx="35.07" ry=".76"/>
            <path class="cls-18" d="M576.78,187.01c0,1.5-56.12,2.71-125.34,2.71s-125.34-1.21-125.34-2.71,56.12-2.71,125.34-2.71,125.34,1.21,125.34,2.71Z"/>
            <g class="cls-44">
              <g>
                <line class="cls-3" x1="317.92" y1="74.61" x2="317.92" y2="311.52"/>
                <line class="cls-3" x1="308.77" y1="311.52" x2="308.77" y2="74.61"/>
                <line class="cls-3" x1="337.82" y1="40.33" x2="337.82" y2="311.52"/>
                <line class="cls-3" x1="328.67" y1="311.52" x2="328.67" y2="74.61"/>
                <line class="cls-3" x1="357.72" y1="74.61" x2="357.72" y2="340.34"/>
                <line class="cls-3" x1="348.57" y1="322.84" x2="348.57" y2="74.61"/>
                <line class="cls-3" x1="377.62" y1="74.61" x2="377.62" y2="311.52"/>
                <line class="cls-3" x1="368.48" y1="311.52" x2="368.48" y2="74.61"/>
                <line class="cls-3" x1="397.52" y1="74.61" x2="397.52" y2="311.52"/>
                <line class="cls-3" x1="388.38" y1="311.52" x2="388.38" y2="74.61"/>
                <line class="cls-3" x1="417.43" y1="74.61" x2="417.43" y2="311.52"/>
                <line class="cls-3" x1="408.28" y1="311.52" x2="408.28" y2="74.61"/>
                <line class="cls-3" x1="437.33" y1="74.61" x2="437.33" y2="311.52"/>
                <line class="cls-3" x1="428.18" y1="311.52" x2="428.18" y2="74.61"/>
                <line class="cls-3" x1="457.23" y1="74.61" x2="457.23" y2="311.52"/>
                <line class="cls-3" x1="448.08" y1="311.52" x2="448.08" y2="74.61"/>
                <line class="cls-3" x1="477.13" y1="74.61" x2="477.13" y2="311.52"/>
                <line class="cls-3" x1="467.98" y1="311.52" x2="467.98" y2="74.61"/>
                <line class="cls-3" x1="497.03" y1="74.61" x2="497.03" y2="353.89"/>
                <line class="cls-3" x1="487.88" y1="311.52" x2="487.88" y2="74.61"/>
                <line class="cls-3" x1="516.93" y1="67.26" x2="516.93" y2="336.91"/>
                <line class="cls-3" x1="507.78" y1="322.84" x2="507.78" y2="74.61"/>
                <line class="cls-3" x1="536.83" y1="74.61" x2="536.83" y2="311.52"/>
                <line class="cls-3" x1="527.68" y1="311.52" x2="527.68" y2="56.82"/>
              </g>
              <g>
                <line class="cls-3" x1="304.34" y1="297.94" x2="567.94" y2="297.94"/>
                <line class="cls-3" x1="541.26" y1="307.09" x2="304.34" y2="307.09"/>
                <line class="cls-3" x1="248.99" y1="278.04" x2="541.26" y2="278.04"/>
                <line class="cls-3" x1="541.26" y1="287.19" x2="293.02" y2="287.19"/>
                <line class="cls-3" x1="304.34" y1="258.14" x2="559.05" y2="258.14"/>
                <line class="cls-3" x1="566.65" y1="267.29" x2="304.34" y2="267.29"/>
                <line class="cls-3" x1="304.34" y1="238.24" x2="541.26" y2="238.24"/>
                <line class="cls-3" x1="541.26" y1="247.39" x2="304.34" y2="247.39"/>
                <line class="cls-3" x1="304.34" y1="218.34" x2="541.26" y2="218.34"/>
                <line class="cls-3" x1="541.26" y1="227.49" x2="304.34" y2="227.49"/>
                <line class="cls-3" x1="304.34" y1="198.44" x2="541.26" y2="198.44"/>
                <line class="cls-3" x1="541.26" y1="207.59" x2="304.34" y2="207.59"/>
                <line class="cls-3" x1="304.34" y1="178.54" x2="541.26" y2="178.54"/>
                <line class="cls-3" x1="541.26" y1="187.69" x2="304.34" y2="187.69"/>
                <line class="cls-3" x1="304.34" y1="158.64" x2="541.26" y2="158.64"/>
                <line class="cls-3" x1="541.26" y1="167.79" x2="304.34" y2="167.79"/>
                <line class="cls-3" x1="304.34" y1="138.74" x2="541.26" y2="138.74"/>
                <line class="cls-3" x1="541.26" y1="147.89" x2="304.34" y2="147.89"/>
                <line class="cls-3" x1="264.88" y1="118.84" x2="546.58" y2="118.84"/>
                <line class="cls-3" x1="541.26" y1="127.99" x2="304.34" y2="127.99"/>
                <line class="cls-3" x1="242.58" y1="98.94" x2="541.26" y2="98.94"/>
                <line class="cls-3" x1="559.05" y1="108.09" x2="294.27" y2="108.09"/>
                <line class="cls-3" x1="304.34" y1="79.04" x2="541.26" y2="79.04"/>
                <line class="cls-3" x1="541.26" y1="88.19" x2="304.34" y2="88.19"/>
              </g>
            </g>
            <g class="cls-45">
              <polyline class="cls-8" points="404.17 178.05 340.13 178.37 334.65 168.33 307.28 168.33"/>
              <line class="cls-8" x1="403.62" y1="173.03" x2="357.38" y2="173.35"/>
              <polyline class="cls-8" points="374.95 189.13 335.48 189.13 330.05 180.53 298.36 180.53"/>
              <polyline class="cls-8" points="403.62 184.26 337.95 184.26 331.3 173.35 284.52 173.35"/>
              <path class="cls-8" d="M281.79,173.35c0-.85.69-1.54,1.54-1.54s1.54.69,1.54,1.54-.69,1.54-1.54,1.54-1.54-.69-1.54-1.54Z"/>
              <path class="cls-8" d="M295.39,180.53c0-.85.69-1.54,1.54-1.54s1.54.69,1.54,1.54-.69,1.54-1.54,1.54-1.54-.69-1.54-1.54Z"/>
              <path class="cls-8" d="M304.2,168.33c0-.85.69-1.54,1.54-1.54s1.54.69,1.54,1.54-.69,1.54-1.54,1.54-1.54-.69-1.54-1.54Z"/>
              <path class="cls-8" d="M354.3,173.03c0-.85.69-1.54,1.54-1.54s1.54.69,1.54,1.54-.69,1.54-1.54,1.54-1.54-.69-1.54-1.54Z"/>
            </g>
            <g class="cls-45">
              <polyline class="cls-8" points="404.17 207.74 340.13 207.42 334.65 217.45 307.28 217.45"/>
              <line class="cls-8" x1="403.62" y1="212.75" x2="357.38" y2="212.43"/>
              <polyline class="cls-8" points="374.95 196.65 335.48 196.65 330.05 205.26 298.36 205.26"/>
              <polyline class="cls-8" points="403.62 201.52 337.95 201.52 331.3 212.43 284.52 212.43"/>
              <path class="cls-8" d="M281.79,212.43c0,.85.69,1.54,1.54,1.54s1.54-.69,1.54-1.54-.69-1.54-1.54-1.54-1.54.69-1.54,1.54Z"/>
              <path class="cls-8" d="M295.39,205.26c0,.85.69,1.54,1.54,1.54s1.54-.69,1.54-1.54-.69-1.54-1.54-1.54-1.54.69-1.54,1.54Z"/>
              <path class="cls-8" d="M304.2,217.45c0,.85.69,1.54,1.54,1.54s1.54-.69,1.54-1.54-.69-1.54-1.54-1.54-1.54.69-1.54,1.54Z"/>
              <path class="cls-8" d="M354.3,212.75c0,.85.69,1.54,1.54,1.54s1.54-.69,1.54-1.54-.69-1.54-1.54-1.54-1.54.69-1.54,1.54Z"/>
            </g>
            <g>
              <path class="cls-1" d="M518.06,175.52c.12.65.24,1.31.34,1.97"/>
              <path class="cls-7" d="M518.92,181.08c.48,3.87.73,7.81.73,11.81,0,5.2-.42,10.3-1.23,15.27"/>
              <path class="cls-1" d="M518.12,209.95c-.12.66-.25,1.31-.38,1.96"/>
            </g>
            <g>
              <path class="cls-1" d="M337.97,156.91c.25-.62.51-1.23.78-1.84"/>
              <path class="cls-10" d="M340.46,151.4c15.36-31.33,47.56-52.9,84.81-52.9,33.66,0,63.2,17.62,79.92,44.14"/>
              <path class="cls-1" d="M506.24,144.37c.34.57.68,1.15,1.01,1.73"/>
            </g>
            <g>
              <path class="cls-1" d="M509.84,234.84c-.3.6-.6,1.19-.91,1.78"/>
              <path class="cls-6" d="M506.97,240.19c-16.34,28.16-46.81,47.1-81.71,47.1-39.25,0-72.9-23.95-87.14-58.03"/>
              <path class="cls-1" d="M337.36,227.36c-.24-.62-.48-1.25-.71-1.87"/>
            </g>
            <path class="cls-9" d="M374.55,107.59c14.84-8.84,32.19-13.92,50.72-13.92,23.63,0,45.32,8.26,62.36,22.04"/>
            <path class="cls-2" d="M374.55,100.24c14.84-8.84,32.19-13.92,50.72-13.92,23.63,0,45.32,8.26,62.36,22.04"/>
            <path class="cls-9" d="M330.72,162.68c6.14-19.23,17.98-35.91,33.54-48.05"/>
            <path class="cls-9" d="M332.75,228.85c-.89-2.3-1.71-4.64-2.43-7.02"/>
            <path class="cls-9" d="M443.85,290.38c-6.02,1.14-12.23,1.74-18.58,1.74-34.25,0-64.45-17.35-82.28-43.75"/>
            <path class="cls-2" d="M441.33,293.69c-6.02,1.14-12.23,1.74-18.58,1.74-34.25,0-64.45-17.35-82.28-43.75"/>
            <path class="cls-9" d="M500.71,257.34c-11.75,13.74-27.18,24.23-44.77,29.95"/>
            <path class="cls-2" d="M517.23,249.28c-9.38,15.45-22.92,28.3-39.36,36.77"/>
            <path class="cls-9" d="M515.28,234.69c-2.22,4.78-4.82,9.35-7.74,13.68"/>
            <path class="cls-9" d="M522.98,175.52c1,5.64,1.52,11.44,1.52,17.37s-.57,12.28-1.66,18.17"/>
            <path class="cls-9" d="M513.83,148.11c.46.91.91,1.83,1.34,2.75"/>
            <g>
              <polygon class="cls-20" points="533.56 232.33 505.92 232.33 500.44 222.3 423.99 222.62 423.99 221.69 500.99 221.37 506.47 231.4 533.56 231.4 533.56 232.33"/>
              <rect class="cls-20" x="419.3" y="226.54" width="64.17" height=".93" transform="translate(-1.33 2.67) rotate(-.34)"/>
              <polygon class="cls-20" points="542.48 220.14 510.54 220.14 505.11 211.53 437 211.53 437 210.6 505.62 210.6 511.05 219.21 542.48 219.21 542.48 220.14"/>
              <polygon class="cls-20" points="556.32 227.31 509.28 227.31 502.63 216.4 477.31 216.4 477.31 215.47 503.16 215.47 509.8 226.38 556.32 226.38 556.32 227.31"/>
              <path class="cls-20" d="M557.51,228.85c-1.11,0-2-.9-2-2s.9-2,2-2,2,.9,2,2-.9,2-2,2ZM557.51,225.77c-.59,0-1.07.48-1.07,1.07s.48,1.07,1.07,1.07,1.07-.48,1.07-1.07-.48-1.07-1.07-1.07Z"/>
              <path class="cls-20" d="M543.91,221.68c-1.11,0-2-.9-2-2s.9-2,2-2,2,.9,2,2-.9,2-2,2ZM543.91,218.6c-.59,0-1.07.48-1.07,1.07s.48,1.07,1.07,1.07,1.07-.48,1.07-1.07-.48-1.07-1.07-1.07Z"/>
              <path class="cls-20" d="M535.1,233.87c-1.11,0-2-.9-2-2s.9-2,2-2,2,.9,2,2-.9,2-2,2ZM535.1,230.79c-.59,0-1.07.48-1.07,1.07s.48,1.07,1.07,1.07,1.07-.48,1.07-1.07-.48-1.07-1.07-1.07Z"/>
              <path class="cls-20" d="M485,229.17c-1.1,0-2-.9-2-2s.9-2,2-2,2,.9,2,2-.9,2-2,2ZM485,226.09c-.59,0-1.07.48-1.07,1.07s.48,1.07,1.07,1.07,1.07-.48,1.07-1.07-.48-1.07-1.07-1.07Z"/>
            </g>
            <g>
              <polygon class="cls-20" points="445.44 242.26 445.17 242.25 390.85 242.03 390.85 241.1 444.89 241.32 448.77 234.22 468.42 234.22 468.42 235.15 449.32 235.15 445.44 242.26"/>
              <rect class="cls-20" x="409.78" y="215.41" width=".93" height="45.42" transform="translate(170.08 647.18) rotate(-89.71)"/>
              <polygon class="cls-20" points="448.71 249.88 400.06 249.88 400.06 248.95 448.2 248.95 452.05 242.85 474.74 242.85 474.74 243.78 452.56 243.78 448.71 249.88"/>
              <polygon class="cls-20" points="446.97 246.43 396.23 246.43 396.23 245.5 446.45 245.5 451.15 237.77 484.53 237.77 484.53 238.7 451.68 238.7 446.97 246.43"/>
              <path class="cls-20" d="M485.37,239.79c-.86,0-1.55-.7-1.55-1.55s.7-1.55,1.55-1.55,1.55.7,1.55,1.55-.7,1.55-1.55,1.55ZM485.37,237.61c-.34,0-.62.28-.62.62s.28.62.62.62.62-.28.62-.62-.28-.62-.62-.62Z"/>
              <path class="cls-20" d="M475.75,244.87c-.86,0-1.55-.7-1.55-1.55s.7-1.55,1.55-1.55,1.55.7,1.55,1.55-.7,1.55-1.55,1.55ZM475.75,242.69c-.34,0-.62.28-.62.62s.28.62.62.62.62-.28.62-.62-.28-.62-.62-.62Z"/>
              <path class="cls-20" d="M469.51,236.24c-.86,0-1.55-.7-1.55-1.55s.7-1.55,1.55-1.55,1.55.7,1.55,1.55-.7,1.55-1.55,1.55ZM469.51,234.06c-.34,0-.62.28-.62.62s.28.62.62.62.62-.28.62-.62-.28-.62-.62-.62Z"/>
              <path class="cls-20" d="M434.04,239.57c-.86,0-1.55-.7-1.55-1.55s.7-1.55,1.55-1.55,1.55.7,1.55,1.55-.7,1.55-1.55,1.55ZM434.04,237.39c-.34,0-.62.28-.62.62s.28.62.62.62.62-.28.62-.62-.28-.62-.62-.62Z"/>
            </g>
            <g>
              <polygon class="cls-20" points="468.42 152.36 448.77 152.36 444.89 145.26 390.85 145.49 390.85 144.56 445.44 144.33 449.32 151.44 468.42 151.44 468.42 152.36"/>
              <rect class="cls-20" x="387.53" y="148" width="45.42" height=".93" transform="translate(-.85 2.38) rotate(-.33)"/>
              <polygon class="cls-20" points="474.74 143.73 452.05 143.73 448.2 137.64 400.06 137.64 400.06 136.71 448.71 136.71 452.56 142.8 474.74 142.8 474.74 143.73"/>
              <polygon class="cls-20" points="484.53 148.81 451.15 148.81 446.45 141.09 396.23 141.09 396.23 140.16 446.97 140.16 451.68 147.88 484.53 147.88 484.53 148.81"/>
              <path class="cls-20" d="M485.37,149.9c-.86,0-1.55-.7-1.55-1.55s.7-1.55,1.55-1.55,1.55.7,1.55,1.55-.7,1.55-1.55,1.55ZM485.37,147.72c-.34,0-.62.28-.62.62s.28.62.62.62.62-.28.62-.62-.28-.62-.62-.62Z"/>
              <path class="cls-20" d="M475.75,144.82c-.86,0-1.55-.7-1.55-1.55s.7-1.55,1.55-1.55,1.55.7,1.55,1.55-.7,1.55-1.55,1.55ZM475.75,142.64c-.34,0-.62.28-.62.62s.28.62.62.62.62-.28.62-.62-.28-.62-.62-.62Z"/>
              <path class="cls-20" d="M469.51,153.45c-.86,0-1.55-.7-1.55-1.55s.7-1.55,1.55-1.55,1.55.7,1.55,1.55-.7,1.55-1.55,1.55ZM469.51,151.28c-.34,0-.62.28-.62.62s.28.62.62.62.62-.28.62-.62-.28-.62-.62-.62Z"/>
              <path class="cls-20" d="M434.04,150.13c-.86,0-1.55-.7-1.55-1.55s.7-1.55,1.55-1.55,1.55.7,1.55,1.55-.7,1.55-1.55,1.55ZM434.04,147.95c-.34,0-.62.28-.62.62s.28.62.62.62.62-.28.62-.62-.28-.62-.62-.62Z"/>
            </g>
            <g>
              <polygon class="cls-20" points="500.99 164.26 412.4 163.93 412.4 163 500.44 163.32 505.92 153.29 533.56 153.29 533.56 154.22 506.47 154.22 500.99 164.26"/>
              <rect class="cls-20" x="447.74" y="123.36" width=".93" height="70.51" transform="translate(287.56 606.09) rotate(-89.74)"/>
              <polygon class="cls-20" points="505.62 175.02 476.6 175.02 476.6 174.09 505.11 174.09 510.54 165.48 542.48 165.48 542.48 166.41 511.05 166.41 505.62 175.02"/>
              <polygon class="cls-20" points="503.16 170.15 429.79 170.15 429.79 169.22 502.63 169.22 509.28 158.31 556.32 158.31 556.32 159.24 509.8 159.24 503.16 170.15"/>
              <path class="cls-20" d="M557.51,160.78c-1.11,0-2-.9-2-2s.9-2,2-2,2,.9,2,2-.9,2-2,2ZM557.51,157.7c-.59,0-1.07.48-1.07,1.07s.48,1.07,1.07,1.07,1.07-.48,1.07-1.07-.48-1.07-1.07-1.07Z"/>
              <path class="cls-20" d="M543.91,167.95c-1.11,0-2-.9-2-2s.9-2,2-2,2,.9,2,2-.9,2-2,2ZM543.91,164.87c-.59,0-1.07.48-1.07,1.07s.48,1.07,1.07,1.07,1.07-.48,1.07-1.07-.48-1.07-1.07-1.07Z"/>
              <path class="cls-20" d="M535.1,155.76c-1.11,0-2-.9-2-2s.9-2,2-2,2,.9,2,2-.9,2-2,2ZM535.1,152.68c-.59,0-1.07.48-1.07,1.07s.48,1.07,1.07,1.07,1.07-.48,1.07-1.07-.48-1.07-1.07-1.07Z"/>
              <path class="cls-20" d="M485,160.46c-1.1,0-2-.9-2-2s.9-2,2-2,2,.9,2,2-.9,2-2,2ZM485,157.38c-.59,0-1.07.48-1.07,1.07s.48,1.07,1.07,1.07,1.07-.48,1.07-1.07-.48-1.07-1.07-1.07Z"/>
            </g>
            <g>
              <path class="cls-16" d="M482.47,305.42h0c-.67,0-1.01-.82-.54-1.29h0c.3-.3.3-.78,0-1.07l-1.3-1.3c-.3-.3-.78-.3-1.07,0h0c-.48.48-1.29.14-1.29-.54h0c0-.42-.34-.76-.76-.76h-1.83c-.42,0-.76.34-.76.76,0,.67-.82,1.01-1.29.54h0c-.3-.3-.78-.3-1.07,0l-1.3,1.3c-.3.3-.3.78,0,1.07h0c.48.48.14,1.29-.54,1.29-.42,0-.76.34-.76.76v1.83c0,.42.34.76.76.76h0c.67,0,1.01.82.54,1.29h0c-.3.3-.3.78,0,1.07l1.3,1.3c.3.3.78.3,1.07,0h0c.48-.48,1.29-.14,1.29.54h0c0,.42.34.76.76.76h1.83c.42,0,.76-.34.76-.76h0c0-.67.82-1.01,1.29-.54h0c.3.3.78.3,1.07,0l1.3-1.3c.3-.3.3-.78,0-1.07h0c-.48-.48-.14-1.29.54-1.29h0c.42,0,.76-.34.76-.76v-1.83c0-.42-.34-.76-.76-.76ZM476.6,311.32c-2.33,0-4.23-1.89-4.23-4.23s1.89-4.23,4.23-4.23,4.23,1.89,4.23,4.23-1.89,4.23-4.23,4.23Z"/>
              <path class="cls-16" d="M479.31,307.09c0,1.5-1.21,2.71-2.71,2.71s-2.71-1.21-2.71-2.71,1.21-2.71,2.71-2.71,2.71,1.21,2.71,2.71Z"/>
            </g>
            <g>
              <path class="cls-16" d="M465.31,127.15h0c-.34,0-.51-.41-.27-.65h0c.15-.15.15-.39,0-.54l-.65-.65c-.15-.15-.39-.15-.54,0h0c-.24.24-.65.07-.65-.27h0c0-.21-.17-.38-.38-.38h-.92c-.21,0-.38.17-.38.38,0,.34-.41.51-.65.27h0c-.15-.15-.39-.15-.54,0l-.65.65c-.15.15-.15.39,0,.54h0c.24.24.07.65-.27.65-.21,0-.38.17-.38.38v.92c0,.21.17.38.38.38h0c.34,0,.51.41.27.65h0c-.15.15-.15.39,0,.54l.65.65c.15.15.39.15.54,0h0c.24-.24.65-.07.65.27h0c0,.21.17.38.38.38h.92c.21,0,.38-.17.38-.38h0c0-.34.41-.51.65-.27h0c.15.15.39.15.54,0l.65-.65c.15-.15.15-.39,0-.54h0c-.24-.24-.07-.65.27-.65h0c.21,0,.38-.17.38-.38v-.92c0-.21-.17-.38-.38-.38ZM462.37,130.1c-1.17,0-2.11-.95-2.11-2.11s.95-2.11,2.11-2.11,2.11.95,2.11,2.11-.95,2.11-2.11,2.11Z"/>
              <path class="cls-16" d="M463.73,127.99c0,.75-.61,1.36-1.36,1.36s-1.36-.61-1.36-1.36.61-1.36,1.36-1.36,1.36.61,1.36,1.36Z"/>
            </g>
            <g>
              <path class="cls-16" d="M471.65,186.47h0c-.42,0-.63-.51-.34-.81h0c.19-.19.19-.49,0-.67l-.81-.81c-.19-.19-.49-.19-.67,0h0c-.3.3-.81.09-.81-.34h0c0-.26-.21-.47-.47-.47h-1.15c-.26,0-.47.21-.47.47,0,.42-.51.63-.81.34h0c-.19-.19-.49-.19-.67,0l-.81.81c-.19.19-.19.49,0,.67h0c.3.3.09.81-.34.81-.26,0-.47.21-.47.47v1.15c0,.26.21.47.47.47h0c.42,0,.63.51.34.81h0c-.19.19-.19.49,0,.67l.81.81c.19.19.49.19.67,0h0c.3-.3.81-.09.81.34h0c0,.26.21.47.47.47h1.15c.26,0,.47-.21.47-.47h0c0-.42.51-.63.81-.34h0c.19.19.49.19.67,0l.81-.81c.19-.19.19-.49,0-.67h0c-.3-.3-.09-.81.34-.81h0c.26,0,.47-.21.47-.47v-1.15c0-.26-.21-.47-.47-.47ZM467.98,190.17c-1.46,0-2.65-1.18-2.65-2.65s1.18-2.65,2.65-2.65,2.65,1.18,2.65,2.65-1.18,2.65-2.65,2.65Z"/>
              <path class="cls-16" d="M469.68,187.52c0,.94-.76,1.7-1.7,1.7s-1.7-.76-1.7-1.7.76-1.7,1.7-1.7,1.7.76,1.7,1.7Z"/>
            </g>
            <circle class="cls-23" cx="500.71" cy="163.79" r="9.14" transform="translate(258.6 631.68) rotate(-80.75)"/>
            <circle class="cls-41" cx="318.26" cy="180.53" r="10.15"/>
            <circle class="cls-37" cx="516.81" cy="118.84" r="7.68"/>
            <circle class="cls-43" cx="527.68" cy="274.94" r="14.06" transform="translate(138.17 724.73) rotate(-76.63)"/>
            <circle class="cls-27" cx="328.4" cy="278.04" r="7.68" transform="translate(.28 556.42) rotate(-80.56)"/>
            <circle class="cls-26" cx="340.79" cy="207.42" r="13.51" transform="translate(61.04 491.85) rotate(-76.8)"/>
            <circle class="cls-35" cx="503.56" cy="215.94" r="13.51" transform="translate(166.02 647.53) rotate(-75.18)"/>
            <circle class="cls-39" cx="548.13" cy="158.77" r="7" transform="translate(303.8 674.49) rotate(-80.8)"/>
            <circle class="cls-13" cx="295.39" cy="212.95" r="7" transform="translate(-59.3 295.41) rotate(-48.88)"/>
            <circle class="cls-16" cx="348.57" cy="98.94" r="2.07"/>
            <path class="cls-16" d="M299.78,118.84c0,.78-.64,1.42-1.42,1.42s-1.42-.64-1.42-1.42.64-1.42,1.42-1.42,1.42.64,1.42,1.42Z"/>
            <path class="cls-16" d="M330.09,251.68c0,.78-.64,1.42-1.42,1.42s-1.42-.64-1.42-1.42.64-1.42,1.42-1.42,1.42.64,1.42,1.42Z"/>
            <path class="cls-16" d="M529.1,132.24c0,.78-.64,1.42-1.42,1.42s-1.42-.64-1.42-1.42.64-1.42,1.42-1.42,1.42.64,1.42,1.42Z"/>
            <circle class="cls-16" cx="357.72" cy="315.68" r="1.42"/>
            <circle class="cls-16" cx="549.55" cy="267.29" r="1.42"/>
            <path class="cls-16" d="M509.2,312.94c0,.78-.64,1.42-1.42,1.42s-1.42-.64-1.42-1.42.64-1.42,1.42-1.42,1.42.64,1.42,1.42Z"/>
            <path class="cls-16" d="M549.55,108.09c0,.78-.64,1.42-1.42,1.42s-1.42-.64-1.42-1.42.64-1.42,1.42-1.42,1.42.64,1.42,1.42Z"/>
            <circle class="cls-16" cx="337.97" cy="64.64" r="1.48"/>
          </g>
          <rect class="cls-5" width="598" height="399.12"/>
          <g class="cls-47">
            <g>
              <g class="cls-44">
                <g>
                  <line class="cls-3" x1="7.15" y1="-174.44" x2="7.15" y2="111.33"/>
                  <line class="cls-3" x1="28.55" y1="-174.44" x2="28.55" y2="80.34"/>
                  <line class="cls-3" x1="18.71" y1="80.34" x2="18.71" y2="-174.44"/>
                  <line class="cls-3" x1="49.95" y1="-174.44" x2="49.95" y2="80.34"/>
                  <line class="cls-3" x1="40.11" y1="80.34" x2="40.11" y2="-174.44"/>
                  <line class="cls-3" x1="71.35" y1="-174.44" x2="71.35" y2="80.34"/>
                  <line class="cls-3" x1="61.51" y1="80.34" x2="61.51" y2="-174.44"/>
                  <line class="cls-3" x1="92.75" y1="-174.44" x2="92.75" y2="80.34"/>
                  <line class="cls-3" x1="82.91" y1="80.34" x2="82.91" y2="-174.44"/>
                  <line class="cls-3" x1="114.15" y1="-174.44" x2="114.15" y2="80.34"/>
                  <line class="cls-3" x1="104.32" y1="80.34" x2="104.32" y2="-174.44"/>
                  <line class="cls-3" x1="135.56" y1="-174.44" x2="135.56" y2="80.34"/>
                  <line class="cls-3" x1="125.72" y1="80.34" x2="125.72" y2="-174.44"/>
                  <line class="cls-3" x1="156.96" y1="-174.44" x2="156.96" y2="125.9"/>
                  <line class="cls-3" x1="147.12" y1="80.34" x2="147.12" y2="-174.44"/>
                  <line class="cls-3" x1="178.36" y1="-182.34" x2="178.36" y2="107.64"/>
                  <line class="cls-3" x1="168.52" y1="92.51" x2="168.52" y2="-174.44"/>
                  <line class="cls-3" x1="199.76" y1="-174.44" x2="199.76" y2="80.34"/>
                  <line class="cls-3" x1="189.92" y1="80.34" x2="189.92" y2="-193.57"/>
                </g>
                <g>
                  <line class="cls-3" x1="-50.25" y1="65.73" x2="233.21" y2="65.73"/>
                  <line class="cls-3" x1="204.52" y1="75.57" x2="-50.25" y2="75.57"/>
                  <line class="cls-3" x1="-109.79" y1="44.33" x2="204.52" y2="44.33"/>
                  <line class="cls-3" x1="204.52" y1="54.17" x2="-62.43" y2="54.17"/>
                  <line class="cls-3" x1="-50.25" y1="22.93" x2="223.65" y2="22.93"/>
                  <line class="cls-3" x1="231.83" y1="32.77" x2="-50.25" y2="32.77"/>
                  <line class="cls-3" x1="-50.25" y1="1.53" x2="204.52" y2="1.53"/>
                  <line class="cls-3" x1="204.52" y1="11.37" x2="-50.25" y2="11.37"/>
                </g>
              </g>
              <g class="cls-44">
                <g>
                  <line class="cls-3" x1="542.87" y1="-213.57" x2="542.87" y2="41.21"/>
                  <line class="cls-3" x1="533.04" y1="41.21" x2="533.04" y2="-213.57"/>
                  <line class="cls-3" x1="564.28" y1="-250.42" x2="564.28" y2="41.21"/>
                  <line class="cls-3" x1="554.44" y1="41.21" x2="554.44" y2="-213.57"/>
                  <line class="cls-3" x1="585.68" y1="-213.57" x2="585.68" y2="72.2"/>
                  <line class="cls-3" x1="575.84" y1="53.38" x2="575.84" y2="-213.57"/>
                  <line class="cls-3" x1="597.24" y1="41.21" x2="597.24" y2="-213.57"/>
                </g>
                <g>
                  <line class="cls-3" x1="528.27" y1="26.61" x2="811.74" y2="26.61"/>
                  <line class="cls-3" x1="783.05" y1="36.45" x2="528.27" y2="36.45"/>
                  <line class="cls-3" x1="468.74" y1="5.21" x2="783.05" y2="5.21"/>
                  <line class="cls-3" x1="783.05" y1="15.04" x2="516.1" y2="15.04"/>
                </g>
              </g>
              <g class="cls-44">
                <g>
                  <line class="cls-3" x1="163.67" y1="395.53" x2="453.66" y2="395.53"/>
                  <line class="cls-3" x1="171.58" y1="374.13" x2="426.35" y2="374.13"/>
                  <line class="cls-3" x1="426.35" y1="383.97" x2="152.45" y2="383.97"/>
                </g>
                <g>
                  <line class="cls-3" x1="411.75" y1="624.14" x2="411.75" y2="340.67"/>
                  <line class="cls-3" x1="421.59" y1="369.36" x2="421.59" y2="624.14"/>
                  <line class="cls-3" x1="390.35" y1="683.67" x2="390.35" y2="369.36"/>
                  <line class="cls-3" x1="400.19" y1="369.36" x2="400.19" y2="636.31"/>
                  <line class="cls-3" x1="368.95" y1="624.14" x2="368.95" y2="350.23"/>
                  <line class="cls-3" x1="378.79" y1="342.06" x2="378.79" y2="624.14"/>
                  <line class="cls-3" x1="347.55" y1="624.14" x2="347.55" y2="369.36"/>
                  <line class="cls-3" x1="357.39" y1="369.36" x2="357.39" y2="624.14"/>
                  <line class="cls-3" x1="326.15" y1="624.14" x2="326.15" y2="369.36"/>
                  <line class="cls-3" x1="335.99" y1="369.36" x2="335.99" y2="624.14"/>
                  <line class="cls-3" x1="304.75" y1="624.14" x2="304.75" y2="369.36"/>
                  <line class="cls-3" x1="314.59" y1="369.36" x2="314.59" y2="624.14"/>
                  <line class="cls-3" x1="283.35" y1="624.14" x2="283.35" y2="369.36"/>
                  <line class="cls-3" x1="293.19" y1="369.36" x2="293.19" y2="624.14"/>
                  <line class="cls-3" x1="261.95" y1="624.14" x2="261.95" y2="369.36"/>
                  <line class="cls-3" x1="271.78" y1="369.36" x2="271.78" y2="624.14"/>
                  <line class="cls-3" x1="240.54" y1="624.14" x2="240.54" y2="369.36"/>
                  <line class="cls-3" x1="250.38" y1="369.36" x2="250.38" y2="624.14"/>
                  <line class="cls-3" x1="219.14" y1="666.58" x2="219.14" y2="363.64"/>
                  <line class="cls-3" x1="228.98" y1="369.36" x2="228.98" y2="624.14"/>
                  <line class="cls-3" x1="197.74" y1="690.56" x2="197.74" y2="369.36"/>
                  <line class="cls-3" x1="207.58" y1="350.23" x2="207.58" y2="634.98"/>
                  <line class="cls-3" x1="176.34" y1="624.14" x2="176.34" y2="369.36"/>
                  <line class="cls-3" x1="186.18" y1="369.36" x2="186.18" y2="624.14"/>
                </g>
              </g>
            </g>
          </g>
          <g>
            <g>
              <g>
                <polygon class="cls-19" points="528.16 349.7 528.16 352.22 522.79 346.85 517.42 352.22 517.42 349.7 521.53 345.59 521.52 345.58 522.79 344.32 524.06 345.58 524.06 345.59 528.16 349.7"/>
                <g>
                  <polygon class="cls-19" points="528.16 335.99 528.16 338.52 522.79 333.15 517.42 338.52 517.42 335.99 521.53 331.88 521.52 331.88 522.79 330.61 524.06 331.88 524.06 331.88 528.16 335.99"/>
                  <polygon class="cls-19" points="528.16 345.04 528.16 347.57 522.79 342.2 517.42 347.57 517.42 345.04 522.79 339.67 528.16 345.04"/>
                </g>
              </g>
              <g>
                <g>
                  <rect class="cls-17" x="543.21" y="341.71" width="6.5" height="9.12" transform="translate(1092.92 692.54) rotate(180)"/>
                  <rect class="cls-25" x="543.21" y="327.59" width="6.5" height="9.12" transform="translate(1092.92 664.29) rotate(180)"/>
                  <rect class="cls-12" x="543.21" y="313.47" width="6.5" height="9.12" transform="translate(1092.92 636.05) rotate(180)"/>
                  <rect class="cls-21" x="543.21" y="299.34" width="6.5" height="9.12" transform="translate(1092.92 607.81) rotate(180)"/>
                  <rect class="cls-11" x="543.21" y="285.22" width="6.5" height="9.12" transform="translate(1092.92 579.56) rotate(180)"/>
                  <rect class="cls-29" x="543.21" y="271.1" width="6.5" height="9.12" transform="translate(1092.92 551.32) rotate(180)"/>
                </g>
                <g>
                  <polyline class="cls-4" points="576.29 261.77 576.29 361.34 469.29 361.34 469.29 372.59 565.29 372.59 565.29 249.52"/>
                  <circle class="cls-17" cx="565.24" cy="249.52" r="2.82"/>
                  <circle class="cls-17" cx="576.29" cy="261.73" r="2.82"/>
                </g>
              </g>
              <polygon class="cls-19" points="523.39 372.59 519.07 368.27 470.01 368.27 470.01 372.59 523.39 372.59"/>
              <polygon class="cls-19" points="576.29 354.28 580.61 349.96 580.61 300.89 576.29 300.89 576.29 354.28"/>
            </g>
            <g>
              <rect class="cls-17" x="475.58" y="302.01" width="40.44" height="2.55"/>
              <rect class="cls-12" x="491.07" y="294.49" width="24.96" height="2.55"/>
              <rect class="cls-21" x="483.99" y="286.97" width="32.03" height="2.55"/>
              <rect class="cls-11" x="488.01" y="279.45" width="28.01" height="2.55"/>
              <rect class="cls-29" x="498.46" y="271.93" width="17.56" height="2.55"/>
            </g>
          </g>
          <g>
            <g>
              <g>
                <rect class="cls-19" x="90.86" y="345.65" width="5.47" height="3.08" transform="translate(-253.58 440.78) rotate(-90)"/>
                <rect class="cls-22" x="95.39" y="345.65" width="5.47" height="3.08" transform="translate(-249.06 445.31) rotate(-90)"/>
                <rect class="cls-40" x="99.92" y="345.65" width="5.47" height="3.08" transform="translate(-244.53 449.84) rotate(-90)"/>
                <rect class="cls-38" x="104.45" y="345.65" width="5.47" height="3.08" transform="translate(-240 454.37) rotate(-90)"/>
                <rect class="cls-14" x="108.97" y="345.65" width="5.47" height="3.08" transform="translate(-235.47 458.89) rotate(-90)"/>
              </g>
              <g>
                <rect class="cls-19" x="90.86" y="334.57" width="5.47" height="3.08" transform="translate(-242.5 429.7) rotate(-90)"/>
                <rect class="cls-22" x="95.39" y="334.57" width="5.47" height="3.08" transform="translate(-237.98 434.23) rotate(-90)"/>
                <rect class="cls-40" x="99.92" y="334.57" width="5.47" height="3.08" transform="translate(-233.45 438.76) rotate(-90)"/>
                <rect class="cls-38" x="104.45" y="334.57" width="5.47" height="3.08" transform="translate(-228.92 443.29) rotate(-90)"/>
                <rect class="cls-14" x="108.97" y="334.57" width="5.47" height="3.08" transform="translate(-224.39 447.81) rotate(-90)"/>
                <rect class="cls-42" x="113.5" y="334.57" width="5.47" height="3.08" transform="translate(-219.86 452.34) rotate(-90)"/>
                <rect class="cls-24" x="118.03" y="334.57" width="5.47" height="3.08" transform="translate(-215.34 456.87) rotate(-90)"/>
              </g>
              <g>
                <rect class="cls-19" x="90.86" y="323.48" width="5.47" height="3.08" transform="translate(-231.42 418.62) rotate(-90)"/>
                <rect class="cls-22" x="95.39" y="323.48" width="5.47" height="3.08" transform="translate(-226.9 423.15) rotate(-90)"/>
                <rect class="cls-40" x="99.92" y="323.48" width="5.47" height="3.08" transform="translate(-222.37 427.68) rotate(-90)"/>
                <rect class="cls-38" x="104.45" y="323.48" width="5.47" height="3.08" transform="translate(-217.84 432.21) rotate(-90)"/>
                <rect class="cls-14" x="108.97" y="323.48" width="5.47" height="3.08" transform="translate(-213.31 436.73) rotate(-90)"/>
                <rect class="cls-42" x="113.5" y="323.48" width="5.47" height="3.08" transform="translate(-208.78 441.26) rotate(-90)"/>
                <rect class="cls-24" x="118.03" y="323.48" width="5.47" height="3.08" transform="translate(-204.26 445.79) rotate(-90)"/>
                <rect class="cls-28" x="122.56" y="323.48" width="5.47" height="3.08" transform="translate(-199.73 450.32) rotate(-90)"/>
              </g>
              <g>
                <rect class="cls-19" x="90.86" y="312.4" width="5.47" height="3.08" transform="translate(-220.34 407.54) rotate(-90)"/>
                <rect class="cls-22" x="95.39" y="312.4" width="5.47" height="3.08" transform="translate(-215.82 412.07) rotate(-90)"/>
                <rect class="cls-40" x="99.92" y="312.4" width="5.47" height="3.08" transform="translate(-211.29 416.6) rotate(-90)"/>
                <rect class="cls-38" x="104.45" y="312.4" width="5.47" height="3.08" transform="translate(-206.76 421.13) rotate(-90)"/>
                <rect class="cls-14" x="108.97" y="312.4" width="5.47" height="3.08" transform="translate(-202.23 425.65) rotate(-90)"/>
              </g>
              <g>
                <rect class="cls-19" x="90.86" y="301.32" width="5.47" height="3.08" transform="translate(-209.26 396.46) rotate(-90)"/>
                <rect class="cls-22" x="95.39" y="301.32" width="5.47" height="3.08" transform="translate(-204.74 400.99) rotate(-90)"/>
                <rect class="cls-40" x="99.92" y="301.32" width="5.47" height="3.08" transform="translate(-200.21 405.52) rotate(-90)"/>
                <rect class="cls-38" x="104.45" y="301.32" width="5.47" height="3.08" transform="translate(-195.68 410.04) rotate(-90)"/>
                <rect class="cls-14" x="108.97" y="301.32" width="5.47" height="3.08" transform="translate(-191.15 414.57) rotate(-90)"/>
                <rect class="cls-42" x="113.5" y="301.32" width="5.47" height="3.08" transform="translate(-186.62 419.1) rotate(-90)"/>
                <rect class="cls-24" x="118.03" y="301.32" width="5.47" height="3.08" transform="translate(-182.1 423.63) rotate(-90)"/>
                <rect class="cls-28" x="122.56" y="301.32" width="5.47" height="3.08" transform="translate(-177.57 428.16) rotate(-90)"/>
              </g>
            </g>
            <g>
              <g>
                <polygon class="cls-19" points="71.62 346.13 71.62 348.66 76.99 343.29 82.36 348.66 82.36 346.13 78.25 342.03 78.26 342.02 76.99 340.76 75.72 342.02 75.72 342.03 71.62 346.13"/>
                <polygon class="cls-19" points="71.62 341.47 71.62 344.01 76.99 338.64 82.36 344.01 82.36 341.47 76.99 336.1 71.62 341.47"/>
              </g>
              <g>
                <g>
                  <rect class="cls-17" x="50.07" y="338.15" width="6.5" height="9.12"/>
                  <rect class="cls-25" x="50.07" y="324.02" width="6.5" height="9.12"/>
                  <rect class="cls-12" x="50.07" y="309.9" width="6.5" height="9.12"/>
                  <rect class="cls-21" x="50.07" y="295.78" width="6.5" height="9.12"/>
                  <rect class="cls-11" x="50.07" y="281.66" width="6.5" height="9.12"/>
                  <rect class="cls-29" x="50.07" y="267.54" width="6.5" height="9.12"/>
                </g>
                <g>
                  <polyline class="cls-4" points="23.49 258.21 23.49 357.78 130.49 357.78 130.49 369.03 34.49 369.03 34.49 245.96"/>
                  <circle class="cls-17" cx="34.54" cy="245.96" r="2.82"/>
                  <circle class="cls-17" cx="23.49" cy="258.17" r="2.82"/>
                </g>
              </g>
              <polygon class="cls-19" points="76.39 369.03 80.7 364.71 129.77 364.71 129.77 369.03 76.39 369.03"/>
              <polygon class="cls-19" points="23.49 350.72 19.17 346.4 19.17 297.33 23.49 297.33 23.49 350.72"/>
            </g>
          </g>
        </g>
      </g>
    </g>
  </g>
</svg>