<?xml version="1.0" encoding="UTF-8"?>
<svg xmlns="http://www.w3.org/2000/svg" xmlns:xlink="http://www.w3.org/1999/xlink" viewBox="0 0 1440 1024">
  <defs>
    <style>
      .cls-1, .cls-2, .cls-3, .cls-4, .cls-5, .cls-6, .cls-7, .cls-8, .cls-9, .cls-10 {
        fill: none;
      }

      .cls-1, .cls-2, .cls-3, .cls-4, .cls-5, .cls-6, .cls-8, .cls-9, .cls-10 {
        stroke-miterlimit: 10;
      }

      .cls-1, .cls-2, .cls-3, .cls-6, .cls-8 {
        stroke: #d0e9f2;
      }

      .cls-1, .cls-3, .cls-6, .cls-8 {
        stroke-width: .5px;
      }

      .cls-11 {
        opacity: .22;
      }

      .cls-11, .cls-12, .cls-13, .cls-14, .cls-15, .cls-16, .cls-17, .cls-18, .cls-19, .cls-20, .cls-21, .cls-22, .cls-23, .cls-24, .cls-25, .cls-26, .cls-27, .cls-7, .cls-28, .cls-29, .cls-30, .cls-31, .cls-32, .cls-33, .cls-34, .cls-35, .cls-36, .cls-37, .cls-38, .cls-39, .cls-40, .cls-41, .cls-42, .cls-43 {
        stroke-width: 0px;
      }

      .cls-11, .cls-12, .cls-17, .cls-21, .cls-25, .cls-29 {
        fill: #134570;
      }

      .cls-12, .cls-44 {
        opacity: .4;
      }

      .cls-13 {
        fill: url(#radial-gradient-16);
      }

      .cls-14 {
        opacity: .53;
      }

      .cls-14, .cls-19, .cls-22, .cls-24, .cls-28, .cls-38, .cls-40, .cls-42 {
        fill: #2389af;
      }

      .cls-15 {
        fill: url(#linear-gradient);
      }

      .cls-16 {
        fill: #2d83a6;
      }

      .cls-18 {
        fill: url(#radial-gradient-7);
      }

      .cls-18, .cls-30, .cls-31, .cls-32, .cls-33, .cls-34, .cls-36 {
        mix-blend-mode: color-dodge;
      }

      .cls-45 {
        opacity: .5;
      }

      .cls-2, .cls-10 {
        stroke-width: .75px;
      }

      .cls-20 {
        fill: #d0e9f2;
      }

      .cls-21 {
        opacity: .34;
      }

      .cls-22 {
        opacity: .82;
      }

      .cls-23 {
        fill: url(#radial-gradient-8);
      }

      .cls-46 {
        isolation: isolate;
      }

      .cls-24 {
        opacity: .32;
      }

      .cls-3 {
        stroke-dasharray: 0 0 3.98 3.98;
      }

      .cls-4 {
        stroke: #023e73;
      }

      .cls-25 {
        opacity: .64;
      }

      .cls-26 {
        fill: url(#radial-gradient-13);
      }

      .cls-5 {
        stroke: #134570;
        stroke-width: 2px;
      }

      .cls-27 {
        fill: url(#radial-gradient-12);
      }

      .cls-6 {
        stroke-dasharray: 0 0 3.91 3.91;
      }

      .cls-8 {
        stroke-dasharray: 0 0 3.99 3.99;
      }

      .cls-28 {
        opacity: .24;
      }

      .cls-29 {
        opacity: .15;
      }

      .cls-30 {
        fill: url(#radial-gradient);
      }

      .cls-31 {
        fill: url(#radial-gradient-3);
      }

      .cls-32 {
        fill: url(#radial-gradient-5);
      }

      .cls-47 {
        clip-path: url(#clippath);
      }

      .cls-9, .cls-10 {
        stroke: #2d83a6;
      }

      .cls-33 {
        fill: url(#radial-gradient-4);
      }

      .cls-34 {
        fill: url(#radial-gradient-2);
      }

      .cls-35 {
        fill: url(#radial-gradient-14);
      }

      .cls-36 {
        fill: url(#radial-gradient-6);
      }

      .cls-37 {
        fill: url(#radial-gradient-10);
      }

      .cls-38 {
        opacity: .62;
      }

      .cls-39 {
        fill: url(#radial-gradient-15);
      }

      .cls-40 {
        opacity: .72;
      }

      .cls-41 {
        fill: url(#radial-gradient-9);
      }

      .cls-42 {
        opacity: .41;
      }

      .cls-43 {
        fill: url(#radial-gradient-11);
      }
    </style>
    <linearGradient id="linear-gradient" x1="50.4" y1="-175.69" x2="1107.69" y2="910.17" gradientUnits="userSpaceOnUse">
      <stop offset=".04" stop-color="#023859"/>
      <stop offset="1" stop-color="#011826"/>
    </linearGradient>
    <radialGradient id="radial-gradient" cx="313.59" cy="1758.02" fx="313.59" fy="1758.02" r="68.95" gradientTransform="translate(-367.17 536.06) scale(4.38 .1)" gradientUnits="userSpaceOnUse">
      <stop offset=".07" stop-color="#d0e9f2"/>
      <stop offset=".92" stop-color="#000"/>
    </radialGradient>
    <radialGradient id="radial-gradient-2" cx="328.27" cy="-2293.23" fx="328.27" fy="-2293.23" r="68.95" xlink:href="#radial-gradient"/>
    <radialGradient id="radial-gradient-3" cx="269.47" cy="-1301.84" fx="269.47" fy="-1301.84" r="68.95" xlink:href="#radial-gradient"/>
    <radialGradient id="radial-gradient-4" cx="175.04" cy="-3843.41" fx="175.04" fy="-3843.41" r="43.23" xlink:href="#radial-gradient"/>
    <radialGradient id="radial-gradient-5" cx="218.26" cy="3689.58" fx="218.26" fy="3689.58" r="43.23" xlink:href="#radial-gradient"/>
    <radialGradient id="radial-gradient-6" cx="-708.46" cy="-746.23" fx="-708.46" fy="-746.23" r="68.96" gradientTransform="translate(265.35 488.82) rotate(-180) scale(1.23 .03)" xlink:href="#radial-gradient"/>
    <radialGradient id="radial-gradient-7" cx="332.18" cy="-558.13" fx="332.18" fy="-558.13" r="68.95" xlink:href="#radial-gradient"/>
    <radialGradient id="radial-gradient-8" cx="1237.53" cy="420.23" fx="1237.53" fy="420.23" r="45.2" gradientTransform="translate(44.23) scale(.94 1)" gradientUnits="userSpaceOnUse">
      <stop offset="0" stop-color="#d0e9f2"/>
      <stop offset=".01" stop-color="rgba(200, 225, 234, .96)" stop-opacity=".96"/>
      <stop offset=".1" stop-color="rgba(154, 178, 189, .74)" stop-opacity=".74"/>
      <stop offset=".19" stop-color="rgba(113, 137, 148, .54)" stop-opacity=".54"/>
      <stop offset=".28" stop-color="rgba(78, 102, 114, .38)" stop-opacity=".38"/>
      <stop offset=".37" stop-color="rgba(50, 74, 86, .24)" stop-opacity=".24"/>
      <stop offset=".47" stop-color="rgba(28, 52, 65, .13)" stop-opacity=".13"/>
      <stop offset=".56" stop-color="rgba(13, 36, 50, .06)" stop-opacity=".06"/>
      <stop offset=".67" stop-color="rgba(3, 27, 40, .01)" stop-opacity=".01"/>
      <stop offset=".78" stop-color="#011826" stop-opacity="0"/>
    </radialGradient>
    <radialGradient id="radial-gradient-9" cx="769.41" cy="463.17" fx="769.41" fy="463.17" r="50.2" xlink:href="#radial-gradient-8"/>
    <radialGradient id="radial-gradient-10" cx="1278.83" cy="304.9" fx="1278.83" fy="304.9" r="37.99" xlink:href="#radial-gradient-8"/>
    <radialGradient id="radial-gradient-11" cx="1306.71" cy="705.39" fx="1306.71" fy="705.39" r="69.58" xlink:href="#radial-gradient-8"/>
    <radialGradient id="radial-gradient-12" cx="795.44" cy="713.36" fx="795.44" fy="713.36" r="37.99" xlink:href="#radial-gradient-8"/>
    <radialGradient id="radial-gradient-13" cx="827.22" cy="532.16" fx="827.22" fy="532.16" r="66.84" xlink:href="#radial-gradient-8"/>
    <radialGradient id="radial-gradient-14" cx="1244.83" cy="554.02" fx="1244.83" fy="554.02" r="66.84" xlink:href="#radial-gradient-8"/>
    <radialGradient id="radial-gradient-15" cx="1359.18" cy="407.35" fx="1359.18" fy="407.35" r="34.65" xlink:href="#radial-gradient-8"/>
    <radialGradient id="radial-gradient-16" cx="710.74" cy="546.34" fx="710.74" fy="546.34" r="34.65" xlink:href="#radial-gradient-8"/>
    <clipPath id="clippath">
      <rect class="cls-7" width="1440" height="1024"/>
    </clipPath>
  </defs>
  <g class="cls-46">
    <g id="Layer_2" data-name="Layer 2">
      <g id="OBJECTS">
        <g>
          <rect class="cls-15" width="1440" height="1024"/>
          <g>
            <path class="cls-30" d="M1307.54,713.26c0,3.84-135.13,6.95-301.83,6.95s-301.83-3.11-301.83-6.95,135.13-6.95,301.83-6.95,301.83,3.11,301.83,6.95Z"/>
            <ellipse class="cls-34" cx="1069.99" cy="304.9" rx="301.83" ry="6.95"/>
            <path class="cls-31" d="M1114.37,404.83c0,3.84-135.13,6.95-301.83,6.95s-301.83-3.11-301.83-6.95,135.13-6.95,301.83-6.95,301.83,3.11,301.83,6.95Z"/>
            <ellipse class="cls-33" cx="399.14" cy="148.64" rx="189.22" ry="4.36"/>
            <path class="cls-32" d="M777.58,907.96c0,2.41-84.72,4.36-189.22,4.36s-189.22-1.95-189.22-4.36,84.72-4.36,189.22-4.36,189.22,1.95,189.22,4.36Z"/>
            <ellipse class="cls-36" cx="1133.22" cy="509.86" rx="84.46" ry="1.95"/>
            <path class="cls-18" d="M1388.9,479.8c0,3.84-135.13,6.95-301.83,6.95s-301.83-3.11-301.83-6.95,135.13-6.95,301.83-6.95,301.83,3.11,301.83,6.95Z"/>
            <g class="cls-44">
              <g>
                <line class="cls-4" x1="765.57" y1="191.42" x2="765.57" y2="799.25"/>
                <line class="cls-4" x1="743.54" y1="799.25" x2="743.54" y2="191.42"/>
                <line class="cls-4" x1="813.49" y1="103.48" x2="813.49" y2="799.25"/>
                <line class="cls-4" x1="791.46" y1="799.25" x2="791.46" y2="191.42"/>
                <line class="cls-4" x1="861.41" y1="191.42" x2="861.41" y2="873.19"/>
                <line class="cls-4" x1="839.38" y1="828.3" x2="839.38" y2="191.42"/>
                <line class="cls-4" x1="909.33" y1="191.42" x2="909.33" y2="799.25"/>
                <line class="cls-4" x1="887.3" y1="799.25" x2="887.3" y2="191.42"/>
                <line class="cls-4" x1="957.25" y1="191.42" x2="957.25" y2="799.25"/>
                <line class="cls-4" x1="935.22" y1="799.25" x2="935.22" y2="191.42"/>
                <line class="cls-4" x1="1005.17" y1="191.42" x2="1005.17" y2="799.25"/>
                <line class="cls-4" x1="983.14" y1="799.25" x2="983.14" y2="191.42"/>
                <line class="cls-4" x1="1053.09" y1="191.42" x2="1053.09" y2="799.25"/>
                <line class="cls-4" x1="1031.06" y1="799.25" x2="1031.06" y2="191.42"/>
                <line class="cls-4" x1="1101.01" y1="191.42" x2="1101.01" y2="799.25"/>
                <line class="cls-4" x1="1078.98" y1="799.25" x2="1078.98" y2="191.42"/>
                <line class="cls-4" x1="1148.93" y1="191.42" x2="1148.93" y2="799.25"/>
                <line class="cls-4" x1="1126.9" y1="799.25" x2="1126.9" y2="191.42"/>
                <line class="cls-4" x1="1196.85" y1="191.42" x2="1196.85" y2="907.96"/>
                <line class="cls-4" x1="1174.82" y1="799.25" x2="1174.82" y2="191.42"/>
                <line class="cls-4" x1="1244.78" y1="172.56" x2="1244.78" y2="864.4"/>
                <line class="cls-4" x1="1222.74" y1="828.3" x2="1222.74" y2="191.42"/>
                <line class="cls-4" x1="1292.7" y1="191.42" x2="1292.7" y2="799.25"/>
                <line class="cls-4" x1="1270.66" y1="799.25" x2="1270.66" y2="145.77"/>
              </g>
              <g>
                <line class="cls-4" x1="732.87" y1="764.42" x2="1367.61" y2="764.42"/>
                <line class="cls-4" x1="1303.36" y1="787.89" x2="732.87" y2="787.89"/>
                <line class="cls-4" x1="599.56" y1="713.36" x2="1303.36" y2="713.36"/>
                <line class="cls-4" x1="1303.36" y1="736.83" x2="705.61" y2="736.83"/>
                <line class="cls-4" x1="732.87" y1="662.3" x2="1346.2" y2="662.3"/>
                <line class="cls-4" x1="1364.51" y1="685.78" x2="732.87" y2="685.78"/>
                <line class="cls-4" x1="732.87" y1="611.24" x2="1303.36" y2="611.24"/>
                <line class="cls-4" x1="1303.36" y1="634.72" x2="732.87" y2="634.72"/>
                <line class="cls-4" x1="732.87" y1="560.19" x2="1303.36" y2="560.19"/>
                <line class="cls-4" x1="1303.36" y1="583.66" x2="732.87" y2="583.66"/>
                <line class="cls-4" x1="732.87" y1="509.13" x2="1303.36" y2="509.13"/>
                <line class="cls-4" x1="1303.36" y1="532.6" x2="732.87" y2="532.6"/>
                <line class="cls-4" x1="732.87" y1="458.07" x2="1303.36" y2="458.07"/>
                <line class="cls-4" x1="1303.36" y1="481.54" x2="732.87" y2="481.54"/>
                <line class="cls-4" x1="732.87" y1="407.01" x2="1303.36" y2="407.01"/>
                <line class="cls-4" x1="1303.36" y1="430.49" x2="732.87" y2="430.49"/>
                <line class="cls-4" x1="732.87" y1="355.96" x2="1303.36" y2="355.96"/>
                <line class="cls-4" x1="1303.36" y1="379.43" x2="732.87" y2="379.43"/>
                <line class="cls-4" x1="637.84" y1="304.9" x2="1316.17" y2="304.9"/>
                <line class="cls-4" x1="1303.36" y1="328.37" x2="732.87" y2="328.37"/>
                <line class="cls-4" x1="584.13" y1="253.84" x2="1303.36" y2="253.84"/>
                <line class="cls-4" x1="1346.2" y1="277.31" x2="708.6" y2="277.31"/>
                <line class="cls-4" x1="732.87" y1="202.78" x2="1303.36" y2="202.78"/>
                <line class="cls-4" x1="1303.36" y1="226.26" x2="732.87" y2="226.26"/>
              </g>
            </g>
            <g class="cls-45">
              <polyline class="cls-9" points="973.26 456.81 819.03 457.63 805.84 431.89 739.94 431.89"/>
              <line class="cls-9" x1="971.94" y1="443.94" x2="860.58" y2="444.76"/>
              <polyline class="cls-9" points="902.88 485.25 807.84 485.25 794.77 463.17 718.45 463.17"/>
              <polyline class="cls-9" points="971.94 472.75 813.78 472.75 797.78 444.76 685.14 444.76"/>
              <path class="cls-9" d="M678.57,444.76c0-2.18,1.66-3.95,3.71-3.95s3.71,1.77,3.71,3.95-1.66,3.95-3.71,3.95-3.71-1.77-3.71-3.95Z"/>
              <path class="cls-9" d="M711.31,463.17c0-2.18,1.66-3.95,3.71-3.95s3.71,1.77,3.71,3.95-1.66,3.95-3.71,3.95-3.71-1.77-3.71-3.95Z"/>
              <path class="cls-9" d="M732.52,431.89c0-2.18,1.66-3.95,3.71-3.95s3.71,1.77,3.71,3.95-1.66,3.95-3.71,3.95-3.71-1.77-3.71-3.95Z"/>
              <path class="cls-9" d="M853.17,443.94c0-2.18,1.66-3.95,3.71-3.95s3.71,1.77,3.71,3.95-1.66,3.95-3.71,3.95-3.71-1.77-3.71-3.95Z"/>
            </g>
            <g class="cls-45">
              <polyline class="cls-9" points="973.26 532.98 819.03 532.16 805.84 557.9 739.94 557.9"/>
              <line class="cls-9" x1="971.94" y1="545.85" x2="860.58" y2="545.03"/>
              <polyline class="cls-9" points="902.88 504.54 807.84 504.54 794.77 526.62 718.45 526.62"/>
              <polyline class="cls-9" points="971.94 517.04 813.78 517.04 797.78 545.03 685.14 545.03"/>
              <path class="cls-9" d="M678.57,545.03c0,2.18,1.66,3.95,3.71,3.95s3.71-1.77,3.71-3.95-1.66-3.95-3.71-3.95-3.71,1.77-3.71,3.95Z"/>
              <path class="cls-9" d="M711.31,526.62c0,2.18,1.66,3.95,3.71,3.95s3.71-1.77,3.71-3.95-1.66-3.95-3.71-3.95-3.71,1.77-3.71,3.95Z"/>
              <path class="cls-9" d="M732.52,557.9c0,2.18,1.66,3.95,3.71,3.95s3.71-1.77,3.71-3.95-1.66-3.95-3.71-3.95-3.71,1.77-3.71,3.95Z"/>
              <path class="cls-9" d="M853.17,545.85c0,2.18,1.66,3.95,3.71,3.95s3.71-1.77,3.71-3.95-1.66-3.95-3.71-3.95-3.71,1.77-3.71,3.95Z"/>
            </g>
            <g>
              <path class="cls-1" d="M1247.51,450.33c.11.66.23,1.31.34,1.97"/>
              <path class="cls-6" d="M1248.45,456.16c1.9,12.61,2.89,25.55,2.89,38.74,0,15.35-1.34,30.36-3.9,44.92"/>
              <path class="cls-1" d="M1247.1,541.74c-.12.66-.24,1.31-.37,1.96"/>
            </g>
            <g>
              <path class="cls-1" d="M813.84,402.58c.24-.62.48-1.24.73-1.86"/>
              <path class="cls-8" d="M816.07,397.02c35.29-85,115.13-144.31,207.97-144.31,83.17,0,155.9,47.59,195.52,118.6"/>
              <path class="cls-1" d="M1220.53,373.06c.32.58.64,1.17.95,1.76"/>
            </g>
            <g>
              <path class="cls-1" d="M1227.72,602.53c-.28.6-.57,1.21-.85,1.81"/>
              <path class="cls-3" d="M1225.13,607.92c-38.11,76.81-113.86,129.16-201.08,129.16-96.61,0-179.15-64.22-212.05-154.79"/>
              <path class="cls-1" d="M811.32,580.41c-.22-.63-.44-1.26-.66-1.89"/>
            </g>
            <path class="cls-10" d="M901.92,276.03c35.74-22.69,77.5-35.72,122.12-35.72,56.89,0,109.14,21.18,150.17,56.55"/>
            <path class="cls-2" d="M901.92,257.19c35.74-22.69,77.5-35.72,122.12-35.72,56.89,0,109.14,21.18,150.17,56.55"/>
            <path class="cls-10" d="M796.38,417.38c14.78-49.33,43.3-92.12,80.76-123.28"/>
            <path class="cls-10" d="M801.28,587.15c-2.15-5.9-4.11-11.9-5.85-18.01"/>
            <path class="cls-10" d="M1068.8,745.02c-14.5,2.93-29.46,4.46-44.75,4.46-82.48,0-155.19-44.52-198.13-112.24"/>
            <path class="cls-2" d="M1062.74,753.52c-14.5,2.93-29.46,4.46-44.75,4.46-82.48,0-155.19-44.52-198.13-112.24"/>
            <path class="cls-10" d="M1205.73,660.24c-28.29,35.25-65.45,62.17-107.81,76.83"/>
            <path class="cls-2" d="M1245.51,639.58c-22.59,39.65-55.2,72.6-94.78,94.33"/>
            <path class="cls-10" d="M1240.82,602.13c-5.35,12.26-11.6,24-18.64,35.1"/>
            <path class="cls-10" d="M1259.34,450.33c2.4,14.47,3.65,29.36,3.65,44.56s-1.37,31.51-4,46.63"/>
            <path class="cls-10" d="M1237.32,380c1.11,2.33,2.19,4.69,3.23,7.06"/>
            <g>
              <polygon class="cls-20" points="1284.83 596.08 1218.26 596.08 1205.07 570.34 1020.98 571.16 1020.97 568.77 1206.4 567.95 1219.59 593.69 1284.83 593.69 1284.83 596.08"/>
              <rect class="cls-20" x="1009.68" y="581.23" width="154.51" height="2.39" transform="translate(-3.21 6.03) rotate(-.32)"/>
              <polygon class="cls-20" points="1306.32 564.8 1229.39 564.8 1216.31 542.71 1052.3 542.71 1052.3 540.33 1217.54 540.33 1230.62 562.41 1306.32 562.41 1306.32 564.8"/>
              <polygon class="cls-20" points="1339.63 583.21 1226.36 583.21 1210.36 555.21 1149.37 555.21 1149.37 552.83 1211.62 552.83 1227.62 580.82 1339.63 580.82 1339.63 583.21"/>
              <path class="cls-20" d="M1342.5,587.15c-2.66,0-4.83-2.31-4.83-5.14s2.16-5.14,4.83-5.14,4.82,2.31,4.82,5.14-2.16,5.14-4.82,5.14ZM1342.5,579.26c-1.43,0-2.59,1.23-2.59,2.75s1.16,2.76,2.59,2.76,2.58-1.24,2.58-2.76-1.16-2.75-2.58-2.75Z"/>
              <path class="cls-20" d="M1309.76,568.74c-2.66,0-4.83-2.31-4.83-5.14s2.16-5.14,4.83-5.14,4.82,2.31,4.82,5.14-2.16,5.14-4.82,5.14ZM1309.76,560.85c-1.43,0-2.59,1.24-2.59,2.76s1.16,2.75,2.59,2.75,2.58-1.23,2.58-2.75-1.16-2.76-2.58-2.76Z"/>
              <path class="cls-20" d="M1288.54,600.03c-2.66,0-4.83-2.31-4.83-5.14s2.16-5.14,4.83-5.14,4.83,2.31,4.83,5.14-2.16,5.14-4.83,5.14ZM1288.54,592.13c-1.43,0-2.59,1.24-2.59,2.76s1.16,2.76,2.59,2.76,2.59-1.24,2.59-2.76-1.16-2.76-2.59-2.76Z"/>
              <path class="cls-20" d="M1167.9,587.98c-2.66,0-4.82-2.31-4.82-5.14s2.16-5.14,4.82-5.14,4.83,2.31,4.83,5.14-2.16,5.14-4.83,5.14ZM1167.9,580.08c-1.43,0-2.58,1.24-2.58,2.76s1.16,2.76,2.58,2.76,2.59-1.24,2.59-2.76-1.16-2.76-2.59-2.76Z"/>
            </g>
            <g>
              <polygon class="cls-20" points="1072.64 621.54 1071.97 621.54 941.18 620.96 941.19 618.58 1071.31 619.15 1080.65 600.93 1127.97 600.93 1127.97 603.32 1081.98 603.32 1072.64 621.54"/>
              <rect class="cls-20" x="986.68" y="556.26" width="2.39" height="109.38" transform="translate(371.7 1595.57) rotate(-89.7)"/>
              <polygon class="cls-20" points="1080.52 641.1 963.36 641.1 963.36 638.71 1079.28 638.71 1088.54 623.08 1143.18 623.08 1143.18 625.46 1089.77 625.46 1080.52 641.1"/>
              <polygon class="cls-20" points="1076.32 632.25 954.14 632.25 954.14 629.86 1075.07 629.86 1086.39 610.04 1166.76 610.04 1166.76 612.43 1087.65 612.43 1076.32 632.25"/>
              <path class="cls-20" d="M1168.79,615.22c-2.06,0-3.74-1.79-3.74-3.99s1.68-3.99,3.74-3.99,3.74,1.79,3.74,3.99-1.68,3.99-3.74,3.99ZM1168.79,609.64c-.83,0-1.5.72-1.5,1.6s.67,1.6,1.5,1.6,1.5-.72,1.5-1.6-.68-1.6-1.5-1.6Z"/>
              <path class="cls-20" d="M1145.62,628.26c-2.06,0-3.74-1.79-3.74-3.99s1.68-3.99,3.74-3.99,3.74,1.79,3.74,3.99-1.68,3.99-3.74,3.99ZM1145.62,622.67c-.83,0-1.5.72-1.5,1.6s.67,1.6,1.5,1.6,1.5-.72,1.5-1.6-.68-1.6-1.5-1.6Z"/>
              <path class="cls-20" d="M1130.6,606.11c-2.06,0-3.74-1.79-3.74-3.99s1.68-3.99,3.74-3.99,3.74,1.79,3.74,3.99-1.68,3.99-3.74,3.99ZM1130.6,600.52c-.83,0-1.5.72-1.5,1.6s.68,1.6,1.5,1.6,1.5-.72,1.5-1.6-.67-1.6-1.5-1.6Z"/>
              <path class="cls-20" d="M1045.19,614.64c-2.06,0-3.74-1.79-3.74-3.99s1.68-3.99,3.74-3.99,3.74,1.79,3.74,3.99-1.68,3.99-3.74,3.99ZM1045.19,609.05c-.83,0-1.5.72-1.5,1.6s.68,1.6,1.5,1.6,1.5-.72,1.5-1.6-.68-1.6-1.5-1.6Z"/>
            </g>
            <g>
              <polygon class="cls-20" points="1127.97 390.92 1080.65 390.92 1071.31 372.69 941.19 373.27 941.18 370.89 1072.64 370.3 1081.98 388.53 1127.97 388.53 1127.97 390.92"/>
              <rect class="cls-20" x="933.19" y="379.71" width="109.38" height="2.39" transform="translate(-2.06 5.38) rotate(-.31)"/>
              <polygon class="cls-20" points="1143.18 368.77 1088.54 368.77 1079.28 353.14 963.36 353.14 963.36 350.75 1080.52 350.75 1089.77 366.38 1143.18 366.38 1143.18 368.77"/>
              <polygon class="cls-20" points="1166.76 381.8 1086.39 381.8 1075.07 361.99 954.14 361.99 954.14 359.6 1076.32 359.6 1087.65 379.42 1166.76 379.42 1166.76 381.8"/>
              <path class="cls-20" d="M1168.79,384.6c-2.06,0-3.74-1.79-3.74-3.99s1.68-3.99,3.74-3.99,3.74,1.79,3.74,3.99-1.68,3.99-3.74,3.99ZM1168.79,379.01c-.83,0-1.5.72-1.5,1.6s.67,1.6,1.5,1.6,1.5-.72,1.5-1.6-.68-1.6-1.5-1.6Z"/>
              <path class="cls-20" d="M1145.62,371.56c-2.06,0-3.74-1.79-3.74-3.99s1.68-3.99,3.74-3.99,3.74,1.79,3.74,3.99-1.68,3.99-3.74,3.99ZM1145.62,365.98c-.83,0-1.5.72-1.5,1.6s.67,1.6,1.5,1.6,1.5-.72,1.5-1.6-.68-1.6-1.5-1.6Z"/>
              <path class="cls-20" d="M1130.6,393.71c-2.06,0-3.74-1.79-3.74-3.99s1.68-3.99,3.74-3.99,3.74,1.79,3.74,3.99-1.68,3.99-3.74,3.99ZM1130.6,388.12c-.83,0-1.5.72-1.5,1.6s.68,1.6,1.5,1.6,1.5-.72,1.5-1.6-.67-1.6-1.5-1.6Z"/>
              <path class="cls-20" d="M1045.19,385.18c-2.06,0-3.74-1.79-3.74-3.99s1.68-3.99,3.74-3.99,3.74,1.79,3.74,3.99-1.68,3.99-3.74,3.99ZM1045.19,379.59c-.83,0-1.5.72-1.5,1.6s.68,1.6,1.5,1.6,1.5-.72,1.5-1.6-.68-1.6-1.5-1.6Z"/>
            </g>
            <g>
              <polygon class="cls-20" points="1206.4 421.42 993.07 420.6 993.08 418.21 1205.07 419.03 1218.26 393.29 1284.83 393.29 1284.83 395.68 1219.59 395.68 1206.4 421.42"/>
              <polygon class="cls-20" points="1164.19 408.55 994.39 407.73 994.4 405.34 1164.2 406.16 1164.19 408.55"/>
              <polygon class="cls-20" points="1217.54 449.04 1147.66 449.04 1147.66 446.66 1216.31 446.66 1229.39 424.57 1306.32 424.57 1306.32 426.96 1230.62 426.96 1217.54 449.04"/>
              <polygon class="cls-20" points="1211.62 436.54 1034.95 436.54 1034.95 434.16 1210.36 434.16 1226.36 406.16 1339.63 406.16 1339.63 408.55 1227.62 408.55 1211.62 436.54"/>
              <path class="cls-20" d="M1342.5,412.5c-2.66,0-4.83-2.31-4.83-5.14s2.16-5.14,4.83-5.14,4.82,2.31,4.82,5.14-2.16,5.14-4.82,5.14ZM1342.5,404.6c-1.43,0-2.59,1.24-2.59,2.76s1.16,2.76,2.59,2.76,2.58-1.24,2.58-2.76-1.16-2.76-2.58-2.76Z"/>
              <path class="cls-20" d="M1309.76,430.91c-2.66,0-4.83-2.31-4.83-5.14s2.16-5.14,4.83-5.14,4.82,2.31,4.82,5.14-2.16,5.14-4.82,5.14ZM1309.76,423.01c-1.43,0-2.59,1.24-2.59,2.76s1.16,2.76,2.59,2.76,2.58-1.24,2.58-2.76-1.16-2.76-2.58-2.76Z"/>
              <path class="cls-20" d="M1288.54,399.62c-2.66,0-4.83-2.31-4.83-5.14s2.16-5.14,4.83-5.14,4.83,2.31,4.83,5.14-2.16,5.14-4.83,5.14ZM1288.54,391.73c-1.43,0-2.59,1.24-2.59,2.76s1.16,2.75,2.59,2.75,2.59-1.24,2.59-2.75-1.16-2.76-2.59-2.76Z"/>
              <path class="cls-20" d="M1167.9,411.67c-2.66,0-4.82-2.31-4.82-5.14s2.16-5.14,4.82-5.14,4.83,2.31,4.83,5.14-2.16,5.14-4.83,5.14ZM1167.9,403.78c-1.43,0-2.58,1.24-2.58,2.75s1.16,2.76,2.58,2.76,2.59-1.24,2.59-2.76-1.16-2.75-2.59-2.75Z"/>
            </g>
            <g>
              <path class="cls-16" d="M1161.8,783.59h0c-1.62,0-2.44-2.09-1.29-3.32h0c.71-.76.71-1.99,0-2.75l-3.12-3.33c-.71-.76-1.87-.76-2.58,0h0c-1.15,1.22-3.11.36-3.11-1.37h0c0-1.07-.82-1.94-1.82-1.94h-4.42c-1.01,0-1.82.87-1.82,1.94,0,1.73-1.96,2.6-3.11,1.37h0c-.71-.76-1.87-.76-2.58,0l-3.12,3.33c-.71.76-.71,1.99,0,2.75h0c1.15,1.22.34,3.32-1.29,3.32-1.01,0-1.82.87-1.82,1.94v4.71c0,1.07.82,1.94,1.82,1.94h0c1.62,0,2.44,2.09,1.29,3.32h0c-.71.76-.71,1.99,0,2.75l3.12,3.33c.71.76,1.87.76,2.58,0h0c1.15-1.22,3.11-.36,3.11,1.37h0c0,1.07.82,1.94,1.82,1.94h4.42c1.01,0,1.82-.87,1.82-1.94h0c0-1.73,1.96-2.6,3.11-1.37h0c.71.76,1.87.76,2.58,0l3.12-3.33c.71-.76.71-1.99,0-2.75h0c-1.15-1.22-.34-3.32,1.29-3.32h0c1.01,0,1.82-.87,1.82-1.94v-4.71c0-1.07-.82-1.94-1.82-1.94ZM1147.66,798.73c-5.62,0-10.17-4.85-10.17-10.84s4.56-10.84,10.17-10.84,10.17,4.85,10.17,10.84-4.56,10.84-10.17,10.84Z"/>
              <path class="cls-16" d="M1154.19,787.89c0,3.84-2.93,6.96-6.53,6.96s-6.53-3.12-6.53-6.96,2.93-6.96,6.53-6.96,6.53,3.12,6.53,6.96Z"/>
            </g>
            <g>
              <path class="cls-16" d="M1120.47,326.22h0c-.81,0-1.22-1.05-.64-1.66h0c.36-.38.36-.99,0-1.37l-1.56-1.66c-.36-.38-.93-.38-1.29,0h0c-.57.61-1.56.18-1.56-.69h0c0-.54-.41-.97-.91-.97h-2.21c-.5,0-.91.43-.91.97,0,.87-.98,1.3-1.56.69h0c-.36-.38-.93-.38-1.29,0l-1.56,1.66c-.36.38-.36.99,0,1.37h0c.57.61.17,1.66-.64,1.66-.5,0-.91.43-.91.97v2.35c0,.54.41.97.91.97h0c.81,0,1.22,1.05.64,1.66h0c-.36.38-.36.99,0,1.37l1.56,1.66c.36.38.93.38,1.29,0h0c.57-.61,1.56-.18,1.56.69h0c0,.54.41.97.91.97h2.21c.5,0,.91-.43.91-.97h0c0-.87.98-1.3,1.56-.69h0c.36.38.93.38,1.29,0l1.56-1.66c.36-.38.36-.99,0-1.37h0c-.57-.61-.17-1.66.64-1.66h0c.5,0,.91-.43.91-.97v-2.35c0-.54-.41-.97-.91-.97ZM1113.4,333.79c-2.81,0-5.09-2.43-5.09-5.42s2.28-5.42,5.09-5.42,5.09,2.43,5.09,5.42-2.28,5.42-5.09,5.42Z"/>
              <path class="cls-16" d="M1116.67,328.37c0,1.92-1.46,3.48-3.27,3.48s-3.27-1.56-3.27-3.48,1.46-3.48,3.27-3.48,3.27,1.56,3.27,3.48Z"/>
            </g>
            <g>
              <path class="cls-16" d="M1135.76,478.42h0c-1.02,0-1.53-1.31-.81-2.08h0c.45-.48.45-1.25,0-1.72l-1.96-2.08c-.45-.48-1.17-.48-1.62,0h0c-.72.77-1.95.22-1.95-.86h0c0-.67-.51-1.22-1.14-1.22h-2.77c-.63,0-1.14.54-1.14,1.22,0,1.08-1.23,1.63-1.95.86h0c-.45-.48-1.17-.48-1.62,0l-1.96,2.08c-.45.48-.45,1.25,0,1.72h0c.72.77.21,2.08-.81,2.08-.63,0-1.14.54-1.14,1.22v2.95c0,.67.51,1.22,1.14,1.22h0c1.02,0,1.53,1.31.81,2.08h0c-.45.48-.45,1.25,0,1.72l1.96,2.08c.45.48,1.17.48,1.62,0h0c.72-.77,1.95-.22,1.95.86h0c0,.67.51,1.22,1.14,1.22h2.77c.63,0,1.14-.54,1.14-1.22h0c0-1.08,1.23-1.63,1.95-.86h0c.45.48,1.17.48,1.62,0l1.96-2.08c.45-.48.45-1.25,0-1.72h0c-.72-.77-.21-2.08.81-2.08h0c.63,0,1.14-.54,1.14-1.22v-2.95c0-.67-.51-1.22-1.14-1.22ZM1126.9,487.9c-3.52,0-6.37-3.04-6.37-6.79s2.85-6.79,6.37-6.79,6.37,3.04,6.37,6.79-2.85,6.79-6.37,6.79Z"/>
              <path class="cls-16" d="M1130.99,481.11c0,2.41-1.83,4.36-4.09,4.36s-4.09-1.95-4.09-4.36,1.83-4.36,4.09-4.36,4.09,1.95,4.09,4.36Z"/>
            </g>
            <ellipse class="cls-23" cx="1205.73" cy="420.23" rx="22" ry="23.44"/>
            <ellipse class="cls-41" cx="766.37" cy="463.17" rx="24.43" ry="26.03"/>
            <ellipse class="cls-37" cx="1244.5" cy="304.9" rx="18.49" ry="19.7"/>
            <ellipse class="cls-43" cx="1270.66" cy="705.39" rx="33.87" ry="36.09"/>
            <ellipse class="cls-27" cx="790.81" cy="713.36" rx="18.49" ry="19.7"/>
            <ellipse class="cls-26" cx="820.63" cy="532.16" rx="32.53" ry="34.66"/>
            <ellipse class="cls-35" cx="1212.59" cy="554.02" rx="32.53" ry="34.66"/>
            <ellipse class="cls-39" cx="1319.91" cy="407.35" rx="16.86" ry="17.97"/>
            <ellipse class="cls-13" cx="711.31" cy="546.34" rx="16.86" ry="17.97"/>
            <ellipse class="cls-16" cx="839.38" cy="253.84" rx="4.99" ry="5.32"/>
            <path class="cls-16" d="M721.87,304.9c0,2.01-1.53,3.64-3.42,3.64s-3.42-1.63-3.42-3.64,1.53-3.64,3.42-3.64,3.42,1.63,3.42,3.64Z"/>
            <path class="cls-16" d="M794.87,645.73c0,2.01-1.53,3.64-3.42,3.64s-3.42-1.63-3.42-3.64,1.53-3.64,3.42-3.64,3.42,1.63,3.42,3.64Z"/>
            <path class="cls-16" d="M1274.08,339.29c0,2.01-1.53,3.64-3.42,3.64s-3.42-1.63-3.42-3.64,1.53-3.64,3.42-3.64,3.42,1.63,3.42,3.64Z"/>
            <ellipse class="cls-16" cx="861.41" cy="809.93" rx="3.42" ry="3.64"/>
            <ellipse class="cls-16" cx="1323.33" cy="685.78" rx="3.42" ry="3.64"/>
            <path class="cls-16" d="M1226.16,802.89c0,2.01-1.53,3.64-3.42,3.64s-3.42-1.63-3.42-3.64,1.53-3.64,3.42-3.64,3.42,1.63,3.42,3.64Z"/>
            <path class="cls-16" d="M1323.33,277.31c0,2.01-1.53,3.64-3.42,3.64s-3.42-1.63-3.42-3.64,1.53-3.64,3.42-3.64,3.42,1.63,3.42,3.64Z"/>
            <ellipse class="cls-16" cx="813.84" cy="165.86" rx="3.56" ry="3.79"/>
          </g>
          <rect class="cls-7" width="1440" height="1024"/>
          <g class="cls-47">
            <g>
              <g class="cls-44">
                <g>
                  <line class="cls-4" x1="17.22" y1="-447.55" x2="17.22" y2="285.63"/>
                  <line class="cls-4" x1="68.75" y1="-447.55" x2="68.75" y2="206.11"/>
                  <line class="cls-4" x1="45.06" y1="206.11" x2="45.06" y2="-447.55"/>
                  <line class="cls-4" x1="120.29" y1="-447.55" x2="120.29" y2="206.11"/>
                  <line class="cls-4" x1="96.59" y1="206.11" x2="96.59" y2="-447.55"/>
                  <line class="cls-4" x1="171.82" y1="-447.55" x2="171.82" y2="206.11"/>
                  <line class="cls-4" x1="148.13" y1="206.11" x2="148.13" y2="-447.55"/>
                  <line class="cls-4" x1="223.35" y1="-447.55" x2="223.35" y2="206.11"/>
                  <line class="cls-4" x1="199.66" y1="206.11" x2="199.66" y2="-447.55"/>
                  <line class="cls-4" x1="274.89" y1="-447.55" x2="274.89" y2="206.11"/>
                  <line class="cls-4" x1="251.19" y1="206.11" x2="251.19" y2="-447.55"/>
                  <line class="cls-4" x1="326.42" y1="-447.55" x2="326.42" y2="206.11"/>
                  <line class="cls-4" x1="302.73" y1="206.11" x2="302.73" y2="-447.55"/>
                  <line class="cls-4" x1="377.96" y1="-447.55" x2="377.96" y2="323.02"/>
                  <line class="cls-4" x1="354.26" y1="206.11" x2="354.26" y2="-447.55"/>
                  <line class="cls-4" x1="429.49" y1="-467.83" x2="429.49" y2="276.17"/>
                  <line class="cls-4" x1="405.8" y1="237.35" x2="405.8" y2="-447.55"/>
                  <line class="cls-4" x1="481.02" y1="-447.55" x2="481.02" y2="206.11"/>
                  <line class="cls-4" x1="457.33" y1="206.11" x2="457.33" y2="-496.64"/>
                </g>
                <g>
                  <line class="cls-4" x1="-121.01" y1="168.65" x2="561.58" y2="168.65"/>
                  <line class="cls-4" x1="492.49" y1="193.89" x2="-121.01" y2="193.89"/>
                  <line class="cls-4" x1="-264.37" y1="113.74" x2="492.49" y2="113.74"/>
                  <line class="cls-4" x1="492.49" y1="138.98" x2="-150.33" y2="138.98"/>
                  <line class="cls-4" x1="-121.01" y1="58.83" x2="538.56" y2="58.83"/>
                  <line class="cls-4" x1="558.25" y1="84.08" x2="-121.01" y2="84.08"/>
                  <line class="cls-4" x1="-121.01" y1="3.93" x2="492.49" y2="3.93"/>
                  <line class="cls-4" x1="492.49" y1="29.17" x2="-121.01" y2="29.17"/>
                </g>
              </g>
              <g class="cls-44">
                <g>
                  <line class="cls-4" x1="1307.26" y1="-547.94" x2="1307.26" y2="105.73"/>
                  <line class="cls-4" x1="1283.56" y1="105.73" x2="1283.56" y2="-547.94"/>
                  <line class="cls-4" x1="1358.79" y1="-642.5" x2="1358.79" y2="105.73"/>
                  <line class="cls-4" x1="1335.1" y1="105.73" x2="1335.1" y2="-547.94"/>
                  <line class="cls-4" x1="1410.32" y1="-547.94" x2="1410.32" y2="185.24"/>
                  <line class="cls-4" x1="1386.63" y1="136.96" x2="1386.63" y2="-547.94"/>
                  <line class="cls-4" x1="1438.17" y1="105.73" x2="1438.17" y2="-547.94"/>
                </g>
                <g>
                  <line class="cls-4" x1="1272.1" y1="68.26" x2="1954.69" y2="68.26"/>
                  <line class="cls-4" x1="1885.6" y1="93.51" x2="1272.1" y2="93.51"/>
                  <line class="cls-4" x1="1128.74" y1="13.35" x2="1885.6" y2="13.35"/>
                  <line class="cls-4" x1="1885.6" y1="38.6" x2="1242.78" y2="38.6"/>
                </g>
              </g>
              <g class="cls-44">
                <g>
                  <line class="cls-4" x1="394.13" y1="1014.78" x2="1092.43" y2="1014.78"/>
                  <line class="cls-4" x1="413.17" y1="959.88" x2="1026.67" y2="959.88"/>
                  <line class="cls-4" x1="1026.67" y1="985.12" x2="367.1" y2="985.12"/>
                </g>
                <g>
                  <line class="cls-4" x1="991.51" y1="1601.32" x2="991.51" y2="874.05"/>
                  <line class="cls-4" x1="1015.2" y1="947.66" x2="1015.2" y2="1601.32"/>
                  <line class="cls-4" x1="939.97" y1="1754.06" x2="939.97" y2="947.66"/>
                  <line class="cls-4" x1="963.67" y1="947.66" x2="963.67" y2="1632.56"/>
                  <line class="cls-4" x1="888.44" y1="1601.32" x2="888.44" y2="898.57"/>
                  <line class="cls-4" x1="912.13" y1="877.6" x2="912.13" y2="1601.32"/>
                  <line class="cls-4" x1="836.91" y1="1601.32" x2="836.91" y2="947.66"/>
                  <line class="cls-4" x1="860.6" y1="947.66" x2="860.6" y2="1601.32"/>
                  <line class="cls-4" x1="785.37" y1="1601.32" x2="785.37" y2="947.66"/>
                  <line class="cls-4" x1="809.07" y1="947.66" x2="809.07" y2="1601.32"/>
                  <line class="cls-4" x1="733.84" y1="1601.32" x2="733.84" y2="947.66"/>
                  <line class="cls-4" x1="757.53" y1="947.66" x2="757.53" y2="1601.32"/>
                  <line class="cls-4" x1="682.31" y1="1601.32" x2="682.31" y2="947.66"/>
                  <line class="cls-4" x1="706" y1="947.66" x2="706" y2="1601.32"/>
                  <line class="cls-4" x1="630.77" y1="1601.32" x2="630.77" y2="947.66"/>
                  <line class="cls-4" x1="654.46" y1="947.66" x2="654.46" y2="1601.32"/>
                  <line class="cls-4" x1="579.24" y1="1601.32" x2="579.24" y2="947.66"/>
                  <line class="cls-4" x1="602.93" y1="947.66" x2="602.93" y2="1601.32"/>
                  <line class="cls-4" x1="527.7" y1="1710.21" x2="527.7" y2="932.98"/>
                  <line class="cls-4" x1="551.4" y1="947.66" x2="551.4" y2="1601.32"/>
                  <line class="cls-4" x1="476.17" y1="1771.75" x2="476.17" y2="947.66"/>
                  <line class="cls-4" x1="499.86" y1="898.57" x2="499.86" y2="1629.13"/>
                  <line class="cls-4" x1="424.64" y1="1601.32" x2="424.64" y2="947.66"/>
                  <line class="cls-4" x1="448.33" y1="947.66" x2="448.33" y2="1601.32"/>
                </g>
              </g>
            </g>
          </g>
          <g>
            <g>
              <g>
                <polygon class="cls-19" points="1271.83 897.2 1271.83 903.68 1258.9 889.9 1245.97 903.68 1245.97 897.2 1255.85 886.66 1255.84 886.64 1258.9 883.4 1261.96 886.64 1261.94 886.66 1271.83 897.2"/>
                <g>
                  <polygon class="cls-19" points="1271.83 862.03 1271.83 868.52 1258.9 854.74 1245.97 868.52 1245.97 862.03 1255.85 851.5 1255.84 851.48 1258.9 848.24 1261.96 851.48 1261.94 851.5 1271.83 862.03"/>
                  <polygon class="cls-19" points="1271.83 885.24 1271.83 891.74 1258.9 877.97 1245.97 891.74 1245.97 885.24 1258.9 871.46 1271.83 885.24"/>
                </g>
              </g>
              <g>
                <g>
                  <rect class="cls-17" x="1308.06" y="876.71" width="15.65" height="23.39" transform="translate(2631.77 1776.8) rotate(180)"/>
                  <rect class="cls-25" x="1308.06" y="840.48" width="15.65" height="23.39" transform="translate(2631.77 1704.34) rotate(180)"/>
                  <rect class="cls-12" x="1308.06" y="804.24" width="15.65" height="23.39" transform="translate(2631.77 1631.88) rotate(180)"/>
                  <rect class="cls-21" x="1308.06" y="768.01" width="15.65" height="23.39" transform="translate(2631.77 1559.42) rotate(180)"/>
                  <rect class="cls-11" x="1308.06" y="731.78" width="15.65" height="23.39" transform="translate(2631.77 1486.96) rotate(180)"/>
                  <rect class="cls-29" x="1308.06" y="695.55" width="15.65" height="23.39" transform="translate(2631.77 1414.5) rotate(180)"/>
                </g>
                <g>
                  <polyline class="cls-5" points="1387.73 671.61 1387.73 927.08 1130.07 927.08 1130.07 955.94 1361.24 955.94 1361.24 640.19"/>
                  <ellipse class="cls-17" cx="1361.12" cy="640.19" rx="6.8" ry="7.25"/>
                  <ellipse class="cls-17" cx="1387.73" cy="671.51" rx="6.8" ry="7.25"/>
                </g>
              </g>
              <polygon class="cls-19" points="1260.34 955.94 1249.95 944.86 1131.79 944.86 1131.79 955.94 1260.34 955.94"/>
              <polygon class="cls-19" points="1387.73 908.96 1398.12 897.88 1398.12 771.99 1387.73 771.99 1387.73 908.96"/>
            </g>
            <g>
              <rect class="cls-17" x="1145.22" y="774.84" width="97.38" height="6.55"/>
              <rect class="cls-12" x="1182.5" y="755.55" width="60.09" height="6.55"/>
              <rect class="cls-21" x="1165.47" y="736.26" width="77.12" height="6.55"/>
              <rect class="cls-11" x="1175.13" y="716.96" width="67.46" height="6.55"/>
              <rect class="cls-29" x="1200.3" y="697.67" width="42.3" height="6.55"/>
            </g>
          </g>
          <g>
            <g>
              <g>
                <rect class="cls-19" x="218.37" y="887.05" width="14.04" height="7.41" transform="translate(-665.36 1116.14) rotate(-90)"/>
                <rect class="cls-22" x="229.27" y="887.05" width="14.04" height="7.41" transform="translate(-654.46 1127.04) rotate(-90)"/>
                <rect class="cls-40" x="240.17" y="887.05" width="14.04" height="7.41" transform="translate(-643.56 1137.95) rotate(-90)"/>
                <rect class="cls-38" x="251.08" y="887.05" width="14.04" height="7.41" transform="translate(-632.65 1148.85) rotate(-90)"/>
                <rect class="cls-14" x="261.98" y="887.05" width="14.04" height="7.41" transform="translate(-621.75 1159.75) rotate(-90)"/>
              </g>
              <g>
                <rect class="cls-19" x="218.37" y="858.62" width="14.04" height="7.41" transform="translate(-636.93 1087.71) rotate(-90)"/>
                <rect class="cls-22" x="229.27" y="858.62" width="14.04" height="7.41" transform="translate(-626.03 1098.61) rotate(-90)"/>
                <rect class="cls-40" x="240.17" y="858.62" width="14.04" height="7.41" transform="translate(-615.13 1109.52) rotate(-90)"/>
                <rect class="cls-38" x="251.08" y="858.62" width="14.04" height="7.41" transform="translate(-604.22 1120.42) rotate(-90)"/>
                <rect class="cls-14" x="261.98" y="858.62" width="14.04" height="7.41" transform="translate(-593.32 1131.32) rotate(-90)"/>
                <rect class="cls-42" x="272.88" y="858.62" width="14.04" height="7.41" transform="translate(-582.42 1142.23) rotate(-90)"/>
                <rect class="cls-24" x="283.79" y="858.62" width="14.04" height="7.41" transform="translate(-571.51 1153.13) rotate(-90)"/>
              </g>
              <g>
                <rect class="cls-19" x="218.37" y="830.19" width="14.04" height="7.41" transform="translate(-608.51 1059.28) rotate(-90)"/>
                <rect class="cls-22" x="229.27" y="830.19" width="14.04" height="7.41" transform="translate(-597.6 1070.19) rotate(-90)"/>
                <rect class="cls-40" x="240.17" y="830.19" width="14.04" height="7.41" transform="translate(-586.7 1081.09) rotate(-90)"/>
                <rect class="cls-38" x="251.08" y="830.19" width="14.04" height="7.41" transform="translate(-575.8 1091.99) rotate(-90)"/>
                <rect class="cls-14" x="261.98" y="830.19" width="14.04" height="7.41" transform="translate(-564.89 1102.9) rotate(-90)"/>
                <rect class="cls-42" x="272.88" y="830.19" width="14.04" height="7.41" transform="translate(-553.99 1113.8) rotate(-90)"/>
                <rect class="cls-24" x="283.79" y="830.19" width="14.04" height="7.41" transform="translate(-543.09 1124.7) rotate(-90)"/>
                <rect class="cls-28" x="294.69" y="830.19" width="14.04" height="7.41" transform="translate(-532.18 1135.61) rotate(-90)"/>
              </g>
              <g>
                <rect class="cls-19" x="218.37" y="801.76" width="14.04" height="7.41" transform="translate(-580.08 1030.86) rotate(-90)"/>
                <rect class="cls-22" x="229.27" y="801.76" width="14.04" height="7.41" transform="translate(-569.18 1041.76) rotate(-90)"/>
                <rect class="cls-40" x="240.17" y="801.76" width="14.04" height="7.41" transform="translate(-558.27 1052.66) rotate(-90)"/>
                <rect class="cls-38" x="251.08" y="801.76" width="14.04" height="7.41" transform="translate(-547.37 1063.57) rotate(-90)"/>
                <rect class="cls-14" x="261.98" y="801.76" width="14.04" height="7.41" transform="translate(-536.46 1074.47) rotate(-90)"/>
              </g>
              <g>
                <rect class="cls-19" x="218.37" y="773.34" width="14.04" height="7.41" transform="translate(-551.65 1002.43) rotate(-90)"/>
                <rect class="cls-22" x="229.27" y="773.34" width="14.04" height="7.41" transform="translate(-540.75 1013.33) rotate(-90)"/>
                <rect class="cls-40" x="240.17" y="773.34" width="14.04" height="7.41" transform="translate(-529.84 1024.23) rotate(-90)"/>
                <rect class="cls-38" x="251.08" y="773.34" width="14.04" height="7.41" transform="translate(-518.94 1035.14) rotate(-90)"/>
                <rect class="cls-14" x="261.98" y="773.34" width="14.04" height="7.41" transform="translate(-508.04 1046.04) rotate(-90)"/>
                <rect class="cls-42" x="272.88" y="773.34" width="14.04" height="7.41" transform="translate(-497.13 1056.94) rotate(-90)"/>
                <rect class="cls-24" x="283.79" y="773.34" width="14.04" height="7.41" transform="translate(-486.23 1067.85) rotate(-90)"/>
                <rect class="cls-28" x="294.69" y="773.34" width="14.04" height="7.41" transform="translate(-475.33 1078.75) rotate(-90)"/>
              </g>
            </g>
            <g>
              <g>
                <polygon class="cls-19" points="172.46 888.05 172.46 894.54 185.39 880.76 198.32 894.54 198.32 888.05 188.43 877.52 188.45 877.5 185.39 874.26 182.33 877.5 182.34 877.52 172.46 888.05"/>
                <polygon class="cls-19" points="172.46 876.1 172.46 882.6 185.39 868.82 198.32 882.6 198.32 876.1 185.39 862.32 172.46 876.1"/>
              </g>
              <g>
                <g>
                  <rect class="cls-17" x="120.57" y="867.56" width="15.65" height="23.39"/>
                  <rect class="cls-25" x="120.57" y="831.33" width="15.65" height="23.39"/>
                  <rect class="cls-12" x="120.57" y="795.1" width="15.65" height="23.39"/>
                  <rect class="cls-21" x="120.57" y="758.87" width="15.65" height="23.39"/>
                  <rect class="cls-11" x="120.57" y="722.64" width="15.65" height="23.39"/>
                  <rect class="cls-29" x="120.57" y="686.41" width="15.65" height="23.39"/>
                </g>
                <g>
                  <polyline class="cls-5" points="56.56 662.47 56.56 917.94 314.22 917.94 314.22 946.8 83.05 946.8 83.05 631.04"/>
                  <ellipse class="cls-17" cx="83.17" cy="631.04" rx="6.8" ry="7.25"/>
                  <ellipse class="cls-17" cx="56.56" cy="662.37" rx="6.8" ry="7.25"/>
                </g>
              </g>
              <polygon class="cls-19" points="183.94 946.8 194.34 935.72 312.5 935.72 312.5 946.8 183.94 946.8"/>
              <polygon class="cls-19" points="56.56 899.82 46.16 888.74 46.16 762.85 56.56 762.85 56.56 899.82"/>
            </g>
          </g>
        </g>
      </g>
    </g>
  </g>
</svg>