<?xml version="1.0" encoding="UTF-8"?>
<svg xmlns="http://www.w3.org/2000/svg" xmlns:xlink="http://www.w3.org/1999/xlink" viewBox="0 0 598 399.12">
  <defs>
    <style>
      .cls-1, .cls-2, .cls-3, .cls-4, .cls-5, .cls-6, .cls-7, .cls-8, .cls-9 {
        fill: none;
      }

      .cls-1, .cls-2, .cls-3, .cls-4, .cls-6, .cls-7, .cls-8, .cls-9 {
        stroke-miterlimit: 10;
      }

      .cls-1, .cls-2, .cls-3, .cls-6, .cls-9 {
        stroke: #d0e9f2;
      }

      .cls-1, .cls-3, .cls-6, .cls-9 {
        stroke-width: .5px;
      }

      .cls-10 {
        fill: url(#radial-gradient-16);
      }

      .cls-10, .cls-11, .cls-12, .cls-13, .cls-14, .cls-15, .cls-16, .cls-17, .cls-5, .cls-18, .cls-19, .cls-20, .cls-21, .cls-22, .cls-23, .cls-24, .cls-25, .cls-26, .cls-27, .cls-28 {
        stroke-width: 0px;
      }

      .cls-11 {
        fill: url(#linear-gradient);
      }

      .cls-12 {
        fill: #2d83a6;
      }

      .cls-13 {
        fill: url(#radial-gradient-7);
      }

      .cls-13, .cls-18, .cls-19, .cls-20, .cls-21, .cls-22, .cls-24 {
        mix-blend-mode: color-dodge;
      }

      .cls-29 {
        opacity: .5;
      }

      .cls-2, .cls-8 {
        stroke-width: .75px;
      }

      .cls-14 {
        fill: #d0e9f2;
      }

      .cls-15 {
        fill: url(#radial-gradient-8);
      }

      .cls-30 {
        isolation: isolate;
      }

      .cls-3 {
        stroke-dasharray: 0 0 3.94 3.94;
      }

      .cls-4 {
        stroke: #023e73;
      }

      .cls-16 {
        fill: url(#radial-gradient-13);
      }

      .cls-17 {
        fill: url(#radial-gradient-12);
      }

      .cls-31 {
        opacity: .4;
      }

      .cls-18 {
        fill: url(#radial-gradient);
      }

      .cls-19 {
        fill: url(#radial-gradient-3);
      }

      .cls-20 {
        fill: url(#radial-gradient-5);
      }

      .cls-6 {
        stroke-dasharray: 0 0 4.05 4.05;
      }

      .cls-32 {
        clip-path: url(#clippath);
      }

      .cls-7, .cls-8 {
        stroke: #2d83a6;
      }

      .cls-21 {
        fill: url(#radial-gradient-4);
      }

      .cls-22 {
        fill: url(#radial-gradient-2);
      }

      .cls-23 {
        fill: url(#radial-gradient-14);
      }

      .cls-24 {
        fill: url(#radial-gradient-6);
      }

      .cls-25 {
        fill: url(#radial-gradient-10);
      }

      .cls-9 {
        stroke-dasharray: 0 0 3.93 3.93;
      }

      .cls-26 {
        fill: url(#radial-gradient-15);
      }

      .cls-27 {
        fill: url(#radial-gradient-9);
      }

      .cls-28 {
        fill: url(#radial-gradient-11);
      }
    </style>
    <linearGradient id="linear-gradient" x1="28.14" y1="-78.62" x2="455.83" y2="360.62" gradientUnits="userSpaceOnUse">
      <stop offset=".04" stop-color="#023859"/>
      <stop offset="1" stop-color="#011826"/>
    </linearGradient>
    <radialGradient id="radial-gradient" cx="-147.3" cy="355.11" fx="-147.3" fy="355.11" r="28.9" gradientTransform="translate(1104.42 255.11) scale(4.66 .1)" gradientUnits="userSpaceOnUse">
      <stop offset=".07" stop-color="#d0e9f2"/>
      <stop offset=".92" stop-color="#000"/>
    </radialGradient>
    <radialGradient id="radial-gradient-2" cx="-141.15" cy="-1342.97" fx="-141.15" fy="-1342.97" r="28.9" xlink:href="#radial-gradient"/>
    <radialGradient id="radial-gradient-3" cx="-165.8" cy="-927.43" fx="-165.8" fy="-927.43" r="28.9" xlink:href="#radial-gradient"/>
    <radialGradient id="radial-gradient-4" cx="-205.38" cy="-1992.73" fx="-205.38" fy="-1992.73" r="18.12" xlink:href="#radial-gradient"/>
    <radialGradient id="radial-gradient-5" cx="-187.26" cy="1164.73" fx="-187.26" fy="1164.73" r="18.12" xlink:href="#radial-gradient"/>
    <radialGradient id="radial-gradient-6" cx="-926.42" cy="-1350.44" fx="-926.42" fy="-1350.44" r="28.9" gradientTransform="translate(-734.9 167.56) rotate(-180) scale(1.31 .03)" xlink:href="#radial-gradient"/>
    <radialGradient id="radial-gradient-7" cx="-139.52" cy="-615.71" fx="-139.52" fy="-615.71" r="28.9" xlink:href="#radial-gradient"/>
    <radialGradient id="radial-gradient-8" cx="506.64" cy="168.08" fx="506.64" fy="168.08" r="18.95" gradientTransform="translate(591.13 -358.99) rotate(80.75)" gradientUnits="userSpaceOnUse">
      <stop offset="0" stop-color="#d0e9f2"/>
      <stop offset=".01" stop-color="rgba(200, 225, 234, .96)" stop-opacity=".96"/>
      <stop offset=".1" stop-color="rgba(154, 178, 189, .74)" stop-opacity=".74"/>
      <stop offset=".19" stop-color="rgba(113, 137, 148, .54)" stop-opacity=".54"/>
      <stop offset=".28" stop-color="rgba(78, 102, 114, .38)" stop-opacity=".38"/>
      <stop offset=".37" stop-color="rgba(50, 74, 86, .24)" stop-opacity=".24"/>
      <stop offset=".47" stop-color="rgba(28, 52, 65, .13)" stop-opacity=".13"/>
      <stop offset=".56" stop-color="rgba(13, 36, 50, .06)" stop-opacity=".06"/>
      <stop offset=".67" stop-color="rgba(3, 27, 40, .01)" stop-opacity=".01"/>
      <stop offset=".78" stop-color="#011826" stop-opacity="0"/>
    </radialGradient>
    <radialGradient id="radial-gradient-9" cx="310.43" cy="186.08" fx="310.43" fy="186.08" r="21.04" gradientTransform="matrix(1,0,0,1,0,0)" xlink:href="#radial-gradient-8"/>
    <radialGradient id="radial-gradient-10" cx="523.95" cy="119.74" fx="523.95" fy="119.74" r="15.92" gradientTransform="matrix(1,0,0,1,0,0)" xlink:href="#radial-gradient-8"/>
    <radialGradient id="radial-gradient-11" cx="535.64" cy="287.61" fx="535.64" fy="287.61" r="29.17" gradientTransform="translate(691.58 -300.03) rotate(76.63)" xlink:href="#radial-gradient-8"/>
    <radialGradient id="radial-gradient-12" cx="321.34" cy="290.94" fx="321.34" fy="290.94" r="15.92" gradientTransform="translate(555.67 -73.75) rotate(80.56)" xlink:href="#radial-gradient-8"/>
    <radialGradient id="radial-gradient-13" cx="334.66" cy="214.99" fx="334.66" fy="214.99" r="28.02" gradientTransform="translate(467.56 -159.92) rotate(76.8)" xlink:href="#radial-gradient-8"/>
    <radialGradient id="radial-gradient-14" cx="509.7" cy="224.16" fx="509.7" fy="224.16" r="28.02" gradientTransform="translate(596.06 -325.92) rotate(75.18)" xlink:href="#radial-gradient-8"/>
    <radialGradient id="radial-gradient-15" cx="557.63" cy="162.68" fx="557.63" fy="162.68" r="14.52" gradientTransform="translate(629.11 -413.78) rotate(80.8)" xlink:href="#radial-gradient-8"/>
    <radialGradient id="radial-gradient-16" cx="285.84" cy="220.94" fx="285.84" fy="220.94" r="14.52" gradientTransform="translate(264.28 -139.69) rotate(48.88)" xlink:href="#radial-gradient-8"/>
    <clipPath id="clippath">
      <rect class="cls-5" width="598" height="399.12"/>
    </clipPath>
  </defs>
  <g class="cls-30">
    <g id="Layer_2" data-name="Layer 2">
      <g id="OBJECTS">
        <g>
          <rect class="cls-11" width="598" height="399.12"/>
          <g>
            <path class="cls-18" d="M552.11,290.9c0,1.61-60.35,2.91-134.79,2.91s-134.79-1.3-134.79-2.91,60.35-2.91,134.79-2.91,134.79,1.3,134.79,2.91Z"/>
            <ellipse class="cls-22" cx="446.02" cy="119.74" rx="134.79" ry="2.91"/>
            <path class="cls-19" d="M465.84,161.62c0,1.61-60.35,2.91-134.79,2.91s-134.79-1.3-134.79-2.91,60.35-2.91,134.79-2.91,134.79,1.3,134.79,2.91Z"/>
            <ellipse class="cls-21" cx="146.43" cy="54.24" rx="84.5" ry="1.83"/>
            <path class="cls-20" d="M315.44,372.51c0,1.01-37.83,1.83-84.5,1.83s-84.5-.82-84.5-1.83,37.83-1.83,84.5-1.83,84.5.82,84.5,1.83Z"/>
            <ellipse class="cls-24" cx="474.26" cy="205.65" rx="37.72" ry=".82"/>
            <path class="cls-13" d="M588.44,193.05c0,1.61-60.35,2.91-134.79,2.91s-134.79-1.3-134.79-2.91,60.35-2.91,134.79-2.91,134.79,1.3,134.79,2.91Z"/>
            <g class="cls-31">
              <g>
                <line class="cls-4" x1="310.07" y1="72.17" x2="310.07" y2="326.95"/>
                <line class="cls-4" x1="300.23" y1="326.95" x2="300.23" y2="72.17"/>
                <line class="cls-4" x1="331.47" y1="35.31" x2="331.47" y2="326.95"/>
                <line class="cls-4" x1="321.63" y1="326.95" x2="321.63" y2="72.17"/>
                <line class="cls-4" x1="352.87" y1="72.17" x2="352.87" y2="357.94"/>
                <line class="cls-4" x1="343.03" y1="339.12" x2="343.03" y2="72.17"/>
                <line class="cls-4" x1="374.27" y1="72.17" x2="374.27" y2="326.95"/>
                <line class="cls-4" x1="364.43" y1="326.95" x2="364.43" y2="72.17"/>
                <line class="cls-4" x1="395.67" y1="72.17" x2="395.67" y2="326.95"/>
                <line class="cls-4" x1="385.84" y1="326.95" x2="385.84" y2="72.17"/>
                <line class="cls-4" x1="417.07" y1="72.17" x2="417.07" y2="326.95"/>
                <line class="cls-4" x1="407.24" y1="326.95" x2="407.24" y2="72.17"/>
                <line class="cls-4" x1="438.48" y1="72.17" x2="438.48" y2="326.95"/>
                <line class="cls-4" x1="428.64" y1="326.95" x2="428.64" y2="72.17"/>
                <line class="cls-4" x1="459.88" y1="72.17" x2="459.88" y2="326.95"/>
                <line class="cls-4" x1="450.04" y1="326.95" x2="450.04" y2="72.17"/>
                <line class="cls-4" x1="481.28" y1="72.17" x2="481.28" y2="326.95"/>
                <line class="cls-4" x1="471.44" y1="326.95" x2="471.44" y2="72.17"/>
                <line class="cls-4" x1="502.68" y1="72.17" x2="502.68" y2="372.51"/>
                <line class="cls-4" x1="492.84" y1="326.95" x2="492.84" y2="72.17"/>
                <line class="cls-4" x1="524.08" y1="64.27" x2="524.08" y2="354.25"/>
                <line class="cls-4" x1="514.24" y1="339.12" x2="514.24" y2="72.17"/>
                <line class="cls-4" x1="545.48" y1="72.17" x2="545.48" y2="326.95"/>
                <line class="cls-4" x1="535.64" y1="326.95" x2="535.64" y2="53.04"/>
              </g>
              <g>
                <line class="cls-4" x1="295.47" y1="312.34" x2="578.93" y2="312.34"/>
                <line class="cls-4" x1="550.24" y1="322.18" x2="295.47" y2="322.18"/>
                <line class="cls-4" x1="235.94" y1="290.94" x2="550.24" y2="290.94"/>
                <line class="cls-4" x1="550.24" y1="300.78" x2="283.29" y2="300.78"/>
                <line class="cls-4" x1="295.47" y1="269.54" x2="569.37" y2="269.54"/>
                <line class="cls-4" x1="577.55" y1="279.38" x2="295.47" y2="279.38"/>
                <line class="cls-4" x1="295.47" y1="248.14" x2="550.24" y2="248.14"/>
                <line class="cls-4" x1="550.24" y1="257.98" x2="295.47" y2="257.98"/>
                <line class="cls-4" x1="295.47" y1="226.74" x2="550.24" y2="226.74"/>
                <line class="cls-4" x1="550.24" y1="236.58" x2="295.47" y2="236.58"/>
                <line class="cls-4" x1="295.47" y1="205.34" x2="550.24" y2="205.34"/>
                <line class="cls-4" x1="550.24" y1="215.18" x2="295.47" y2="215.18"/>
                <line class="cls-4" x1="295.47" y1="183.94" x2="550.24" y2="183.94"/>
                <line class="cls-4" x1="550.24" y1="193.78" x2="295.47" y2="193.78"/>
                <line class="cls-4" x1="295.47" y1="162.54" x2="550.24" y2="162.54"/>
                <line class="cls-4" x1="550.24" y1="172.38" x2="295.47" y2="172.38"/>
                <line class="cls-4" x1="295.47" y1="141.14" x2="550.24" y2="141.14"/>
                <line class="cls-4" x1="550.24" y1="150.98" x2="295.47" y2="150.98"/>
                <line class="cls-4" x1="253.03" y1="119.74" x2="555.96" y2="119.74"/>
                <line class="cls-4" x1="550.24" y1="129.58" x2="295.47" y2="129.58"/>
                <line class="cls-4" x1="229.04" y1="98.34" x2="550.24" y2="98.34"/>
                <line class="cls-4" x1="569.37" y1="108.18" x2="284.63" y2="108.18"/>
                <line class="cls-4" x1="295.47" y1="76.94" x2="550.24" y2="76.94"/>
                <line class="cls-4" x1="550.24" y1="86.77" x2="295.47" y2="86.77"/>
              </g>
            </g>
            <g class="cls-29">
              <polyline class="cls-7" points="402.82 183.41 333.95 183.75 328.06 172.96 298.62 172.96"/>
              <line class="cls-7" x1="402.23" y1="178.02" x2="352.5" y2="178.36"/>
              <polyline class="cls-7" points="371.39 195.33 328.95 195.33 323.11 186.08 289.03 186.08"/>
              <polyline class="cls-7" points="402.23 190.09 331.6 190.09 324.46 178.36 274.15 178.36"/>
              <path class="cls-7" d="M271.22,178.36c0-.91.74-1.65,1.65-1.65s1.65.74,1.65,1.65-.74,1.65-1.65,1.65-1.65-.74-1.65-1.65Z"/>
              <path class="cls-7" d="M285.84,186.08c0-.91.74-1.65,1.65-1.65s1.65.74,1.65,1.65-.74,1.65-1.65,1.65-1.65-.74-1.65-1.65Z"/>
              <path class="cls-7" d="M295.31,172.96c0-.91.74-1.65,1.65-1.65s1.65.74,1.65,1.65-.74,1.66-1.65,1.66-1.65-.74-1.65-1.66Z"/>
              <path class="cls-7" d="M349.19,178.02c0-.91.74-1.65,1.65-1.65s1.65.74,1.65,1.65-.74,1.65-1.65,1.65-1.65-.74-1.65-1.65Z"/>
            </g>
            <g class="cls-29">
              <polyline class="cls-7" points="402.82 215.34 333.95 214.99 328.06 225.78 298.62 225.78"/>
              <line class="cls-7" x1="402.23" y1="220.73" x2="352.5" y2="220.39"/>
              <polyline class="cls-7" points="371.39 203.42 328.95 203.42 323.11 212.67 289.03 212.67"/>
              <polyline class="cls-7" points="402.23 208.66 331.6 208.66 324.46 220.39 274.15 220.39"/>
              <path class="cls-7" d="M271.22,220.39c0,.91.74,1.66,1.65,1.66s1.65-.74,1.65-1.66-.74-1.65-1.65-1.65-1.65.74-1.65,1.65Z"/>
              <path class="cls-7" d="M285.84,212.67c0,.91.74,1.65,1.65,1.65s1.65-.74,1.65-1.65-.74-1.66-1.65-1.66-1.65.74-1.65,1.66Z"/>
              <path class="cls-7" d="M295.31,225.78c0,.91.74,1.65,1.65,1.65s1.65-.74,1.65-1.65-.74-1.65-1.65-1.65-1.65.74-1.65,1.65Z"/>
              <path class="cls-7" d="M349.19,220.73c0,.91.74,1.65,1.65,1.65s1.65-.74,1.65-1.65-.74-1.65-1.65-1.65-1.65.74-1.65,1.65Z"/>
            </g>
            <g>
              <path class="cls-1" d="M525.3,180.69c.12.65.24,1.31.35,1.97"/>
              <path class="cls-9" d="M526.21,186.55c.53,4.2.8,8.48.8,12.82,0,5.64-.46,11.17-1.34,16.56"/>
              <path class="cls-1" d="M525.33,217.87c-.12.66-.25,1.31-.38,1.96"/>
            </g>
            <g>
              <path class="cls-1" d="M331.63,160.68c.25-.62.51-1.23.78-1.84"/>
              <path class="cls-6" d="M334.1,155.17c16.43-33.92,51.19-57.3,91.4-57.3,36.31,0,68.16,19.06,86.1,47.72"/>
              <path class="cls-1" d="M512.67,147.32c.34.57.68,1.15,1.01,1.73"/>
            </g>
            <g>
              <path class="cls-1" d="M516.46,244.49c-.3.6-.6,1.19-.91,1.78"/>
              <path class="cls-3" d="M513.67,249.73c-17.49,30.56-50.42,51.16-88.16,51.16-42.34,0-78.62-25.92-93.85-62.75"/>
              <path class="cls-1" d="M330.92,236.3c-.24-.62-.48-1.25-.71-1.87"/>
            </g>
            <path class="cls-8" d="M370.97,107.64c15.96-9.51,34.61-14.97,54.54-14.97,25.41,0,48.74,8.88,67.07,23.7"/>
            <path class="cls-2" d="M370.97,99.74c15.96-9.51,34.61-14.97,54.54-14.97,25.41,0,48.74,8.88,67.07,23.7"/>
            <path class="cls-8" d="M323.83,166.88c6.6-20.68,19.34-38.61,36.07-51.67"/>
            <path class="cls-8" d="M326.02,238.04c-.96-2.47-1.83-4.99-2.61-7.55"/>
            <path class="cls-8" d="M445.49,304.21c-6.47,1.23-13.15,1.87-19.99,1.87-36.83,0-69.31-18.66-88.48-47.05"/>
            <path class="cls-2" d="M442.78,307.78c-6.47,1.23-13.15,1.87-19.99,1.87-36.83,0-69.31-18.66-88.48-47.05"/>
            <path class="cls-8" d="M506.64,268.68c-12.63,14.78-29.23,26.06-48.15,32.2"/>
            <path class="cls-2" d="M524.41,260.02c-10.09,16.62-24.65,30.43-42.33,39.54"/>
            <path class="cls-8" d="M522.31,244.32c-2.39,5.14-5.18,10.06-8.32,14.71"/>
            <path class="cls-8" d="M530.58,180.69c1.07,6.07,1.63,12.31,1.63,18.68s-.61,13.21-1.79,19.54"/>
            <path class="cls-8" d="M520.75,151.21c.5.98.98,1.96,1.44,2.96"/>
            <g>
              <polygon class="cls-14" points="541.97 241.79 512.24 241.79 506.35 231 424.13 231.34 424.13 230.34 506.94 229.99 512.83 240.79 541.97 240.79 541.97 241.79"/>
              <rect class="cls-14" x="419.09" y="235.56" width="69" height="1" transform="translate(-1.38 2.68) rotate(-.34)"/>
              <polygon class="cls-14" points="551.56 228.67 517.21 228.67 511.37 219.42 438.12 219.42 438.12 218.42 511.92 218.42 517.76 227.67 551.56 227.67 551.56 228.67"/>
              <polygon class="cls-14" points="566.44 236.39 515.85 236.39 508.71 224.66 481.47 224.66 481.47 223.66 509.27 223.66 516.42 235.39 566.44 235.39 566.44 236.39"/>
              <path class="cls-14" d="M567.72,238.05c-1.19,0-2.16-.97-2.16-2.16s.97-2.15,2.16-2.15,2.15.97,2.15,2.15-.97,2.16-2.15,2.16ZM567.72,234.74c-.64,0-1.16.52-1.16,1.15s.52,1.16,1.16,1.16,1.15-.52,1.15-1.16-.52-1.15-1.15-1.15Z"/>
              <path class="cls-14" d="M553.1,230.33c-1.19,0-2.16-.97-2.16-2.15s.97-2.16,2.16-2.16,2.15.97,2.15,2.16-.97,2.15-2.15,2.15ZM553.1,227.02c-.64,0-1.16.52-1.16,1.16s.52,1.15,1.16,1.15,1.15-.52,1.15-1.15-.52-1.16-1.15-1.16Z"/>
              <path class="cls-14" d="M543.62,243.44c-1.19,0-2.16-.97-2.16-2.16s.97-2.16,2.16-2.16,2.16.97,2.16,2.16-.97,2.16-2.16,2.16ZM543.62,240.13c-.64,0-1.16.52-1.16,1.16s.52,1.16,1.16,1.16,1.16-.52,1.16-1.16-.52-1.16-1.16-1.16Z"/>
              <path class="cls-14" d="M489.75,238.39c-1.19,0-2.15-.97-2.15-2.16s.97-2.16,2.15-2.16,2.16.97,2.16,2.16-.97,2.16-2.16,2.16ZM489.75,235.08c-.64,0-1.15.52-1.15,1.16s.52,1.16,1.15,1.16,1.16-.52,1.16-1.16-.52-1.16-1.16-1.16Z"/>
            </g>
            <g>
              <polygon class="cls-14" points="447.21 252.46 446.91 252.46 388.5 252.22 388.5 251.22 446.61 251.46 450.78 243.82 471.92 243.82 471.92 244.82 451.38 244.82 447.21 252.46"/>
              <rect class="cls-14" x="408.85" y="223.59" width="1" height="48.85" transform="translate(159.3 656.13) rotate(-89.71)"/>
              <polygon class="cls-14" points="450.72 260.66 398.4 260.66 398.4 259.66 450.17 259.66 454.31 253.1 478.71 253.1 478.71 254.1 454.86 254.1 450.72 260.66"/>
              <polygon class="cls-14" points="448.85 256.95 394.28 256.95 394.28 255.95 448.29 255.95 453.35 247.64 489.24 247.64 489.24 248.64 453.91 248.64 448.85 256.95"/>
              <path class="cls-14" d="M490.15,249.81c-.92,0-1.67-.75-1.67-1.67s.75-1.67,1.67-1.67,1.67.75,1.67,1.67-.75,1.67-1.67,1.67ZM490.15,247.47c-.37,0-.67.3-.67.67s.3.67.67.67.67-.3.67-.67-.3-.67-.67-.67Z"/>
              <path class="cls-14" d="M479.8,255.27c-.92,0-1.67-.75-1.67-1.67s.75-1.67,1.67-1.67,1.67.75,1.67,1.67-.75,1.67-1.67,1.67ZM479.8,252.93c-.37,0-.67.3-.67.67s.3.67.67.67.67-.3.67-.67-.3-.67-.67-.67Z"/>
              <path class="cls-14" d="M473.09,245.99c-.92,0-1.67-.75-1.67-1.67s.75-1.67,1.67-1.67,1.67.75,1.67,1.67-.75,1.67-1.67,1.67ZM473.09,243.65c-.37,0-.67.3-.67.67s.3.67.67.67.67-.3.67-.67-.3-.67-.67-.67Z"/>
              <path class="cls-14" d="M434.95,249.57c-.92,0-1.67-.75-1.67-1.67s.75-1.67,1.67-1.67,1.67.75,1.67,1.67-.75,1.67-1.67,1.67ZM434.95,247.22c-.37,0-.67.3-.67.67s.3.67.67.67.67-.3.67-.67-.3-.67-.67-.67Z"/>
            </g>
            <g>
              <polygon class="cls-14" points="471.92 155.79 450.78 155.79 446.61 148.15 388.5 148.4 388.5 147.4 447.21 147.15 451.38 154.79 471.92 154.79 471.92 155.79"/>
              <rect class="cls-14" x="384.93" y="151.09" width="48.85" height="1" transform="translate(-.87 2.38) rotate(-.33)"/>
              <polygon class="cls-14" points="478.71 146.51 454.31 146.51 450.17 139.96 398.4 139.96 398.4 138.96 450.72 138.96 454.86 145.51 478.71 145.51 478.71 146.51"/>
              <polygon class="cls-14" points="489.24 151.97 453.35 151.97 448.29 143.67 394.28 143.67 394.28 142.67 448.85 142.67 453.91 150.97 489.24 150.97 489.24 151.97"/>
              <path class="cls-14" d="M490.15,153.14c-.92,0-1.67-.75-1.67-1.67s.75-1.67,1.67-1.67,1.67.75,1.67,1.67-.75,1.67-1.67,1.67ZM490.15,150.8c-.37,0-.67.3-.67.67s.3.67.67.67.67-.3.67-.67-.3-.67-.67-.67Z"/>
              <path class="cls-14" d="M479.8,147.68c-.92,0-1.67-.75-1.67-1.67s.75-1.67,1.67-1.67,1.67.75,1.67,1.67-.75,1.67-1.67,1.67ZM479.8,145.34c-.37,0-.67.3-.67.67s.3.67.67.67.67-.3.67-.67-.3-.67-.67-.67Z"/>
              <path class="cls-14" d="M473.09,156.96c-.92,0-1.67-.75-1.67-1.67s.75-1.67,1.67-1.67,1.67.75,1.67,1.67-.75,1.67-1.67,1.67ZM473.09,154.62c-.37,0-.67.3-.67.67s.3.67.67.67.67-.3.67-.67-.3-.67-.67-.67Z"/>
              <path class="cls-14" d="M434.95,153.39c-.92,0-1.67-.75-1.67-1.67s.75-1.67,1.67-1.67,1.67.75,1.67,1.67-.75,1.67-1.67,1.67ZM434.95,151.04c-.37,0-.67.3-.67.67s.3.67.67.67.67-.3.67-.67-.3-.67-.67-.67Z"/>
            </g>
            <g>
              <polygon class="cls-14" points="506.94 168.58 411.67 168.23 411.67 167.23 506.35 167.58 512.24 156.79 541.97 156.79 541.97 157.79 512.83 157.79 506.94 168.58"/>
              <rect class="cls-14" x="449.68" y="124.59" width="1" height="75.83" transform="translate(285.62 611.94) rotate(-89.74)"/>
              <polygon class="cls-14" points="511.92 180.16 480.71 180.16 480.71 179.16 511.37 179.16 517.21 169.9 551.56 169.9 551.56 170.9 517.76 170.9 511.92 180.16"/>
              <polygon class="cls-14" points="509.27 174.92 430.37 174.92 430.37 173.92 508.71 173.92 515.85 162.18 566.44 162.18 566.44 163.18 516.42 163.18 509.27 174.92"/>
              <path class="cls-14" d="M567.72,164.84c-1.19,0-2.16-.97-2.16-2.16s.97-2.15,2.16-2.15,2.15.97,2.15,2.15-.97,2.16-2.15,2.16ZM567.72,161.53c-.64,0-1.16.52-1.16,1.15s.52,1.16,1.16,1.16,1.15-.52,1.15-1.16-.52-1.15-1.15-1.15Z"/>
              <path class="cls-14" d="M553.1,172.55c-1.19,0-2.16-.97-2.16-2.15s.97-2.16,2.16-2.16,2.15.97,2.15,2.16-.97,2.15-2.15,2.15ZM553.1,169.24c-.64,0-1.16.52-1.16,1.16s.52,1.15,1.16,1.15,1.15-.52,1.15-1.15-.52-1.16-1.15-1.16Z"/>
              <path class="cls-14" d="M543.62,159.44c-1.19,0-2.16-.97-2.16-2.15s.97-2.15,2.16-2.15,2.16.97,2.16,2.15-.97,2.15-2.16,2.15ZM543.62,156.13c-.64,0-1.16.52-1.16,1.15s.52,1.15,1.16,1.15,1.16-.52,1.16-1.15-.52-1.15-1.16-1.15Z"/>
              <path class="cls-14" d="M489.75,164.49c-1.19,0-2.15-.97-2.15-2.15s.97-2.15,2.15-2.15,2.16.97,2.16,2.15-.97,2.15-2.16,2.15ZM489.75,161.18c-.64,0-1.15.52-1.15,1.15s.52,1.15,1.15,1.15,1.16-.52,1.16-1.15-.52-1.15-1.16-1.15Z"/>
            </g>
            <g>
              <path class="cls-12" d="M487.02,320.38h0c-.73,0-1.09-.88-.58-1.39h0c.32-.32.32-.83,0-1.15l-1.39-1.4c-.32-.32-.83-.32-1.15,0h0c-.51.51-1.39.15-1.39-.58h0c0-.45-.36-.81-.81-.81h-1.97c-.45,0-.81.36-.81.81,0,.73-.88,1.09-1.39.58h0c-.32-.32-.83-.32-1.15,0l-1.39,1.4c-.32.32-.32.83,0,1.15h0c.51.51.15,1.39-.58,1.39-.45,0-.81.36-.81.81v1.97c0,.45.36.81.81.81h0c.73,0,1.09.88.58,1.39h0c-.32.32-.32.83,0,1.15l1.39,1.4c.32.32.83.32,1.15,0h0c.51-.51,1.39-.15,1.39.58h0c0,.45.36.81.81.81h1.97c.45,0,.81-.36.81-.81h0c0-.73.88-1.09,1.39-.58h0c.32.32.83.32,1.15,0l1.39-1.4c.32-.32.32-.83,0-1.15h0c-.51-.51-.15-1.39.58-1.39h0c.45,0,.81-.36.81-.81v-1.97c0-.45-.36-.81-.81-.81ZM480.71,326.73c-2.51,0-4.54-2.03-4.54-4.54s2.03-4.54,4.54-4.54,4.54,2.03,4.54,4.54-2.03,4.54-4.54,4.54Z"/>
              <path class="cls-12" d="M483.63,322.18c0,1.61-1.31,2.92-2.92,2.92s-2.92-1.31-2.92-2.92,1.31-2.92,2.92-2.92,2.92,1.31,2.92,2.92Z"/>
            </g>
            <g>
              <path class="cls-12" d="M468.57,128.68h0c-.36,0-.54-.44-.29-.7h0c.16-.16.16-.42,0-.58l-.7-.7c-.16-.16-.42-.16-.58,0h0c-.26.26-.7.07-.7-.29h0c0-.22-.18-.41-.41-.41h-.99c-.22,0-.41.18-.41.41,0,.36-.44.54-.7.29h0c-.16-.16-.42-.16-.58,0l-.7.7c-.16.16-.16.42,0,.58h0c.26.26.07.7-.29.7-.22,0-.41.18-.41.41v.99c0,.22.18.41.41.41h0c.36,0,.54.44.29.7h0c-.16.16-.16.42,0,.58l.7.7c.16.16.42.16.58,0h0c.26-.26.7-.07.7.29h0c0,.22.18.41.41.41h.99c.22,0,.41-.18.41-.41h0c0-.36.44-.54.7-.29h0c.16.16.42.16.58,0l.7-.7c.16-.16.16-.42,0-.58h0c-.26-.26-.07-.7.29-.7h0c.22,0,.41-.18.41-.41v-.99c0-.22-.18-.41-.41-.41ZM465.41,131.85c-1.25,0-2.27-1.02-2.27-2.27s1.02-2.27,2.27-2.27,2.27,1.02,2.27,2.27-1.02,2.27-2.27,2.27Z"/>
              <path class="cls-12" d="M466.87,129.58c0,.81-.65,1.46-1.46,1.46s-1.46-.65-1.46-1.46.65-1.46,1.46-1.46,1.46.65,1.46,1.46Z"/>
            </g>
            <g>
              <path class="cls-12" d="M475.39,192.47h0c-.45,0-.68-.55-.36-.87h0c.2-.2.2-.52,0-.72l-.87-.87c-.2-.2-.52-.2-.72,0h0c-.32.32-.87.09-.87-.36h0c0-.28-.23-.51-.51-.51h-1.24c-.28,0-.51.23-.51.51,0,.45-.55.68-.87.36h0c-.2-.2-.52-.2-.72,0l-.87.87c-.2.2-.2.52,0,.72h0c.32.32.09.87-.36.87-.28,0-.51.23-.51.51v1.24c0,.28.23.51.51.51h0c.45,0,.68.55.36.87h0c-.2.2-.2.52,0,.72l.87.87c.2.2.52.2.72,0h0c.32-.32.87-.09.87.36h0c0,.28.23.51.51.51h1.24c.28,0,.51-.23.51-.51h0c0-.45.55-.68.87-.36h0c.2.2.52.2.72,0l.87-.87c.2-.2.2-.52,0-.72h0c-.32-.32-.09-.87.36-.87h0c.28,0,.51-.23.51-.51v-1.24c0-.28-.23-.51-.51-.51ZM471.44,196.44c-1.57,0-2.85-1.27-2.85-2.85s1.27-2.85,2.85-2.85,2.85,1.27,2.85,2.85-1.27,2.85-2.85,2.85Z"/>
              <path class="cls-12" d="M473.27,193.6c0,1.01-.82,1.83-1.83,1.83s-1.83-.82-1.83-1.83.82-1.83,1.83-1.83,1.83.82,1.83,1.83Z"/>
            </g>
            <circle class="cls-15" cx="506.64" cy="168.08" r="9.83" transform="translate(259.35 641.13) rotate(-80.75)"/>
            <circle class="cls-27" cx="310.43" cy="186.08" r="10.91"/>
            <circle class="cls-25" cx="523.95" cy="119.74" r="8.26"/>
            <circle class="cls-28" cx="535.64" cy="287.61" r="15.13" transform="translate(131.96 742.22) rotate(-76.63)"/>
            <circle class="cls-17" cx="321.34" cy="290.94" r="8.26" transform="translate(-18.35 560.24) rotate(-80.56)"/>
            <circle class="cls-16" cx="334.66" cy="214.99" r="14.53" transform="translate(48.93 491.73) rotate(-76.8)"/>
            <circle class="cls-23" cx="509.7" cy="224.16" r="14.53" transform="translate(162.65 659.59) rotate(-75.18)"/>
            <circle class="cls-26" cx="557.63" cy="162.68" r="7.53" transform="translate(307.93 687.15) rotate(-80.8)"/>
            <circle class="cls-10" cx="285.84" cy="220.94" r="7.53" transform="translate(-68.59 290.95) rotate(-48.88)"/>
            <circle class="cls-12" cx="343.03" cy="98.34" r="2.23"/>
            <path class="cls-12" d="M290.55,119.74c0,.84-.68,1.53-1.53,1.53s-1.53-.68-1.53-1.53.68-1.53,1.53-1.53,1.53.68,1.53,1.53Z"/>
            <path class="cls-12" d="M323.16,262.6c0,.84-.68,1.53-1.53,1.53s-1.53-.68-1.53-1.53.68-1.53,1.53-1.53,1.53.68,1.53,1.53Z"/>
            <path class="cls-12" d="M537.17,134.15c0,.84-.68,1.53-1.53,1.53s-1.53-.68-1.53-1.53.68-1.53,1.53-1.53,1.53.68,1.53,1.53Z"/>
            <circle class="cls-12" cx="352.87" cy="331.42" r="1.53"/>
            <circle class="cls-12" cx="559.16" cy="279.38" r="1.53"/>
            <path class="cls-12" d="M515.77,328.47c0,.84-.68,1.53-1.53,1.53s-1.53-.68-1.53-1.53.68-1.53,1.53-1.53,1.53.68,1.53,1.53Z"/>
            <path class="cls-12" d="M559.16,108.18c0,.84-.68,1.53-1.53,1.53s-1.53-.68-1.53-1.53.68-1.53,1.53-1.53,1.53.68,1.53,1.53Z"/>
            <circle class="cls-12" cx="331.63" cy="61.46" r="1.59"/>
          </g>
          <rect class="cls-5" width="598" height="399.12"/>
          <g class="cls-32">
            <g>
              <g class="cls-31">
                <g>
                  <line class="cls-4" x1="7.15" y1="-174.44" x2="7.15" y2="111.33"/>
                  <line class="cls-4" x1="28.55" y1="-174.44" x2="28.55" y2="80.34"/>
                  <line class="cls-4" x1="18.71" y1="80.34" x2="18.71" y2="-174.44"/>
                  <line class="cls-4" x1="49.95" y1="-174.44" x2="49.95" y2="80.34"/>
                  <line class="cls-4" x1="40.11" y1="80.34" x2="40.11" y2="-174.44"/>
                  <line class="cls-4" x1="71.35" y1="-174.44" x2="71.35" y2="80.34"/>
                  <line class="cls-4" x1="61.51" y1="80.34" x2="61.51" y2="-174.44"/>
                  <line class="cls-4" x1="92.75" y1="-174.44" x2="92.75" y2="80.34"/>
                  <line class="cls-4" x1="82.91" y1="80.34" x2="82.91" y2="-174.44"/>
                  <line class="cls-4" x1="114.15" y1="-174.44" x2="114.15" y2="80.34"/>
                  <line class="cls-4" x1="104.32" y1="80.34" x2="104.32" y2="-174.44"/>
                  <line class="cls-4" x1="135.56" y1="-174.44" x2="135.56" y2="80.34"/>
                  <line class="cls-4" x1="125.72" y1="80.34" x2="125.72" y2="-174.44"/>
                  <line class="cls-4" x1="156.96" y1="-174.44" x2="156.96" y2="125.9"/>
                  <line class="cls-4" x1="147.12" y1="80.34" x2="147.12" y2="-174.44"/>
                  <line class="cls-4" x1="178.36" y1="-182.34" x2="178.36" y2="107.64"/>
                  <line class="cls-4" x1="168.52" y1="92.51" x2="168.52" y2="-174.44"/>
                  <line class="cls-4" x1="199.76" y1="-174.44" x2="199.76" y2="80.34"/>
                  <line class="cls-4" x1="189.92" y1="80.34" x2="189.92" y2="-193.57"/>
                </g>
                <g>
                  <line class="cls-4" x1="-50.25" y1="65.73" x2="233.21" y2="65.73"/>
                  <line class="cls-4" x1="204.52" y1="75.57" x2="-50.25" y2="75.57"/>
                  <line class="cls-4" x1="-109.79" y1="44.33" x2="204.52" y2="44.33"/>
                  <line class="cls-4" x1="204.52" y1="54.17" x2="-62.43" y2="54.17"/>
                  <line class="cls-4" x1="-50.25" y1="22.93" x2="223.65" y2="22.93"/>
                  <line class="cls-4" x1="231.83" y1="32.77" x2="-50.25" y2="32.77"/>
                  <line class="cls-4" x1="-50.25" y1="1.53" x2="204.52" y2="1.53"/>
                  <line class="cls-4" x1="204.52" y1="11.37" x2="-50.25" y2="11.37"/>
                </g>
              </g>
              <g class="cls-31">
                <g>
                  <line class="cls-4" x1="542.87" y1="-213.57" x2="542.87" y2="41.21"/>
                  <line class="cls-4" x1="533.04" y1="41.21" x2="533.04" y2="-213.57"/>
                  <line class="cls-4" x1="564.28" y1="-250.42" x2="564.28" y2="41.21"/>
                  <line class="cls-4" x1="554.44" y1="41.21" x2="554.44" y2="-213.57"/>
                  <line class="cls-4" x1="585.68" y1="-213.57" x2="585.68" y2="72.2"/>
                  <line class="cls-4" x1="575.84" y1="53.38" x2="575.84" y2="-213.57"/>
                  <line class="cls-4" x1="597.24" y1="41.21" x2="597.24" y2="-213.57"/>
                </g>
                <g>
                  <line class="cls-4" x1="528.27" y1="26.61" x2="811.74" y2="26.61"/>
                  <line class="cls-4" x1="783.05" y1="36.45" x2="528.27" y2="36.45"/>
                  <line class="cls-4" x1="468.74" y1="5.21" x2="783.05" y2="5.21"/>
                  <line class="cls-4" x1="783.05" y1="15.04" x2="516.1" y2="15.04"/>
                </g>
              </g>
              <g class="cls-31">
                <g>
                  <line class="cls-4" x1="163.67" y1="395.53" x2="453.66" y2="395.53"/>
                  <line class="cls-4" x1="171.58" y1="374.13" x2="426.35" y2="374.13"/>
                  <line class="cls-4" x1="426.35" y1="383.97" x2="152.45" y2="383.97"/>
                </g>
                <g>
                  <line class="cls-4" x1="411.75" y1="624.14" x2="411.75" y2="340.67"/>
                  <line class="cls-4" x1="421.59" y1="369.36" x2="421.59" y2="624.14"/>
                  <line class="cls-4" x1="390.35" y1="683.67" x2="390.35" y2="369.36"/>
                  <line class="cls-4" x1="400.19" y1="369.36" x2="400.19" y2="636.31"/>
                  <line class="cls-4" x1="368.95" y1="624.14" x2="368.95" y2="350.23"/>
                  <line class="cls-4" x1="378.79" y1="342.06" x2="378.79" y2="624.14"/>
                  <line class="cls-4" x1="347.55" y1="624.14" x2="347.55" y2="369.36"/>
                  <line class="cls-4" x1="357.39" y1="369.36" x2="357.39" y2="624.14"/>
                  <line class="cls-4" x1="326.15" y1="624.14" x2="326.15" y2="369.36"/>
                  <line class="cls-4" x1="335.99" y1="369.36" x2="335.99" y2="624.14"/>
                  <line class="cls-4" x1="304.75" y1="624.14" x2="304.75" y2="369.36"/>
                  <line class="cls-4" x1="314.59" y1="369.36" x2="314.59" y2="624.14"/>
                  <line class="cls-4" x1="283.35" y1="624.14" x2="283.35" y2="369.36"/>
                  <line class="cls-4" x1="293.19" y1="369.36" x2="293.19" y2="624.14"/>
                  <line class="cls-4" x1="261.95" y1="624.14" x2="261.95" y2="369.36"/>
                  <line class="cls-4" x1="271.78" y1="369.36" x2="271.78" y2="624.14"/>
                  <line class="cls-4" x1="240.54" y1="624.14" x2="240.54" y2="369.36"/>
                  <line class="cls-4" x1="250.38" y1="369.36" x2="250.38" y2="624.14"/>
                  <line class="cls-4" x1="219.14" y1="666.58" x2="219.14" y2="363.64"/>
                  <line class="cls-4" x1="228.98" y1="369.36" x2="228.98" y2="624.14"/>
                  <line class="cls-4" x1="197.74" y1="690.56" x2="197.74" y2="369.36"/>
                  <line class="cls-4" x1="207.58" y1="350.23" x2="207.58" y2="634.98"/>
                  <line class="cls-4" x1="176.34" y1="624.14" x2="176.34" y2="369.36"/>
                  <line class="cls-4" x1="186.18" y1="369.36" x2="186.18" y2="624.14"/>
                </g>
              </g>
            </g>
          </g>
        </g>
      </g>
    </g>
  </g>
</svg>