<?xml version="1.0" encoding="UTF-8"?>
<svg xmlns="http://www.w3.org/2000/svg" xmlns:xlink="http://www.w3.org/1999/xlink" viewBox="0 0 1440 900">
  <defs>
    <style>
      .cls-1, .cls-2, .cls-3, .cls-4, .cls-5, .cls-6, .cls-7, .cls-8, .cls-9, .cls-10 {
        fill: none;
      }

      .cls-1, .cls-2, .cls-3, .cls-4, .cls-6, .cls-7, .cls-8, .cls-9, .cls-10 {
        stroke-miterlimit: 10;
      }

      .cls-1, .cls-2, .cls-6, .cls-9, .cls-10 {
        stroke: #d0e9f2;
      }

      .cls-1, .cls-6, .cls-9, .cls-10 {
        stroke-width: .5px;
      }

      .cls-11 {
        opacity: .22;
      }

      .cls-11, .cls-12, .cls-13, .cls-14, .cls-15, .cls-16, .cls-17, .cls-18, .cls-19, .cls-20, .cls-21, .cls-22, .cls-23, .cls-24, .cls-25, .cls-26, .cls-27, .cls-5, .cls-28, .cls-29, .cls-30, .cls-31, .cls-32, .cls-33, .cls-34, .cls-35, .cls-36, .cls-37, .cls-38, .cls-39, .cls-40, .cls-41, .cls-42, .cls-43 {
        stroke-width: 0px;
      }

      .cls-11, .cls-12, .cls-17, .cls-21, .cls-25, .cls-29 {
        fill: #134570;
      }

      .cls-12, .cls-44 {
        opacity: .4;
      }

      .cls-13 {
        fill: url(#radial-gradient-16);
      }

      .cls-14 {
        opacity: .53;
      }

      .cls-14, .cls-19, .cls-22, .cls-24, .cls-28, .cls-38, .cls-40, .cls-42 {
        fill: #2389af;
      }

      .cls-15 {
        fill: url(#linear-gradient);
      }

      .cls-16 {
        fill: #2d83a6;
      }

      .cls-18 {
        fill: url(#radial-gradient-7);
      }

      .cls-18, .cls-30, .cls-31, .cls-32, .cls-33, .cls-34, .cls-36 {
        mix-blend-mode: color-dodge;
      }

      .cls-45 {
        opacity: .5;
      }

      .cls-2, .cls-8 {
        stroke-width: .75px;
      }

      .cls-20 {
        fill: #d0e9f2;
      }

      .cls-21 {
        opacity: .34;
      }

      .cls-22 {
        opacity: .82;
      }

      .cls-23 {
        fill: url(#radial-gradient-8);
      }

      .cls-46 {
        isolation: isolate;
      }

      .cls-24 {
        opacity: .32;
      }

      .cls-3 {
        stroke: #023e73;
      }

      .cls-25 {
        opacity: .64;
      }

      .cls-26 {
        fill: url(#radial-gradient-13);
      }

      .cls-4 {
        stroke: #134570;
        stroke-width: 2px;
      }

      .cls-27 {
        fill: url(#radial-gradient-12);
      }

      .cls-6 {
        stroke-dasharray: 0 0 3.9 3.9;
      }

      .cls-28 {
        opacity: .24;
      }

      .cls-29 {
        opacity: .15;
      }

      .cls-30 {
        fill: url(#radial-gradient);
      }

      .cls-31 {
        fill: url(#radial-gradient-3);
      }

      .cls-32 {
        fill: url(#radial-gradient-5);
      }

      .cls-47 {
        clip-path: url(#clippath);
      }

      .cls-7, .cls-8 {
        stroke: #2d83a6;
      }

      .cls-33 {
        fill: url(#radial-gradient-4);
      }

      .cls-34 {
        fill: url(#radial-gradient-2);
      }

      .cls-35 {
        fill: url(#radial-gradient-14);
      }

      .cls-36 {
        fill: url(#radial-gradient-6);
      }

      .cls-37 {
        fill: url(#radial-gradient-10);
      }

      .cls-38 {
        opacity: .62;
      }

      .cls-9 {
        stroke-dasharray: 0 0 4.01 4.01;
      }

      .cls-39 {
        fill: url(#radial-gradient-15);
      }

      .cls-40 {
        opacity: .72;
      }

      .cls-41 {
        fill: url(#radial-gradient-9);
      }

      .cls-42 {
        opacity: .41;
      }

      .cls-10 {
        stroke-dasharray: 0 0 3.98 3.98;
      }

      .cls-43 {
        fill: url(#radial-gradient-11);
      }
    </style>
    <linearGradient id="linear-gradient" x1="84.63" y1="-202.55" x2="1087.88" y2="827.82" gradientUnits="userSpaceOnUse">
      <stop offset=".04" stop-color="#023859"/>
      <stop offset="1" stop-color="#011826"/>
    </linearGradient>
    <radialGradient id="radial-gradient" cx="322.89" cy="808.61" fx="322.89" fy="808.61" r="65.1" gradientTransform="translate(-367.17 476.63) scale(4.38 .09)" gradientUnits="userSpaceOnUse">
      <stop offset=".07" stop-color="#d0e9f2"/>
      <stop offset=".92" stop-color="#000"/>
    </radialGradient>
    <radialGradient id="radial-gradient-2" cx="336.75" cy="-3016.47" fx="336.75" fy="-3016.47" r="65.1" xlink:href="#radial-gradient"/>
    <radialGradient id="radial-gradient-3" cx="281.23" cy="-2080.43" fx="281.23" fy="-2080.43" r="65.1" xlink:href="#radial-gradient"/>
    <radialGradient id="radial-gradient-4" cx="192.07" cy="-4480.1" fx="192.07" fy="-4480.1" r="40.81" xlink:href="#radial-gradient"/>
    <radialGradient id="radial-gradient-5" cx="232.88" cy="2632.34" fx="232.88" fy="2632.34" r="40.81" xlink:href="#radial-gradient"/>
    <radialGradient id="radial-gradient-6" cx="-735.87" cy="1961.11" fx="-735.87" fy="1961.11" r="65.11" gradientTransform="translate(265.35 428.09) rotate(-180) scale(1.23 .02)" xlink:href="#radial-gradient"/>
    <radialGradient id="radial-gradient-7" cx="340.43" cy="-1378.24" fx="340.43" fy="-1378.24" r="65.1" xlink:href="#radial-gradient"/>
    <radialGradient id="radial-gradient-8" cx="1268.99" cy="285.14" fx="1268.99" fy="285.14" r="42.68" gradientTransform="translate(44.23 54.49) scale(.94 .88)" gradientUnits="userSpaceOnUse">
      <stop offset="0" stop-color="#d0e9f2"/>
      <stop offset=".01" stop-color="rgba(200, 225, 234, .96)" stop-opacity=".96"/>
      <stop offset=".1" stop-color="rgba(154, 178, 189, .74)" stop-opacity=".74"/>
      <stop offset=".19" stop-color="rgba(113, 137, 148, .54)" stop-opacity=".54"/>
      <stop offset=".28" stop-color="rgba(78, 102, 114, .38)" stop-opacity=".38"/>
      <stop offset=".37" stop-color="rgba(50, 74, 86, .24)" stop-opacity=".24"/>
      <stop offset=".47" stop-color="rgba(28, 52, 65, .13)" stop-opacity=".13"/>
      <stop offset=".56" stop-color="rgba(13, 36, 50, .06)" stop-opacity=".06"/>
      <stop offset=".67" stop-color="rgba(3, 27, 40, .01)" stop-opacity=".01"/>
      <stop offset=".78" stop-color="#011826" stop-opacity="0"/>
    </radialGradient>
    <radialGradient id="radial-gradient-9" cx="827.01" cy="325.68" fx="827.01" fy="325.68" r="47.4" xlink:href="#radial-gradient-8"/>
    <radialGradient id="radial-gradient-10" cx="1307.99" cy="176.24" fx="1307.99" fy="176.24" r="35.87" xlink:href="#radial-gradient-8"/>
    <radialGradient id="radial-gradient-11" cx="1334.31" cy="554.38" fx="1334.31" fy="554.38" r="65.7" xlink:href="#radial-gradient-8"/>
    <radialGradient id="radial-gradient-12" cx="851.59" cy="561.9" fx="851.59" fy="561.9" r="35.87" xlink:href="#radial-gradient-8"/>
    <radialGradient id="radial-gradient-13" cx="881.59" cy="390.82" fx="881.59" fy="390.82" r="63.11" xlink:href="#radial-gradient-8"/>
    <radialGradient id="radial-gradient-14" cx="1275.89" cy="411.46" fx="1275.89" fy="411.46" r="63.11" xlink:href="#radial-gradient-8"/>
    <radialGradient id="radial-gradient-15" cx="1383.85" cy="272.98" fx="1383.85" fy="272.98" r="32.71" xlink:href="#radial-gradient-8"/>
    <radialGradient id="radial-gradient-16" cx="771.61" cy="404.21" fx="771.61" fy="404.21" r="32.71" xlink:href="#radial-gradient-8"/>
    <clipPath id="clippath">
      <rect class="cls-5" width="1440" height="900"/>
    </clipPath>
  </defs>
  <g class="cls-46">
    <g id="Layer_2" data-name="Layer 2">
      <g id="OBJECTS">
        <g>
          <rect class="cls-15" width="1440" height="900"/>
          <g>
            <path class="cls-30" d="M1331.39,548.27c0,3.19-127.59,5.77-284.98,5.77s-284.98-2.58-284.98-5.77,127.59-5.77,284.98-5.77,284.98,2.58,284.98,5.77Z"/>
            <ellipse class="cls-34" cx="1107.1" cy="209.39" rx="284.98" ry="5.77"/>
            <path class="cls-31" d="M1149,292.32c0,3.19-127.59,5.77-284.98,5.77s-284.98-2.58-284.98-5.77,127.59-5.77,284.98-5.77,284.98,2.58,284.98,5.77Z"/>
            <ellipse class="cls-33" cx="473.7" cy="79.73" rx="178.66" ry="3.62"/>
            <path class="cls-32" d="M831.02,709.84c0,2-79.99,3.62-178.66,3.62s-178.66-1.62-178.66-3.62,79.99-3.62,178.66-3.62,178.66,1.62,178.66,3.62Z"/>
            <ellipse class="cls-36" cx="1166.8" cy="379.48" rx="79.74" ry="1.61"/>
            <path class="cls-18" d="M1408.2,354.53c0,3.19-127.59,5.77-284.98,5.77s-284.98-2.58-284.98-5.77,127.59-5.77,284.98-5.77,284.98,2.58,284.98,5.77Z"/>
            <g class="cls-44">
              <g>
                <line class="cls-3" x1="819.67" y1="115.23" x2="819.67" y2="619.63"/>
                <line class="cls-3" x1="798.87" y1="619.63" x2="798.87" y2="115.23"/>
                <line class="cls-3" x1="864.92" y1="42.25" x2="864.92" y2="619.63"/>
                <line class="cls-3" x1="844.12" y1="619.63" x2="844.12" y2="115.23"/>
                <line class="cls-3" x1="910.16" y1="115.23" x2="910.16" y2="680.99"/>
                <line class="cls-3" x1="889.36" y1="643.73" x2="889.36" y2="115.23"/>
                <line class="cls-3" x1="955.41" y1="115.23" x2="955.41" y2="619.63"/>
                <line class="cls-3" x1="934.61" y1="619.63" x2="934.61" y2="115.23"/>
                <line class="cls-3" x1="1000.65" y1="115.23" x2="1000.65" y2="619.63"/>
                <line class="cls-3" x1="979.85" y1="619.63" x2="979.85" y2="115.23"/>
                <line class="cls-3" x1="1045.9" y1="115.23" x2="1045.9" y2="619.63"/>
                <line class="cls-3" x1="1025.1" y1="619.63" x2="1025.1" y2="115.23"/>
                <line class="cls-3" x1="1091.14" y1="115.23" x2="1091.14" y2="619.63"/>
                <line class="cls-3" x1="1070.34" y1="619.63" x2="1070.34" y2="115.23"/>
                <line class="cls-3" x1="1136.39" y1="115.23" x2="1136.39" y2="619.63"/>
                <line class="cls-3" x1="1115.59" y1="619.63" x2="1115.59" y2="115.23"/>
                <line class="cls-3" x1="1181.64" y1="115.23" x2="1181.64" y2="619.63"/>
                <line class="cls-3" x1="1160.83" y1="619.63" x2="1160.83" y2="115.23"/>
                <line class="cls-3" x1="1226.88" y1="115.23" x2="1226.88" y2="709.84"/>
                <line class="cls-3" x1="1206.08" y1="619.63" x2="1206.08" y2="115.23"/>
                <line class="cls-3" x1="1272.13" y1="99.58" x2="1272.13" y2="673.69"/>
                <line class="cls-3" x1="1251.32" y1="643.73" x2="1251.32" y2="115.23"/>
                <line class="cls-3" x1="1317.37" y1="115.23" x2="1317.37" y2="619.63"/>
                <line class="cls-3" x1="1296.57" y1="619.63" x2="1296.57" y2="77.35"/>
              </g>
              <g>
                <line class="cls-3" x1="788.8" y1="590.72" x2="1388.1" y2="590.72"/>
                <line class="cls-3" x1="1327.44" y1="610.2" x2="788.8" y2="610.2"/>
                <line class="cls-3" x1="662.94" y1="548.35" x2="1327.44" y2="548.35"/>
                <line class="cls-3" x1="1327.44" y1="567.83" x2="763.06" y2="567.83"/>
                <line class="cls-3" x1="788.8" y1="505.98" x2="1367.89" y2="505.98"/>
                <line class="cls-3" x1="1385.17" y1="525.46" x2="788.8" y2="525.46"/>
                <line class="cls-3" x1="788.8" y1="463.61" x2="1327.44" y2="463.61"/>
                <line class="cls-3" x1="1327.44" y1="483.09" x2="788.8" y2="483.09"/>
                <line class="cls-3" x1="788.8" y1="421.24" x2="1327.44" y2="421.24"/>
                <line class="cls-3" x1="1327.44" y1="440.72" x2="788.8" y2="440.72"/>
                <line class="cls-3" x1="788.8" y1="378.87" x2="1327.44" y2="378.87"/>
                <line class="cls-3" x1="1327.44" y1="398.35" x2="788.8" y2="398.35"/>
                <line class="cls-3" x1="788.8" y1="336.5" x2="1327.44" y2="336.5"/>
                <line class="cls-3" x1="1327.44" y1="355.98" x2="788.8" y2="355.98"/>
                <line class="cls-3" x1="788.8" y1="294.13" x2="1327.44" y2="294.13"/>
                <line class="cls-3" x1="1327.44" y1="313.61" x2="788.8" y2="313.61"/>
                <line class="cls-3" x1="788.8" y1="251.76" x2="1327.44" y2="251.76"/>
                <line class="cls-3" x1="1327.44" y1="271.24" x2="788.8" y2="271.24"/>
                <line class="cls-3" x1="699.07" y1="209.39" x2="1339.54" y2="209.39"/>
                <line class="cls-3" x1="1327.44" y1="228.87" x2="788.8" y2="228.87"/>
                <line class="cls-3" x1="648.36" y1="167.03" x2="1327.44" y2="167.03"/>
                <line class="cls-3" x1="1367.89" y1="186.51" x2="765.88" y2="186.51"/>
                <line class="cls-3" x1="788.8" y1="124.66" x2="1327.44" y2="124.66"/>
                <line class="cls-3" x1="1327.44" y1="144.14" x2="788.8" y2="144.14"/>
              </g>
            </g>
            <g class="cls-45">
              <polyline class="cls-7" points="1015.77 335.46 870.15 336.14 857.7 314.77 795.47 314.77"/>
              <line class="cls-7" x1="1014.52" y1="324.77" x2="909.38" y2="325.46"/>
              <polyline class="cls-7" points="949.32 359.06 859.59 359.06 847.24 340.73 775.19 340.73"/>
              <polyline class="cls-7" points="1014.52 348.69 865.19 348.69 850.09 325.46 743.74 325.46"/>
              <path class="cls-7" d="M737.53,325.46c0-1.81,1.57-3.28,3.5-3.28s3.5,1.47,3.5,3.28-1.57,3.28-3.5,3.28-3.5-1.47-3.5-3.28Z"/>
              <path class="cls-7" d="M768.44,340.73c0-1.81,1.57-3.28,3.5-3.28s3.5,1.47,3.5,3.28-1.57,3.28-3.5,3.28-3.5-1.47-3.5-3.28Z"/>
              <path class="cls-7" d="M788.47,314.77c0-1.81,1.57-3.28,3.5-3.28s3.5,1.47,3.5,3.28-1.57,3.28-3.5,3.28-3.5-1.47-3.5-3.28Z"/>
              <path class="cls-7" d="M902.38,324.77c0-1.81,1.57-3.28,3.5-3.28s3.5,1.47,3.5,3.28-1.57,3.28-3.5,3.28-3.5-1.47-3.5-3.28Z"/>
            </g>
            <g class="cls-45">
              <polyline class="cls-7" points="1015.77 398.67 870.15 397.99 857.7 419.35 795.47 419.35"/>
              <line class="cls-7" x1="1014.52" y1="409.35" x2="909.38" y2="408.67"/>
              <polyline class="cls-7" points="949.32 375.06 859.59 375.06 847.24 393.39 775.19 393.39"/>
              <polyline class="cls-7" points="1014.52 385.44 865.19 385.44 850.09 408.67 743.74 408.67"/>
              <path class="cls-7" d="M737.53,408.67c0,1.81,1.57,3.28,3.5,3.28s3.5-1.47,3.5-3.28-1.57-3.28-3.5-3.28-3.5,1.47-3.5,3.28Z"/>
              <path class="cls-7" d="M768.44,393.39c0,1.81,1.57,3.28,3.5,3.28s3.5-1.47,3.5-3.28-1.57-3.28-3.5-3.28-3.5,1.47-3.5,3.28Z"/>
              <path class="cls-7" d="M788.47,419.35c0,1.81,1.57,3.28,3.5,3.28s3.5-1.47,3.5-3.28-1.57-3.28-3.5-3.28-3.5,1.47-3.5,3.28Z"/>
              <path class="cls-7" d="M902.38,409.35c0,1.81,1.57,3.28,3.5,3.28s3.5-1.47,3.5-3.28-1.57-3.28-3.5-3.28-3.5,1.47-3.5,3.28Z"/>
            </g>
            <g>
              <path class="cls-1" d="M1274.7,330.08c.13.65.26,1.31.38,1.96"/>
              <path class="cls-6" d="M1275.76,335.88c1.69,10.16,2.57,20.58,2.57,31.18,0,12.51-1.22,24.76-3.56,36.64"/>
              <path class="cls-1" d="M1274.39,405.61c-.14.65-.27,1.3-.42,1.96"/>
            </g>
            <g>
              <path class="cls-1" d="M865.25,290.46c.27-.61.54-1.22.81-1.82"/>
              <path class="cls-10" d="M867.74,285.03c33.51-70.1,108.65-118.94,195.98-118.94,78.31,0,146.83,39.28,184.3,97.94"/>
              <path class="cls-1" d="M1249.09,265.72c.35.56.7,1.13,1.05,1.7"/>
            </g>
            <g>
              <path class="cls-1" d="M1256.02,456.38c-.31.59-.63,1.17-.95,1.76"/>
              <path class="cls-9" d="M1253.13,461.64c-36.13,63.31-107.39,106.39-189.41,106.39-90.99,0-168.75-53.02-199.97-127.87"/>
              <path class="cls-1" d="M862.99,438.32c-.25-.62-.5-1.24-.74-1.86"/>
            </g>
            <path class="cls-8" d="M948.41,185.44c33.74-18.83,73.18-29.64,115.31-29.64,53.72,0,103.05,17.58,141.79,46.93"/>
            <path class="cls-2" d="M948.41,169.81c33.74-18.83,73.18-29.64,115.31-29.64,53.72,0,103.05,17.58,141.79,46.93"/>
            <path class="cls-8" d="M848.77,302.74c13.96-40.94,40.88-76.45,76.25-102.3"/>
            <path class="cls-8" d="M853.39,443.62c-2.03-4.9-3.88-9.88-5.52-14.94"/>
            <path class="cls-8" d="M1105.97,574.62c-13.69,2.43-27.81,3.7-42.25,3.7-77.87,0-146.53-36.95-187.07-93.14"/>
            <path class="cls-2" d="M1100.25,581.68c-13.69,2.43-27.81,3.7-42.25,3.7-77.87,0-146.53-36.95-187.07-93.14"/>
            <path class="cls-8" d="M1235.27,504.27c-26.71,29.25-61.8,51.59-101.79,63.76"/>
            <path class="cls-2" d="M1272.82,487.12c-21.33,32.9-52.11,60.24-89.49,78.28"/>
            <path class="cls-8" d="M1268.39,456.05c-5.05,10.18-10.95,19.91-17.6,29.13"/>
            <path class="cls-8" d="M1285.88,330.08c2.26,12.01,3.44,24.37,3.44,36.98s-1.3,26.15-3.78,38.69"/>
            <path class="cls-8" d="M1265.09,271.71c1.05,1.94,2.06,3.89,3.05,5.86"/>
            <g>
              <polygon class="cls-20" points="1309.95 451.03 1247.09 451.03 1234.64 429.67 1060.82 430.35 1060.82 428.37 1235.89 427.68 1248.35 449.05 1309.95 449.05 1309.95 451.03"/>
              <polygon class="cls-20" points="1050.16 441.03 1050.15 439.05 1196.03 438.37 1196.05 440.35 1050.16 441.03"/>
              <polygon class="cls-20" points="1330.23 425.07 1257.6 425.07 1245.25 406.74 1090.4 406.74 1090.4 404.76 1246.41 404.76 1258.76 423.09 1330.23 423.09 1330.23 425.07"/>
              <polygon class="cls-20" points="1361.68 440.35 1254.74 440.35 1239.63 417.12 1182.04 417.12 1182.04 415.14 1240.82 415.14 1255.93 438.37 1361.68 438.37 1361.68 440.35"/>
              <path class="cls-20" d="M1364.39,443.62c-2.51,0-4.56-1.91-4.56-4.27s2.04-4.27,4.56-4.27,4.55,1.91,4.55,4.27-2.04,4.27-4.55,4.27ZM1364.39,437.07c-1.35,0-2.44,1.02-2.44,2.29s1.1,2.29,2.44,2.29,2.44-1.03,2.44-2.29-1.09-2.29-2.44-2.29Z"/>
              <path class="cls-20" d="M1333.48,428.34c-2.51,0-4.56-1.91-4.56-4.27s2.04-4.27,4.56-4.27,4.55,1.91,4.55,4.27-2.04,4.27-4.55,4.27ZM1333.48,421.79c-1.35,0-2.44,1.03-2.44,2.29s1.1,2.29,2.44,2.29,2.44-1.02,2.44-2.29-1.09-2.29-2.44-2.29Z"/>
              <path class="cls-20" d="M1313.45,454.3c-2.51,0-4.56-1.91-4.56-4.27s2.04-4.27,4.56-4.27,4.56,1.91,4.56,4.27-2.04,4.27-4.56,4.27ZM1313.45,447.75c-1.35,0-2.44,1.03-2.44,2.29s1.1,2.29,2.44,2.29,2.44-1.03,2.44-2.29-1.1-2.29-2.44-2.29Z"/>
              <path class="cls-20" d="M1199.54,444.31c-2.51,0-4.55-1.91-4.55-4.27s2.04-4.27,4.55-4.27,4.56,1.91,4.56,4.27-2.04,4.27-4.56,4.27ZM1199.54,437.75c-1.35,0-2.44,1.03-2.44,2.29s1.09,2.29,2.44,2.29,2.44-1.03,2.44-2.29-1.1-2.29-2.44-2.29Z"/>
            </g>
            <g>
              <polygon class="cls-20" points="1109.6 472.16 1108.97 472.16 985.48 471.68 985.49 469.7 1108.35 470.18 1117.17 455.05 1161.84 455.05 1161.84 457.03 1118.42 457.03 1109.6 472.16"/>
              <polygon class="cls-20" points="1081.2 464.6 977.93 464.11 977.94 462.14 1081.21 462.62 1081.2 464.6"/>
              <polygon class="cls-20" points="1117.04 488.39 1006.42 488.39 1006.42 486.41 1115.87 486.41 1124.61 473.43 1176.2 473.43 1176.2 475.41 1125.78 475.41 1117.04 488.39"/>
              <polygon class="cls-20" points="1113.08 481.04 997.71 481.04 997.71 479.06 1111.89 479.06 1122.59 462.62 1198.47 462.62 1198.47 464.6 1123.77 464.6 1113.08 481.04"/>
              <path class="cls-20" d="M1200.39,466.92c-1.95,0-3.53-1.48-3.53-3.31s1.59-3.31,3.53-3.31,3.53,1.48,3.53,3.31-1.59,3.31-3.53,3.31ZM1200.39,462.28c-.78,0-1.42.6-1.42,1.33s.64,1.33,1.42,1.33,1.42-.6,1.42-1.33-.64-1.33-1.42-1.33Z"/>
              <path class="cls-20" d="M1178.5,477.73c-1.95,0-3.53-1.48-3.53-3.31s1.59-3.31,3.53-3.31,3.53,1.48,3.53,3.31-1.59,3.31-3.53,3.31ZM1178.5,473.09c-.78,0-1.42.6-1.42,1.33s.64,1.33,1.42,1.33,1.42-.6,1.42-1.33-.64-1.33-1.42-1.33Z"/>
              <path class="cls-20" d="M1164.32,459.35c-1.95,0-3.53-1.48-3.53-3.31s1.59-3.31,3.53-3.31,3.53,1.48,3.53,3.31-1.59,3.31-3.53,3.31ZM1164.32,454.72c-.78,0-1.42.6-1.42,1.33s.64,1.33,1.42,1.33,1.42-.6,1.42-1.33-.64-1.33-1.42-1.33Z"/>
              <path class="cls-20" d="M1083.68,466.43c-1.95,0-3.53-1.48-3.53-3.31s1.59-3.31,3.53-3.31,3.53,1.48,3.53,3.31-1.59,3.31-3.53,3.31ZM1083.68,461.79c-.78,0-1.42.6-1.42,1.33s.64,1.33,1.42,1.33,1.42-.6,1.42-1.33-.64-1.33-1.42-1.33Z"/>
            </g>
            <g>
              <polygon class="cls-20" points="1161.84 280.78 1117.17 280.78 1108.35 265.66 985.49 266.13 985.48 264.15 1109.6 263.67 1118.42 278.8 1161.84 278.8 1161.84 280.78"/>
              <polygon class="cls-20" points="977.94 273.7 977.93 271.72 1081.2 271.23 1081.21 273.21 977.94 273.7"/>
              <polygon class="cls-20" points="1176.2 262.4 1124.61 262.4 1115.87 249.42 1006.42 249.42 1006.42 247.44 1117.04 247.44 1125.78 260.42 1176.2 260.42 1176.2 262.4"/>
              <polygon class="cls-20" points="1198.47 273.21 1122.59 273.21 1111.89 256.77 997.71 256.77 997.71 254.79 1113.08 254.79 1123.77 271.23 1198.47 271.23 1198.47 273.21"/>
              <path class="cls-20" d="M1200.39,275.53c-1.95,0-3.53-1.48-3.53-3.31s1.59-3.31,3.53-3.31,3.53,1.48,3.53,3.31-1.59,3.31-3.53,3.31ZM1200.39,270.89c-.78,0-1.42.6-1.42,1.33s.64,1.33,1.42,1.33,1.42-.6,1.42-1.33-.64-1.33-1.42-1.33Z"/>
              <path class="cls-20" d="M1178.5,264.72c-1.95,0-3.53-1.48-3.53-3.31s1.59-3.31,3.53-3.31,3.53,1.48,3.53,3.31-1.59,3.31-3.53,3.31ZM1178.5,260.08c-.78,0-1.42.6-1.42,1.33s.64,1.33,1.42,1.33,1.42-.6,1.42-1.33-.64-1.33-1.42-1.33Z"/>
              <path class="cls-20" d="M1164.32,283.09c-1.95,0-3.53-1.48-3.53-3.31s1.59-3.31,3.53-3.31,3.53,1.48,3.53,3.31-1.59,3.31-3.53,3.31ZM1164.32,278.46c-.78,0-1.42.6-1.42,1.33s.64,1.33,1.42,1.33,1.42-.6,1.42-1.33-.64-1.33-1.42-1.33Z"/>
              <path class="cls-20" d="M1083.68,276.02c-1.95,0-3.53-1.48-3.53-3.31s1.59-3.31,3.53-3.31,3.53,1.48,3.53,3.31-1.59,3.31-3.53,3.31ZM1083.68,271.38c-.78,0-1.42.6-1.42,1.33s.64,1.33,1.42,1.33,1.42-.6,1.42-1.33-.64-1.33-1.42-1.33Z"/>
            </g>
            <g>
              <polygon class="cls-20" points="1235.89 306.09 1034.47 305.41 1034.48 303.43 1234.64 304.11 1247.09 282.75 1309.95 282.75 1309.95 284.73 1248.35 284.73 1235.89 306.09"/>
              <rect class="cls-20" x="1114.89" y="213.92" width="1.98" height="160.32" transform="translate(817.06 1408.7) rotate(-89.76)"/>
              <polygon class="cls-20" points="1246.41 329.01 1180.43 329.01 1180.43 327.03 1245.25 327.03 1257.6 308.71 1330.23 308.71 1330.23 310.69 1258.76 310.69 1246.41 329.01"/>
              <polygon class="cls-20" points="1240.82 318.64 1074.02 318.64 1074.02 316.66 1239.63 316.66 1254.74 293.43 1361.68 293.43 1361.68 295.41 1255.93 295.41 1240.82 318.64"/>
              <path class="cls-20" d="M1364.39,298.68c-2.51,0-4.56-1.91-4.56-4.27s2.04-4.27,4.56-4.27,4.55,1.91,4.55,4.27-2.04,4.27-4.55,4.27ZM1364.39,292.13c-1.35,0-2.44,1.03-2.44,2.29s1.1,2.29,2.44,2.29,2.44-1.03,2.44-2.29-1.09-2.29-2.44-2.29Z"/>
              <path class="cls-20" d="M1333.48,313.96c-2.51,0-4.56-1.91-4.56-4.27s2.04-4.27,4.56-4.27,4.55,1.91,4.55,4.27-2.04,4.27-4.55,4.27ZM1333.48,307.41c-1.35,0-2.44,1.03-2.44,2.29s1.1,2.29,2.44,2.29,2.44-1.03,2.44-2.29-1.09-2.29-2.44-2.29Z"/>
              <path class="cls-20" d="M1313.45,288c-2.51,0-4.56-1.91-4.56-4.27s2.04-4.27,4.56-4.27,4.56,1.91,4.56,4.27-2.04,4.27-4.56,4.27ZM1313.45,281.45c-1.35,0-2.44,1.03-2.44,2.29s1.1,2.29,2.44,2.29,2.44-1.03,2.44-2.29-1.1-2.29-2.44-2.29Z"/>
              <path class="cls-20" d="M1199.54,298c-2.51,0-4.55-1.91-4.55-4.27s2.04-4.27,4.55-4.27,4.56,1.91,4.56,4.27-2.04,4.27-4.56,4.27ZM1199.54,291.45c-1.35,0-2.44,1.03-2.44,2.29s1.09,2.29,2.44,2.29,2.44-1.03,2.44-2.29-1.1-2.29-2.44-2.29Z"/>
            </g>
            <g>
              <path class="cls-16" d="M1193.78,606.64h0c-1.53,0-2.3-1.74-1.22-2.75h0c.67-.63.67-1.65,0-2.28l-2.95-2.76c-.67-.63-1.76-.63-2.44,0h0c-1.08,1.02-2.94.3-2.94-1.14h0c0-.89-.77-1.61-1.72-1.61h-4.17c-.95,0-1.72.72-1.72,1.61,0,1.44-1.85,2.16-2.94,1.14h0c-.67-.63-1.76-.63-2.44,0l-2.95,2.76c-.67.63-.67,1.65,0,2.28h0c1.08,1.02.32,2.75-1.22,2.75-.95,0-1.72.72-1.72,1.61v3.91c0,.89.77,1.61,1.72,1.61h0c1.53,0,2.3,1.74,1.22,2.75h0c-.67.63-.67,1.65,0,2.28l2.95,2.76c.67.63,1.76.63,2.44,0h0c1.08-1.02,2.94-.3,2.94,1.14h0c0,.89.77,1.61,1.72,1.61h4.17c.95,0,1.72-.72,1.72-1.61h0c0-1.44,1.85-2.16,2.94-1.14h0c.67.63,1.76.63,2.44,0l2.95-2.76c.67-.63.67-1.65,0-2.28h0c-1.08-1.02-.32-2.75,1.22-2.75h0c.95,0,1.72-.72,1.72-1.61v-3.91c0-.89-.77-1.61-1.72-1.61ZM1180.43,619.2c-5.31,0-9.61-4.03-9.61-9s4.3-9,9.61-9,9.61,4.03,9.61,9-4.3,9-9.61,9Z"/>
              <path class="cls-16" d="M1186.6,610.2c0,3.19-2.76,5.78-6.17,5.78s-6.17-2.59-6.17-5.78,2.76-5.78,6.17-5.78,6.17,2.59,6.17,5.78Z"/>
            </g>
            <g>
              <path class="cls-16" d="M1154.76,227.09h0c-.77,0-1.15-.87-.61-1.38h0c.34-.31.34-.83,0-1.14l-1.47-1.38c-.34-.31-.88-.31-1.22,0h0c-.54.51-1.47.15-1.47-.57h0c0-.45-.39-.81-.86-.81h-2.09c-.48,0-.86.36-.86.81,0,.72-.93,1.08-1.47.57h0c-.34-.31-.88-.31-1.22,0l-1.47,1.38c-.34.31-.34.83,0,1.14h0c.54.51.16,1.38-.61,1.38-.48,0-.86.36-.86.81v1.95c0,.45.39.81.86.81h0c.77,0,1.15.87.61,1.38h0c-.34.31-.34.83,0,1.14l1.47,1.38c.34.31.88.31,1.22,0h0c.54-.51,1.47-.15,1.47.57h0c0,.45.39.81.86.81h2.09c.48,0,.86-.36.86-.81h0c0-.72.93-1.08,1.47-.57h0c.34.31.88.31,1.22,0l1.47-1.38c.34-.31.34-.83,0-1.14h0c-.54-.51-.16-1.38.61-1.38h0c.48,0,.86-.36.86-.81v-1.95c0-.45-.39-.81-.86-.81ZM1148.09,233.37c-2.65,0-4.8-2.01-4.8-4.5s2.15-4.5,4.8-4.5,4.8,2.01,4.8,4.5-2.15,4.5-4.8,4.5Z"/>
              <path class="cls-16" d="M1151.17,228.87c0,1.6-1.38,2.89-3.08,2.89s-3.08-1.29-3.08-2.89,1.38-2.89,3.08-2.89,3.08,1.29,3.08,2.89Z"/>
            </g>
            <g>
              <path class="cls-16" d="M1169.19,353.39h0c-.96,0-1.44-1.09-.76-1.72h0c.42-.39.42-1.03,0-1.43l-1.85-1.73c-.42-.39-1.1-.39-1.52,0h0c-.68.64-1.84.19-1.84-.71h0c0-.56-.48-1.01-1.08-1.01h-2.61c-.6,0-1.08.45-1.08,1.01,0,.9-1.16,1.35-1.84.71h0c-.42-.39-1.1-.39-1.53,0l-1.85,1.73c-.42.39-.42,1.03,0,1.43h0c.68.64.2,1.72-.76,1.72-.6,0-1.08.45-1.08,1.01v2.45c0,.56.48,1.01,1.08,1.01h0c.96,0,1.44,1.09.76,1.72h0c-.42.39-.42,1.03,0,1.43l1.85,1.73c.42.39,1.1.39,1.53,0h0c.68-.64,1.84-.19,1.84.71h0c0,.56.48,1.01,1.08,1.01h2.61c.6,0,1.08-.45,1.08-1.01h0c0-.9,1.16-1.35,1.84-.71h0c.42.39,1.1.39,1.52,0l1.85-1.73c.42-.39.42-1.03,0-1.43h0c-.68-.64-.2-1.72.76-1.72h0c.6,0,1.08-.45,1.08-1.01v-2.45c0-.56-.48-1.01-1.08-1.01ZM1160.83,361.26c-3.32,0-6.02-2.52-6.02-5.63s2.69-5.63,6.02-5.63,6.02,2.52,6.02,5.63-2.69,5.63-6.02,5.63Z"/>
              <path class="cls-16" d="M1164.7,355.62c0,2-1.73,3.62-3.86,3.62s-3.86-1.62-3.86-3.62,1.73-3.62,3.86-3.62,3.86,1.62,3.86,3.62Z"/>
            </g>
            <ellipse class="cls-23" cx="1235.27" cy="305.1" rx="20.77" ry="19.45"/>
            <ellipse class="cls-41" cx="820.43" cy="340.73" rx="23.07" ry="21.6"/>
            <ellipse class="cls-37" cx="1271.86" cy="209.39" rx="17.46" ry="16.35"/>
            <ellipse class="cls-43" cx="1296.57" cy="541.74" rx="31.98" ry="29.94"/>
            <ellipse class="cls-27" cx="843.5" cy="548.35" rx="17.46" ry="16.35"/>
            <ellipse class="cls-26" cx="871.66" cy="397.99" rx="30.72" ry="28.77"/>
            <ellipse class="cls-35" cx="1241.73" cy="416.13" rx="30.72" ry="28.77"/>
            <ellipse class="cls-39" cx="1343.07" cy="294.42" rx="15.92" ry="14.91"/>
            <ellipse class="cls-13" cx="768.44" cy="409.76" rx="15.92" ry="14.91"/>
            <ellipse class="cls-16" cx="889.36" cy="167.03" rx="4.71" ry="4.41"/>
            <path class="cls-16" d="M778.41,209.39c0,1.67-1.44,3.02-3.22,3.02s-3.22-1.35-3.22-3.02,1.44-3.02,3.22-3.02,3.22,1.35,3.22,3.02Z"/>
            <path class="cls-16" d="M847.34,492.23c0,1.67-1.44,3.02-3.22,3.02s-3.22-1.35-3.22-3.02,1.44-3.02,3.22-3.02,3.22,1.35,3.22,3.02Z"/>
            <path class="cls-16" d="M1299.79,237.94c0,1.67-1.44,3.02-3.22,3.02s-3.22-1.35-3.22-3.02,1.44-3.02,3.22-3.02,3.22,1.35,3.22,3.02Z"/>
            <ellipse class="cls-16" cx="910.16" cy="628.49" rx="3.22" ry="3.02"/>
            <ellipse class="cls-16" cx="1346.29" cy="525.46" rx="3.22" ry="3.02"/>
            <path class="cls-16" d="M1254.55,622.65c0,1.67-1.44,3.02-3.22,3.02s-3.22-1.35-3.22-3.02,1.44-3.02,3.22-3.02,3.22,1.35,3.22,3.02Z"/>
            <path class="cls-16" d="M1346.29,186.51c0,1.67-1.44,3.02-3.22,3.02s-3.22-1.35-3.22-3.02,1.44-3.02,3.22-3.02,3.22,1.35,3.22,3.02Z"/>
            <ellipse class="cls-16" cx="865.25" cy="94.01" rx="3.36" ry="3.15"/>
          </g>
          <rect class="cls-5" width="1440" height="900"/>
          <g class="cls-47">
            <g>
              <g class="cls-44">
                <g>
                  <line class="cls-3" x1="17.22" y1="-393.35" x2="17.22" y2="251.04"/>
                  <line class="cls-3" x1="68.75" y1="-393.35" x2="68.75" y2="181.15"/>
                  <line class="cls-3" x1="45.06" y1="181.15" x2="45.06" y2="-393.35"/>
                  <line class="cls-3" x1="120.29" y1="-393.35" x2="120.29" y2="181.15"/>
                  <line class="cls-3" x1="96.59" y1="181.15" x2="96.59" y2="-393.35"/>
                  <line class="cls-3" x1="171.82" y1="-393.35" x2="171.82" y2="181.15"/>
                  <line class="cls-3" x1="148.13" y1="181.15" x2="148.13" y2="-393.35"/>
                  <line class="cls-3" x1="223.35" y1="-393.35" x2="223.35" y2="181.15"/>
                  <line class="cls-3" x1="199.66" y1="181.15" x2="199.66" y2="-393.35"/>
                  <line class="cls-3" x1="274.89" y1="-393.35" x2="274.89" y2="181.15"/>
                  <line class="cls-3" x1="251.19" y1="181.15" x2="251.19" y2="-393.35"/>
                  <line class="cls-3" x1="326.42" y1="-393.35" x2="326.42" y2="181.15"/>
                  <line class="cls-3" x1="302.73" y1="181.15" x2="302.73" y2="-393.35"/>
                  <line class="cls-3" x1="377.96" y1="-393.35" x2="377.96" y2="283.9"/>
                  <line class="cls-3" x1="354.26" y1="181.15" x2="354.26" y2="-393.35"/>
                  <line class="cls-3" x1="429.49" y1="-411.18" x2="429.49" y2="242.73"/>
                  <line class="cls-3" x1="405.8" y1="208.61" x2="405.8" y2="-393.35"/>
                  <line class="cls-3" x1="481.02" y1="-393.35" x2="481.02" y2="181.15"/>
                  <line class="cls-3" x1="457.33" y1="181.15" x2="457.33" y2="-436.5"/>
                </g>
                <g>
                  <line class="cls-3" x1="-121.01" y1="148.23" x2="561.58" y2="148.23"/>
                  <line class="cls-3" x1="492.49" y1="170.41" x2="-121.01" y2="170.41"/>
                  <line class="cls-3" x1="-264.37" y1="99.97" x2="492.49" y2="99.97"/>
                  <line class="cls-3" x1="492.49" y1="122.15" x2="-150.33" y2="122.15"/>
                  <line class="cls-3" x1="-121.01" y1="51.71" x2="538.56" y2="51.71"/>
                  <line class="cls-3" x1="558.25" y1="73.9" x2="-121.01" y2="73.9"/>
                  <line class="cls-3" x1="-121.01" y1="3.45" x2="492.49" y2="3.45"/>
                  <line class="cls-3" x1="492.49" y1="25.64" x2="-121.01" y2="25.64"/>
                </g>
              </g>
              <g class="cls-44">
                <g>
                  <line class="cls-3" x1="1307.26" y1="-481.58" x2="1307.26" y2="92.92"/>
                  <line class="cls-3" x1="1283.56" y1="92.92" x2="1283.56" y2="-481.58"/>
                  <line class="cls-3" x1="1358.79" y1="-564.7" x2="1358.79" y2="92.92"/>
                  <line class="cls-3" x1="1335.1" y1="92.92" x2="1335.1" y2="-481.58"/>
                  <line class="cls-3" x1="1410.32" y1="-481.58" x2="1410.32" y2="162.81"/>
                  <line class="cls-3" x1="1386.63" y1="120.38" x2="1386.63" y2="-481.58"/>
                  <line class="cls-3" x1="1438.17" y1="92.92" x2="1438.17" y2="-481.58"/>
                </g>
                <g>
                  <line class="cls-3" x1="1272.1" y1="60" x2="1954.69" y2="60"/>
                  <line class="cls-3" x1="1885.6" y1="82.18" x2="1272.1" y2="82.18"/>
                  <line class="cls-3" x1="1128.74" y1="11.74" x2="1885.6" y2="11.74"/>
                  <line class="cls-3" x1="1885.6" y1="33.92" x2="1242.78" y2="33.92"/>
                </g>
              </g>
              <g class="cls-44">
                <g>
                  <line class="cls-3" x1="394.13" y1="891.9" x2="1092.43" y2="891.9"/>
                  <line class="cls-3" x1="413.17" y1="843.64" x2="1026.67" y2="843.64"/>
                  <line class="cls-3" x1="1026.67" y1="865.83" x2="367.1" y2="865.83"/>
                </g>
                <g>
                  <line class="cls-3" x1="991.51" y1="1407.41" x2="991.51" y2="768.21"/>
                  <line class="cls-3" x1="1015.2" y1="832.9" x2="1015.2" y2="1407.41"/>
                  <line class="cls-3" x1="939.97" y1="1541.65" x2="939.97" y2="832.9"/>
                  <line class="cls-3" x1="963.67" y1="832.9" x2="963.67" y2="1434.86"/>
                  <line class="cls-3" x1="888.44" y1="1407.41" x2="888.44" y2="789.76"/>
                  <line class="cls-3" x1="912.13" y1="771.33" x2="912.13" y2="1407.41"/>
                  <line class="cls-3" x1="836.91" y1="1407.41" x2="836.91" y2="832.9"/>
                  <line class="cls-3" x1="860.6" y1="832.9" x2="860.6" y2="1407.41"/>
                  <line class="cls-3" x1="785.37" y1="1407.41" x2="785.37" y2="832.9"/>
                  <line class="cls-3" x1="809.07" y1="832.9" x2="809.07" y2="1407.41"/>
                  <line class="cls-3" x1="733.84" y1="1407.41" x2="733.84" y2="832.9"/>
                  <line class="cls-3" x1="757.53" y1="832.9" x2="757.53" y2="1407.41"/>
                  <line class="cls-3" x1="682.31" y1="1407.41" x2="682.31" y2="832.9"/>
                  <line class="cls-3" x1="706" y1="832.9" x2="706" y2="1407.41"/>
                  <line class="cls-3" x1="630.77" y1="1407.41" x2="630.77" y2="832.9"/>
                  <line class="cls-3" x1="654.46" y1="832.9" x2="654.46" y2="1407.41"/>
                  <line class="cls-3" x1="579.24" y1="1407.41" x2="579.24" y2="832.9"/>
                  <line class="cls-3" x1="602.93" y1="832.9" x2="602.93" y2="1407.41"/>
                  <line class="cls-3" x1="527.7" y1="1503.11" x2="527.7" y2="820"/>
                  <line class="cls-3" x1="551.4" y1="832.9" x2="551.4" y2="1407.41"/>
                  <line class="cls-3" x1="476.17" y1="1557.2" x2="476.17" y2="832.9"/>
                  <line class="cls-3" x1="499.86" y1="789.76" x2="499.86" y2="1431.85"/>
                  <line class="cls-3" x1="424.64" y1="1407.41" x2="424.64" y2="832.9"/>
                  <line class="cls-3" x1="448.33" y1="832.9" x2="448.33" y2="1407.41"/>
                </g>
              </g>
            </g>
          </g>
          <g>
            <g>
              <g>
                <polygon class="cls-19" points="1271.83 648.55 1271.83 654.25 1258.9 642.14 1245.97 654.25 1245.97 648.55 1255.85 639.29 1255.84 639.28 1258.9 636.43 1261.96 639.28 1261.94 639.29 1271.83 648.55"/>
                <g>
                  <polygon class="cls-19" points="1271.83 617.64 1271.83 623.34 1258.9 611.23 1245.97 623.34 1245.97 617.64 1255.85 608.38 1255.84 608.37 1258.9 605.52 1261.96 608.37 1261.94 608.38 1271.83 617.64"/>
                  <polygon class="cls-19" points="1271.83 638.05 1271.83 643.76 1258.9 631.65 1245.97 643.76 1245.97 638.05 1258.9 625.94 1271.83 638.05"/>
                </g>
              </g>
              <g>
                <g>
                  <rect class="cls-17" x="1308.06" y="630.54" width="15.65" height="20.56" transform="translate(2631.77 1281.64) rotate(180)"/>
                  <rect class="cls-25" x="1308.06" y="598.7" width="15.65" height="20.56" transform="translate(2631.77 1217.96) rotate(180)"/>
                  <rect class="cls-12" x="1308.06" y="566.86" width="15.65" height="20.56" transform="translate(2631.77 1154.27) rotate(180)"/>
                  <rect class="cls-21" x="1308.06" y="535.01" width="15.65" height="20.56" transform="translate(2631.77 1090.59) rotate(180)"/>
                  <rect class="cls-11" x="1308.06" y="503.17" width="15.65" height="20.56" transform="translate(2631.77 1026.9) rotate(180)"/>
                  <rect class="cls-29" x="1308.06" y="471.33" width="15.65" height="20.56" transform="translate(2631.77 963.21) rotate(180)"/>
                </g>
                <g>
                  <polyline class="cls-4" points="1387.73 450.28 1387.73 674.82 1130.07 674.82 1130.07 700.18 1361.24 700.18 1361.24 422.66"/>
                  <ellipse class="cls-17" cx="1361.12" cy="422.66" rx="6.8" ry="6.37"/>
                  <ellipse class="cls-17" cx="1387.73" cy="450.2" rx="6.8" ry="6.37"/>
                </g>
              </g>
              <polygon class="cls-19" points="1260.34 700.18 1249.95 690.45 1131.79 690.45 1131.79 700.18 1260.34 700.18"/>
              <polygon class="cls-19" points="1387.73 658.89 1398.12 649.15 1398.12 538.51 1387.73 538.51 1387.73 658.89"/>
            </g>
            <g>
              <rect class="cls-17" x="1145.22" y="541.01" width="97.38" height="5.76"/>
              <rect class="cls-12" x="1182.5" y="524.06" width="60.09" height="5.76"/>
              <rect class="cls-21" x="1165.47" y="507.1" width="77.12" height="5.76"/>
              <rect class="cls-11" x="1175.13" y="490.14" width="67.46" height="5.76"/>
              <rect class="cls-29" x="1200.3" y="473.19" width="42.3" height="5.76"/>
            </g>
          </g>
          <g>
            <g>
              <g>
                <rect class="cls-19" x="222.97" y="132.69" width="12.34" height="7.41" transform="translate(365.54 -92.74) rotate(90)"/>
                <rect class="cls-22" x="233.87" y="132.69" width="12.34" height="7.41" transform="translate(376.44 -103.65) rotate(90)"/>
                <rect class="cls-40" x="244.78" y="132.69" width="12.34" height="7.41" transform="translate(387.34 -114.55) rotate(90)"/>
                <rect class="cls-38" x="255.68" y="132.69" width="12.34" height="7.41" transform="translate(398.25 -125.45) rotate(90)"/>
                <rect class="cls-14" x="266.58" y="132.69" width="12.34" height="7.41" transform="translate(409.15 -136.36) rotate(90)"/>
              </g>
              <g>
                <rect class="cls-19" x="222.97" y="157.68" width="12.34" height="7.41" transform="translate(390.52 -67.76) rotate(90)"/>
                <rect class="cls-22" x="233.87" y="157.68" width="12.34" height="7.41" transform="translate(401.43 -78.66) rotate(90)"/>
                <rect class="cls-40" x="244.78" y="157.68" width="12.34" height="7.41" transform="translate(412.33 -89.56) rotate(90)"/>
                <rect class="cls-38" x="255.68" y="157.68" width="12.34" height="7.41" transform="translate(423.23 -100.47) rotate(90)"/>
                <rect class="cls-14" x="266.58" y="157.68" width="12.34" height="7.41" transform="translate(434.14 -111.37) rotate(90)"/>
                <rect class="cls-42" x="277.49" y="157.68" width="12.34" height="7.41" transform="translate(445.04 -122.27) rotate(90)"/>
                <rect class="cls-24" x="288.39" y="157.68" width="12.34" height="7.41" transform="translate(455.94 -133.18) rotate(90)"/>
              </g>
              <g>
                <rect class="cls-19" x="222.97" y="182.67" width="12.34" height="7.41" transform="translate(415.51 -42.77) rotate(90)"/>
                <rect class="cls-22" x="233.87" y="182.67" width="12.34" height="7.41" transform="translate(426.41 -53.68) rotate(90)"/>
                <rect class="cls-40" x="244.78" y="182.67" width="12.34" height="7.41" transform="translate(437.32 -64.58) rotate(90)"/>
                <rect class="cls-38" x="255.68" y="182.67" width="12.34" height="7.41" transform="translate(448.22 -75.48) rotate(90)"/>
                <rect class="cls-14" x="266.58" y="182.67" width="12.34" height="7.41" transform="translate(459.12 -86.39) rotate(90)"/>
                <rect class="cls-42" x="277.49" y="182.67" width="12.34" height="7.41" transform="translate(470.03 -97.29) rotate(90)"/>
                <rect class="cls-24" x="288.39" y="182.67" width="12.34" height="7.41" transform="translate(480.93 -108.19) rotate(90)"/>
                <rect class="cls-28" x="299.29" y="182.67" width="12.34" height="7.41" transform="translate(491.83 -119.1) rotate(90)"/>
              </g>
              <g>
                <rect class="cls-19" x="222.97" y="207.65" width="12.34" height="7.41" transform="translate(440.49 -17.79) rotate(90)"/>
                <rect class="cls-22" x="233.87" y="207.65" width="12.34" height="7.41" transform="translate(451.4 -28.69) rotate(90)"/>
                <rect class="cls-40" x="244.78" y="207.65" width="12.34" height="7.41" transform="translate(462.3 -39.59) rotate(90)"/>
                <rect class="cls-38" x="255.68" y="207.65" width="12.34" height="7.41" transform="translate(473.2 -50.5) rotate(90)"/>
                <rect class="cls-14" x="266.58" y="207.65" width="12.34" height="7.41" transform="translate(484.11 -61.4) rotate(90)"/>
              </g>
              <g>
                <rect class="cls-19" x="222.97" y="232.64" width="12.34" height="7.41" transform="translate(465.48 7.2) rotate(90)"/>
                <rect class="cls-22" x="233.87" y="232.64" width="12.34" height="7.41" transform="translate(476.38 -3.7) rotate(90)"/>
                <rect class="cls-40" x="244.78" y="232.64" width="12.34" height="7.41" transform="translate(487.29 -14.61) rotate(90)"/>
                <rect class="cls-38" x="255.68" y="232.64" width="12.34" height="7.41" transform="translate(498.19 -25.51) rotate(90)"/>
                <rect class="cls-14" x="266.58" y="232.64" width="12.34" height="7.41" transform="translate(509.09 -36.41) rotate(90)"/>
                <rect class="cls-42" x="277.49" y="232.64" width="12.34" height="7.41" transform="translate(520 -47.32) rotate(90)"/>
                <rect class="cls-24" x="288.39" y="232.64" width="12.34" height="7.41" transform="translate(530.9 -58.22) rotate(90)"/>
                <rect class="cls-28" x="299.29" y="232.64" width="12.34" height="7.41" transform="translate(541.8 -69.12) rotate(90)"/>
              </g>
            </g>
            <g>
              <g>
                <polygon class="cls-19" points="176.21 138.77 176.21 133.07 189.14 145.18 202.07 133.07 202.07 138.77 192.18 148.03 192.2 148.04 189.14 150.89 186.08 148.04 186.1 148.03 176.21 138.77"/>
                <polygon class="cls-19" points="176.21 149.27 176.21 143.56 189.14 155.67 202.07 143.56 202.07 149.27 189.14 161.38 176.21 149.27"/>
              </g>
              <g>
                <g>
                  <rect class="cls-17" x="124.32" y="136.22" width="15.65" height="20.56"/>
                  <rect class="cls-25" x="124.32" y="168.06" width="15.65" height="20.56"/>
                  <rect class="cls-12" x="124.32" y="199.9" width="15.65" height="20.56"/>
                  <rect class="cls-21" x="124.32" y="231.75" width="15.65" height="20.56"/>
                  <rect class="cls-11" x="124.32" y="263.59" width="15.65" height="20.56"/>
                  <rect class="cls-29" x="124.32" y="295.43" width="15.65" height="20.56"/>
                </g>
                <g>
                  <polyline class="cls-4" points="60.31 337.03 60.31 112.5 317.97 112.5 317.97 87.13 86.8 87.13 86.8 364.65"/>
                  <ellipse class="cls-17" cx="86.92" cy="364.65" rx="6.8" ry="6.37"/>
                  <ellipse class="cls-17" cx="60.31" cy="337.12" rx="6.8" ry="6.37"/>
                </g>
              </g>
              <polygon class="cls-19" points="187.69 87.13 198.09 96.87 316.25 96.87 316.25 87.13 187.69 87.13"/>
              <polygon class="cls-19" points="60.31 128.43 49.91 138.16 49.91 248.81 60.31 248.81 60.31 128.43"/>
            </g>
          </g>
        </g>
      </g>
    </g>
  </g>
</svg>