<?xml version="1.0" encoding="UTF-8"?>
<svg xmlns="http://www.w3.org/2000/svg" xmlns:xlink="http://www.w3.org/1999/xlink" viewBox="0 0 400 400">
  <defs>
    <style>
      .cls-1 {
        stroke: url(#linear-gradient-13);
        stroke-width: 15.67px;
      }

      .cls-1, .cls-2, .cls-3, .cls-4, .cls-5, .cls-6, .cls-7, .cls-8, .cls-9, .cls-10, .cls-11, .cls-12, .cls-13, .cls-14, .cls-15, .cls-16, .cls-17 {
        fill: none;
      }

      .cls-1, .cls-2, .cls-3, .cls-4, .cls-5, .cls-6, .cls-7, .cls-8, .cls-9, .cls-10, .cls-12, .cls-13, .cls-14, .cls-15, .cls-16, .cls-17 {
        stroke-miterlimit: 10;
      }

      .cls-2 {
        stroke: url(#linear-gradient-14);
        stroke-width: 5.92px;
      }

      .cls-18 {
        fill: url(#linear-gradient-12);
      }

      .cls-18, .cls-19, .cls-20, .cls-21, .cls-22, .cls-11, .cls-23, .cls-24, .cls-25, .cls-26, .cls-27 {
        stroke-width: 0px;
      }

      .cls-3 {
        stroke-dasharray: 0 0 2.88 5.77;
      }

      .cls-3, .cls-5, .cls-6, .cls-9, .cls-13, .cls-14, .cls-15 {
        stroke: #00263c;
      }

      .cls-3, .cls-6, .cls-14 {
        stroke-width: 2.96px;
      }

      .cls-19 {
        fill: url(#linear-gradient);
      }

      .cls-20 {
        fill: url(#linear-gradient-16);
      }

      .cls-20, .cls-4, .cls-28, .cls-25, .cls-16, .cls-27, .cls-29 {
        mix-blend-mode: screen;
      }

      .cls-20, .cls-29 {
        opacity: .5;
      }

      .cls-4 {
        stroke: url(#linear-gradient-11);
      }

      .cls-4, .cls-16 {
        stroke-width: 22.2px;
      }

      .cls-5 {
        stroke-dasharray: 0 0 2.96 2.96;
      }

      .cls-5, .cls-9 {
        stroke-width: 10.36px;
      }

      .cls-21 {
        fill: url(#linear-gradient-6);
      }

      .cls-30 {
        isolation: isolate;
      }

      .cls-7 {
        stroke: url(#linear-gradient-15);
        stroke-width: 4.44px;
      }

      .cls-8 {
        stroke: #023e73;
      }

      .cls-10 {
        stroke: url(#linear-gradient-3);
        stroke-width: 4.15px;
      }

      .cls-22 {
        fill: url(#linear-gradient-5);
      }

      .cls-23 {
        fill: url(#linear-gradient-8);
      }

      .cls-23, .cls-26 {
        opacity: .2;
      }

      .cls-31 {
        opacity: .4;
      }

      .cls-12 {
        stroke: url(#linear-gradient-2);
        stroke-width: 1.48px;
      }

      .cls-13 {
        stroke-width: 4.17px;
      }

      .cls-14 {
        stroke-dasharray: 0 0 2.95 8.85;
      }

      .cls-24 {
        fill: url(#linear-gradient-7);
      }

      .cls-15 {
        stroke-dasharray: 0 0 4.49 11.23;
        stroke-width: 18.76px;
      }

      .cls-32 {
        clip-path: url(#clippath);
      }

      .cls-25 {
        fill: url(#linear-gradient-9);
      }

      .cls-25, .cls-16 {
        opacity: .8;
      }

      .cls-16 {
        stroke: url(#linear-gradient-10);
      }

      .cls-26 {
        fill: url(#linear-gradient-18);
      }

      .cls-27 {
        fill: url(#linear-gradient-17);
      }

      .cls-17 {
        stroke: url(#linear-gradient-4);
        stroke-width: 2.08px;
      }
    </style>
    <linearGradient id="linear-gradient" x1="-17.89" y1="-23.78" x2="326.16" y2="329.57" gradientUnits="userSpaceOnUse">
      <stop offset=".04" stop-color="#02384d"/>
      <stop offset="1" stop-color="#011826"/>
    </linearGradient>
    <clipPath id="clippath">
      <rect class="cls-11" width="400" height="400"/>
    </clipPath>
    <linearGradient id="linear-gradient-2" x1="264.92" y1="344.62" x2="425.45" y2="344.62" gradientUnits="userSpaceOnUse">
      <stop offset="0" stop-color="#062c42"/>
      <stop offset="1" stop-color="#00263c"/>
    </linearGradient>
    <linearGradient id="linear-gradient-3" x1="212.2" y1="344.62" x2="478.17" y2="344.62" gradientTransform="translate(344.78 -143.15) rotate(45)" xlink:href="#linear-gradient-2"/>
    <linearGradient id="linear-gradient-4" x1="162.74" y1="344.62" x2="527.64" y2="344.62" gradientTransform="translate(344.78 -143.15) rotate(45)" xlink:href="#linear-gradient-2"/>
    <linearGradient id="linear-gradient-5" x1="229.82" y1="344.62" x2="460.55" y2="344.62" xlink:href="#linear-gradient-2"/>
    <linearGradient id="linear-gradient-6" x1="414.49" y1="275.31" x2="273.5" y2="416.3" xlink:href="#linear-gradient-2"/>
    <linearGradient id="linear-gradient-7" x1="414.49" y1="275.31" x2="273.5" y2="416.3" xlink:href="#linear-gradient-2"/>
    <linearGradient id="linear-gradient-8" x1="105.79" y1="336.04" x2="186.54" y2="336.04" xlink:href="#linear-gradient-2"/>
    <linearGradient id="linear-gradient-9" x1="257.02" y1="146.93" x2="395.03" y2="146.93" xlink:href="#linear-gradient-2"/>
    <linearGradient id="linear-gradient-10" x1="152.66" y1="344.63" x2="537.71" y2="344.63" xlink:href="#linear-gradient-2"/>
    <linearGradient id="linear-gradient-11" x1="342.89" y1="344.61" x2="505.37" y2="344.61" xlink:href="#linear-gradient-2"/>
    <linearGradient id="linear-gradient-12" x1="1693.31" y1="-538.17" x2="1847.27" y2="-538.17" gradientTransform="translate(-964.73 -967.75) rotate(67.01)" xlink:href="#linear-gradient-2"/>
    <linearGradient id="linear-gradient-13" x1="345.19" y1="280.89" x2="345.19" y2="408.34" gradientTransform="translate(158.15 -105.86) rotate(22.5)" xlink:href="#linear-gradient-2"/>
    <linearGradient id="linear-gradient-14" x1="315.75" y1="395.59" x2="374.62" y2="293.64" gradientTransform="translate(158.15 -105.86) rotate(22.5)" xlink:href="#linear-gradient-2"/>
    <linearGradient id="linear-gradient-15" x1="332.48" y1="366.62" x2="357.89" y2="322.61" xlink:href="#linear-gradient-2"/>
    <linearGradient id="linear-gradient-16" x1="135.59" y1="260.33" x2="231.93" y2="260.33" xlink:href="#linear-gradient-2"/>
    <linearGradient id="linear-gradient-17" x1="398.32" y1="193.47" x2="498.37" y2="193.47" xlink:href="#linear-gradient-2"/>
    <linearGradient id="linear-gradient-18" x1="197.35" y1="190.43" x2="296.67" y2="190.43" xlink:href="#linear-gradient-2"/>
  </defs>
  <g class="cls-30">
    <g id="Layer_2" data-name="Layer 2">
      <g id="OBJECTS">
        <g>
          <rect class="cls-19" width="400" height="400"/>
          <rect class="cls-11" width="400" height="400"/>
          <g class="cls-32">
            <g>
              <g class="cls-31">
                <g>
                  <line class="cls-8" x1="2.38" y1="-141.06" x2="2.38" y2="262.2"/>
                  <line class="cls-8" x1="24.99" y1="-141.06" x2="24.99" y2="262.2"/>
                  <line class="cls-8" x1="14.6" y1="262.2" x2="14.6" y2="-141.06"/>
                  <line class="cls-8" x1="47.6" y1="-141.06" x2="47.6" y2="262.2"/>
                  <line class="cls-8" x1="37.2" y1="262.2" x2="37.2" y2="-141.06"/>
                  <line class="cls-8" x1="70.21" y1="-141.06" x2="70.21" y2="262.2"/>
                  <line class="cls-8" x1="59.81" y1="262.2" x2="59.81" y2="-141.06"/>
                  <line class="cls-8" x1="92.81" y1="-141.06" x2="92.81" y2="262.2"/>
                  <line class="cls-8" x1="82.42" y1="262.2" x2="82.42" y2="-141.06"/>
                  <line class="cls-8" x1="115.42" y1="-141.06" x2="115.42" y2="334.32"/>
                  <line class="cls-8" x1="105.03" y1="262.2" x2="105.03" y2="-141.06"/>
                  <line class="cls-8" x1="138.03" y1="-153.57" x2="138.03" y2="305.42"/>
                  <line class="cls-8" x1="127.64" y1="281.47" x2="127.64" y2="-141.06"/>
                  <line class="cls-8" x1="160.64" y1="-141.06" x2="160.64" y2="262.2"/>
                  <line class="cls-8" x1="150.24" y1="262.2" x2="150.24" y2="-171.35"/>
                </g>
                <g>
                  <line class="cls-8" x1="-103.48" y1="239.09" x2="195.98" y2="239.09"/>
                  <line class="cls-8" x1="165.67" y1="254.66" x2="-103.48" y2="254.66"/>
                  <line class="cls-8" x1="-166.37" y1="205.21" x2="165.67" y2="205.21"/>
                  <line class="cls-8" x1="165.67" y1="220.79" x2="-116.34" y2="220.79"/>
                  <line class="cls-8" x1="-103.48" y1="171.34" x2="185.88" y2="171.34"/>
                  <line class="cls-8" x1="194.52" y1="186.91" x2="-103.48" y2="186.91"/>
                  <line class="cls-8" x1="-103.48" y1="137.47" x2="165.67" y2="137.47"/>
                  <line class="cls-8" x1="165.67" y1="153.04" x2="-103.48" y2="153.04"/>
                  <line class="cls-8" x1="-103.48" y1="103.59" x2="165.67" y2="103.59"/>
                  <line class="cls-8" x1="165.67" y1="119.17" x2="-103.48" y2="119.17"/>
                  <line class="cls-8" x1="-103.48" y1="69.72" x2="165.67" y2="69.72"/>
                  <line class="cls-8" x1="165.67" y1="85.29" x2="-103.48" y2="85.29"/>
                  <line class="cls-8" x1="-103.48" y1="35.84" x2="165.67" y2="35.84"/>
                  <line class="cls-8" x1="165.67" y1="51.42" x2="-103.48" y2="51.42"/>
                  <line class="cls-8" x1="-103.48" y1="1.97" x2="165.67" y2="1.97"/>
                  <line class="cls-8" x1="165.67" y1="17.54" x2="-103.48" y2="17.54"/>
                </g>
              </g>
              <g class="cls-31">
                <g>
                  <line class="cls-8" x1="363.13" y1="-214.04" x2="363.13" y2="41.3"/>
                  <line class="cls-8" x1="356.55" y1="41.3" x2="356.55" y2="-214.04"/>
                  <line class="cls-8" x1="377.44" y1="-250.98" x2="377.44" y2="41.3"/>
                  <line class="cls-8" x1="370.86" y1="41.3" x2="370.86" y2="-214.04"/>
                  <line class="cls-8" x1="391.76" y1="-214.04" x2="391.76" y2="72.36"/>
                  <line class="cls-8" x1="385.18" y1="53.5" x2="385.18" y2="-214.04"/>
                  <line class="cls-8" x1="399.49" y1="41.3" x2="399.49" y2="-214.04"/>
                </g>
                <g>
                  <line class="cls-8" x1="353.36" y1="26.66" x2="542.97" y2="26.66"/>
                  <line class="cls-8" x1="523.78" y1="36.53" x2="353.36" y2="36.53"/>
                  <line class="cls-8" x1="313.54" y1="5.22" x2="523.78" y2="5.22"/>
                  <line class="cls-8" x1="523.78" y1="15.08" x2="345.22" y2="15.08"/>
                </g>
              </g>
            </g>
            <g>
              <circle class="cls-12" cx="345.19" cy="344.62" r="79.52"/>
              <circle class="cls-10" cx="345.19" cy="344.62" r="130.91" transform="translate(-142.58 345.02) rotate(-45)"/>
              <circle class="cls-17" cx="345.19" cy="344.62" r="181.41" transform="translate(-142.58 345.02) rotate(-45)"/>
              <path class="cls-22" d="M345.19,459.98c-63.61,0-115.36-51.75-115.36-115.36s51.75-115.36,115.36-115.36,115.36,51.75,115.36,115.36-51.75,115.36-115.36,115.36ZM345.19,248.21c-53.16,0-96.41,43.25-96.41,96.4s43.25,96.4,96.41,96.4,96.4-43.25,96.4-96.4-43.25-96.4-96.4-96.4Z"/>
              <path class="cls-21" d="M345.19,451.71c-59.05,0-107.09-48.04-107.09-107.09s48.04-107.09,107.09-107.09,107.09,48.04,107.09,107.09-48.04,107.09-107.09,107.09ZM345.19,248.21c-53.16,0-96.41,43.25-96.41,96.4s43.25,96.4,96.41,96.4,96.4-43.25,96.4-96.4-43.25-96.4-96.4-96.4Z"/>
              <path class="cls-24" d="M345.19,451.71c-59.05,0-107.09-48.04-107.09-107.09s48.04-107.09,107.09-107.09,107.09,48.04,107.09,107.09-48.04,107.09-107.09,107.09ZM345.19,248.21c-53.16,0-96.41,43.25-96.41,96.4s43.25,96.4,96.41,96.4,96.4-43.25,96.4-96.4-43.25-96.4-96.4-96.4Z"/>
              <circle class="cls-15" cx="345.19" cy="344.62" r="80.04" transform="translate(-63.58 610.74) rotate(-78.02)"/>
              <g>
                <path class="cls-9" d="M319.84,369.96c-.35-.35-.69-.71-1.03-1.07"/>
                <path class="cls-5" d="M316.9,366.63c-10.97-14.06-9.99-34.43,2.94-47.37,13.29-13.29,34.43-13.96,48.51-2.01"/>
                <path class="cls-9" d="M369.46,318.24c.36.33.72.67,1.07,1.03"/>
              </g>
              <g>
                <path class="cls-6" d="M370.53,319.27c.35.35.69.71,1.03,1.07"/>
                <path class="cls-3" d="M375.12,324.88c9.2,13.92,7.67,32.83-4.58,45.09-12.96,12.96-33.36,13.92-47.42,2.9"/>
                <path class="cls-6" d="M320.91,370.99c-.36-.33-.72-.68-1.07-1.03"/>
              </g>
              <circle class="cls-14" cx="345.19" cy="344.62" r="122.07" transform="translate(-142.58 345.02) rotate(-45)"/>
              <circle class="cls-13" cx="345.19" cy="344.62" r="149.09"/>
              <g class="cls-28">
                <path class="cls-23" d="M113.55,405.25c-4.85-18.58-7.45-37.83-7.73-57.2-.02-1.18-.03-2.34-.03-3.49,0-26.59,4.35-52.74,12.93-77.72l67.82,23.29c-6,17.47-9.04,35.78-9.04,54.43,0,.82,0,1.65.02,2.47.2,13.6,2.02,27.1,5.42,40.12l-69.38,18.1Z"/>
                <path class="cls-25" d="M283.43,188.65l-26.41-66.66c26.99-10.69,55.5-16.33,84.74-16.74,18.04-.24,35.86,1.49,53.26,5.18l-14.87,70.15c-12.2-2.58-24.78-3.8-37.38-3.62-20.51.29-40.47,4.23-59.34,11.71Z"/>
              </g>
              <path class="cls-16" d="M526.59,342.02c1.43,100.19-78.62,182.57-178.81,184-100.19,1.43-182.57-78.62-184-178.81-1.43-100.19,78.62-182.57,178.81-184"/>
              <path class="cls-4" d="M343.05,195.54c82.33-1.18,150.03,64.61,151.2,146.94,1.18,82.33-64.61,150.03-146.94,151.2"/>
              <g class="cls-29">
                <path class="cls-18" d="M169.38,418.46c-3.35-7.9-6.22-16.07-8.54-24.28l31.5-8.87c2.16,7.67,4.89,15.27,8.14,22.64,15.67,35.51,42.09,63.74,76.41,81.66l-15.15,29.01c-40.39-21.08-72.78-55.69-91.21-97.45-.39-.9-.79-1.8-1.17-2.7Z"/>
              </g>
              <circle class="cls-1" cx="345.19" cy="344.62" r="55.89" transform="translate(-105.6 158.33) rotate(-22.5)"/>
              <circle class="cls-2" cx="345.19" cy="344.62" r="55.89" transform="translate(-105.6 158.33) rotate(-22.5)"/>
              <circle class="cls-7" cx="345.19" cy="344.62" r="23.19"/>
              <g class="cls-29">
                <path class="cls-20" d="M206.42,308.7l-70.83-18.27c7.38-28.63,20.36-55.03,38.56-78.47l57.77,44.86c-12.05,15.51-20.63,32.97-25.51,51.88Z"/>
                <path class="cls-27" d="M446.6,243.38c-13.89-13.91-30.14-24.65-48.29-31.9l27.13-67.93c27.43,10.96,51.97,27.16,72.92,48.15l-51.77,51.67Z"/>
                <path class="cls-26" d="M247.32,239.95l-49.97-53.42c21.66-20.27,46.75-35.62,74.55-45.62l24.77,68.83c-18.39,6.61-34.99,16.78-49.35,30.21Z"/>
              </g>
            </g>
          </g>
        </g>
      </g>
    </g>
  </g>
</svg>