<?xml version="1.0" encoding="UTF-8"?>
<svg xmlns="http://www.w3.org/2000/svg" xmlns:xlink="http://www.w3.org/1999/xlink" viewBox="0 0 1348.47 900">
  <defs>
    <style>
      .cls-1, .cls-2, .cls-3, .cls-4, .cls-5, .cls-6, .cls-7, .cls-8, .cls-9, .cls-10 {
        fill: none;
      }

      .cls-1, .cls-2, .cls-3, .cls-4, .cls-5, .cls-7, .cls-8, .cls-9, .cls-10 {
        stroke-miterlimit: 10;
      }

      .cls-1, .cls-2, .cls-3, .cls-9, .cls-10 {
        stroke: #d0e9f2;
      }

      .cls-1, .cls-2, .cls-9, .cls-10 {
        stroke-width: .5px;
      }

      .cls-11 {
        opacity: .22;
      }

      .cls-11, .cls-12, .cls-13, .cls-14, .cls-15, .cls-16, .cls-17, .cls-18, .cls-19, .cls-20, .cls-21, .cls-22, .cls-23, .cls-24, .cls-25, .cls-26, .cls-27, .cls-6, .cls-28, .cls-29, .cls-30, .cls-31, .cls-32, .cls-33, .cls-34, .cls-35, .cls-36, .cls-37, .cls-38, .cls-39, .cls-40, .cls-41, .cls-42, .cls-43 {
        stroke-width: 0px;
      }

      .cls-11, .cls-12, .cls-17, .cls-21, .cls-25, .cls-29 {
        fill: #134570;
      }

      .cls-12, .cls-44 {
        opacity: .4;
      }

      .cls-13 {
        fill: url(#radial-gradient-16);
      }

      .cls-14 {
        opacity: .53;
      }

      .cls-14, .cls-19, .cls-22, .cls-24, .cls-28, .cls-38, .cls-40, .cls-42 {
        fill: #2389af;
      }

      .cls-2 {
        stroke-dasharray: 0 0 4 4;
      }

      .cls-15 {
        fill: url(#linear-gradient);
      }

      .cls-16 {
        fill: #2d83a6;
      }

      .cls-18 {
        fill: url(#radial-gradient-7);
      }

      .cls-18, .cls-30, .cls-31, .cls-32, .cls-33, .cls-34, .cls-36 {
        mix-blend-mode: color-dodge;
      }

      .cls-45 {
        opacity: .5;
      }

      .cls-3, .cls-8 {
        stroke-width: .75px;
      }

      .cls-20 {
        fill: #d0e9f2;
      }

      .cls-21 {
        opacity: .34;
      }

      .cls-22 {
        opacity: .82;
      }

      .cls-23 {
        fill: url(#radial-gradient-8);
      }

      .cls-46 {
        isolation: isolate;
      }

      .cls-24 {
        opacity: .32;
      }

      .cls-4 {
        stroke: #023e73;
      }

      .cls-25 {
        opacity: .64;
      }

      .cls-26 {
        fill: url(#radial-gradient-13);
      }

      .cls-5 {
        stroke: #134570;
        stroke-width: 2px;
      }

      .cls-27 {
        fill: url(#radial-gradient-12);
      }

      .cls-28 {
        opacity: .24;
      }

      .cls-29 {
        opacity: .15;
      }

      .cls-30 {
        fill: url(#radial-gradient);
      }

      .cls-31 {
        fill: url(#radial-gradient-3);
      }

      .cls-32 {
        fill: url(#radial-gradient-5);
      }

      .cls-47 {
        clip-path: url(#clippath);
      }

      .cls-7, .cls-8 {
        stroke: #2d83a6;
      }

      .cls-33 {
        fill: url(#radial-gradient-4);
      }

      .cls-34 {
        fill: url(#radial-gradient-2);
      }

      .cls-35 {
        fill: url(#radial-gradient-14);
      }

      .cls-36 {
        fill: url(#radial-gradient-6);
      }

      .cls-37 {
        fill: url(#radial-gradient-10);
      }

      .cls-38 {
        opacity: .62;
      }

      .cls-39 {
        fill: url(#radial-gradient-15);
      }

      .cls-40 {
        opacity: .72;
      }

      .cls-41 {
        fill: url(#radial-gradient-9);
      }

      .cls-42 {
        opacity: .41;
      }

      .cls-43 {
        fill: url(#radial-gradient-11);
      }

      .cls-9 {
        stroke-dasharray: 0 0 4.14 4.14;
      }

      .cls-10 {
        stroke-dasharray: 0 0 4.03 4.03;
      }
    </style>
    <linearGradient id="linear-gradient" x1="63.46" y1="-177.28" x2="1027.87" y2="813.19" gradientUnits="userSpaceOnUse">
      <stop offset=".04" stop-color="#023859"/>
      <stop offset="1" stop-color="#011826"/>
    </linearGradient>
    <radialGradient id="radial-gradient" cx="259.92" cy="1454.24" fx="259.92" fy="1454.24" r="60.6" gradientTransform="translate(-270.63 480.3) scale(4.66 .1)" gradientUnits="userSpaceOnUse">
      <stop offset=".07" stop-color="#d0e9f2"/>
      <stop offset=".92" stop-color="#000"/>
    </radialGradient>
    <radialGradient id="radial-gradient-2" cx="272.83" cy="-2106.43" fx="272.83" fy="-2106.43" r="60.6" xlink:href="#radial-gradient"/>
    <radialGradient id="radial-gradient-3" cx="221.14" cy="-1235.09" fx="221.14" fy="-1235.09" r="60.6" xlink:href="#radial-gradient"/>
    <radialGradient id="radial-gradient-4" cx="138.15" cy="-3468.9" fx="138.15" fy="-3468.9" r="37.99" xlink:href="#radial-gradient"/>
    <radialGradient id="radial-gradient-5" cx="176.14" cy="3151.9" fx="176.14" fy="3151.9" r="37.99" xlink:href="#radial-gradient"/>
    <radialGradient id="radial-gradient-6" cx="-713.38" cy="-817.42" fx="-713.38" fy="-817.42" r="60.61" gradientTransform="translate(130.09 425.07) rotate(-180) scale(1.31 .03)" xlink:href="#radial-gradient"/>
    <radialGradient id="radial-gradient-7" cx="276.26" cy="-581.45" fx="276.26" fy="-581.45" r="60.6" xlink:href="#radial-gradient"/>
    <radialGradient id="radial-gradient-8" cx="1129.1" cy="369.34" fx="1129.1" fy="369.34" r="39.73" gradientTransform="translate(1312.22 -804.43) rotate(80.75)" gradientUnits="userSpaceOnUse">
      <stop offset="0" stop-color="#d0e9f2"/>
      <stop offset=".01" stop-color="rgba(200, 225, 234, .96)" stop-opacity=".96"/>
      <stop offset=".1" stop-color="rgba(154, 178, 189, .74)" stop-opacity=".74"/>
      <stop offset=".19" stop-color="rgba(113, 137, 148, .54)" stop-opacity=".54"/>
      <stop offset=".28" stop-color="rgba(78, 102, 114, .38)" stop-opacity=".38"/>
      <stop offset=".37" stop-color="rgba(50, 74, 86, .24)" stop-opacity=".24"/>
      <stop offset=".47" stop-color="rgba(28, 52, 65, .13)" stop-opacity=".13"/>
      <stop offset=".56" stop-color="rgba(13, 36, 50, .06)" stop-opacity=".06"/>
      <stop offset=".67" stop-color="rgba(3, 27, 40, .01)" stop-opacity=".01"/>
      <stop offset=".78" stop-color="#011826" stop-opacity="0"/>
    </radialGradient>
    <radialGradient id="radial-gradient-9" cx="717.66" cy="407.08" fx="717.66" fy="407.08" r="44.12" gradientTransform="matrix(1,0,0,1,0,0)" xlink:href="#radial-gradient-8"/>
    <radialGradient id="radial-gradient-10" cx="1165.39" cy="267.98" fx="1165.39" fy="267.98" r="33.39" gradientTransform="matrix(1,0,0,1,0,0)" xlink:href="#radial-gradient-8"/>
    <radialGradient id="radial-gradient-11" cx="1189.9" cy="619.98" fx="1189.9" fy="619.98" r="61.16" gradientTransform="translate(1517.9 -681.04) rotate(76.63)" xlink:href="#radial-gradient-8"/>
    <radialGradient id="radial-gradient-12" cx="740.54" cy="626.98" fx="740.54" fy="626.98" r="33.39" gradientTransform="translate(1237.63 -206.34) rotate(80.56)" xlink:href="#radial-gradient-8"/>
    <radialGradient id="radial-gradient-13" cx="768.47" cy="467.72" fx="768.47" fy="467.72" r="58.75" gradientTransform="translate(1048.37 -387.25) rotate(76.8)" xlink:href="#radial-gradient-8"/>
    <radialGradient id="radial-gradient-14" cx="1135.51" cy="486.93" fx="1135.51" fy="486.93" r="58.75" gradientTransform="translate(1315.86 -735.35) rotate(75.18)" xlink:href="#radial-gradient-8"/>
    <radialGradient id="radial-gradient-15" cx="1236.01" cy="358.03" fx="1236.01" fy="358.03" r="30.45" gradientTransform="translate(1391.92 -919.32) rotate(80.8)" xlink:href="#radial-gradient-8"/>
    <radialGradient id="radial-gradient-16" cx="666.1" cy="480.19" fx="666.1" fy="480.19" r="30.45" gradientTransform="translate(589.73 -337.39) rotate(48.88)" xlink:href="#radial-gradient-8"/>
    <clipPath id="clippath">
      <rect class="cls-6" width="1348.47" height="900"/>
    </clipPath>
  </defs>
  <g class="cls-46">
    <g id="Layer_2" data-name="Layer 2">
      <g id="OBJECTS">
        <g>
          <rect class="cls-15" width="1348.47" height="900"/>
          <g>
            <path class="cls-30" d="M1224.43,626.89c0,3.37-126.54,6.11-282.64,6.11s-282.64-2.74-282.64-6.11,126.54-6.11,282.64-6.11,282.64,2.74,282.64,6.11Z"/>
            <ellipse class="cls-34" cx="1001.98" cy="267.98" rx="282.64" ry="6.11"/>
            <path class="cls-31" d="M1043.54,355.81c0,3.37-126.54,6.11-282.64,6.11s-282.64-2.74-282.64-6.11,126.54-6.11,282.64-6.11,282.64,2.74,282.64,6.11Z"/>
            <ellipse class="cls-33" cx="373.77" cy="130.64" rx="177.19" ry="3.83"/>
            <path class="cls-32" d="M728.16,798.02c0,2.12-79.33,3.83-177.19,3.83s-177.19-1.71-177.19-3.83,79.33-3.83,177.19-3.83,177.19,1.71,177.19,3.83Z"/>
            <ellipse class="cls-36" cx="1061.19" cy="448.12" rx="79.09" ry="1.71"/>
            <path class="cls-18" d="M1300.62,421.69c0,3.37-126.54,6.11-282.64,6.11s-282.64-2.74-282.64-6.11,126.54-6.11,282.64-6.11,282.64,2.74,282.64,6.11Z"/>
            <g class="cls-44">
              <g>
                <line class="cls-4" x1="716.91" y1="168.24" x2="716.91" y2="702.47"/>
                <line class="cls-4" x1="696.27" y1="702.47" x2="696.27" y2="168.24"/>
                <line class="cls-4" x1="761.78" y1="90.95" x2="761.78" y2="702.47"/>
                <line class="cls-4" x1="741.15" y1="702.47" x2="741.15" y2="168.24"/>
                <line class="cls-4" x1="806.66" y1="168.24" x2="806.66" y2="767.46"/>
                <line class="cls-4" x1="786.02" y1="728" x2="786.02" y2="168.24"/>
                <line class="cls-4" x1="851.53" y1="168.24" x2="851.53" y2="702.47"/>
                <line class="cls-4" x1="830.9" y1="702.47" x2="830.9" y2="168.24"/>
                <line class="cls-4" x1="896.41" y1="168.24" x2="896.41" y2="702.47"/>
                <line class="cls-4" x1="875.77" y1="702.47" x2="875.77" y2="168.24"/>
                <line class="cls-4" x1="941.28" y1="168.24" x2="941.28" y2="702.47"/>
                <line class="cls-4" x1="920.65" y1="702.47" x2="920.65" y2="168.24"/>
                <line class="cls-4" x1="986.16" y1="168.24" x2="986.16" y2="702.47"/>
                <line class="cls-4" x1="965.52" y1="702.47" x2="965.52" y2="168.24"/>
                <line class="cls-4" x1="1031.03" y1="168.24" x2="1031.03" y2="702.47"/>
                <line class="cls-4" x1="1010.4" y1="702.47" x2="1010.4" y2="168.24"/>
                <line class="cls-4" x1="1075.9" y1="168.24" x2="1075.9" y2="702.47"/>
                <line class="cls-4" x1="1055.27" y1="702.47" x2="1055.27" y2="168.24"/>
                <line class="cls-4" x1="1120.78" y1="168.24" x2="1120.78" y2="798.02"/>
                <line class="cls-4" x1="1100.15" y1="702.47" x2="1100.15" y2="168.24"/>
                <line class="cls-4" x1="1165.65" y1="151.66" x2="1165.65" y2="759.73"/>
                <line class="cls-4" x1="1145.02" y1="728" x2="1145.02" y2="168.24"/>
                <line class="cls-4" x1="1210.53" y1="168.24" x2="1210.53" y2="702.47"/>
                <line class="cls-4" x1="1189.9" y1="702.47" x2="1189.9" y2="128.12"/>
              </g>
              <g>
                <line class="cls-4" x1="686.29" y1="671.85" x2="1280.68" y2="671.85"/>
                <line class="cls-4" x1="1220.52" y1="692.48" x2="686.29" y2="692.48"/>
                <line class="cls-4" x1="561.46" y1="626.98" x2="1220.52" y2="626.98"/>
                <line class="cls-4" x1="1220.52" y1="647.61" x2="660.76" y2="647.61"/>
                <line class="cls-4" x1="686.29" y1="582.1" x2="1260.63" y2="582.1"/>
                <line class="cls-4" x1="1277.78" y1="602.73" x2="686.29" y2="602.73"/>
                <line class="cls-4" x1="686.29" y1="537.23" x2="1220.52" y2="537.23"/>
                <line class="cls-4" x1="1220.52" y1="557.86" x2="686.29" y2="557.86"/>
                <line class="cls-4" x1="686.29" y1="492.35" x2="1220.52" y2="492.35"/>
                <line class="cls-4" x1="1220.52" y1="512.98" x2="686.29" y2="512.98"/>
                <line class="cls-4" x1="686.29" y1="447.48" x2="1220.52" y2="447.48"/>
                <line class="cls-4" x1="1220.52" y1="468.11" x2="686.29" y2="468.11"/>
                <line class="cls-4" x1="686.29" y1="402.6" x2="1220.52" y2="402.6"/>
                <line class="cls-4" x1="1220.52" y1="423.23" x2="686.29" y2="423.23"/>
                <line class="cls-4" x1="686.29" y1="357.73" x2="1220.52" y2="357.73"/>
                <line class="cls-4" x1="1220.52" y1="378.36" x2="686.29" y2="378.36"/>
                <line class="cls-4" x1="686.29" y1="312.85" x2="1220.52" y2="312.85"/>
                <line class="cls-4" x1="1220.52" y1="333.48" x2="686.29" y2="333.48"/>
                <line class="cls-4" x1="597.3" y1="267.98" x2="1232.51" y2="267.98"/>
                <line class="cls-4" x1="1220.52" y1="288.61" x2="686.29" y2="288.61"/>
                <line class="cls-4" x1="547" y1="223.1" x2="1220.52" y2="223.1"/>
                <line class="cls-4" x1="1260.63" y1="243.73" x2="663.56" y2="243.73"/>
                <line class="cls-4" x1="686.29" y1="178.23" x2="1220.52" y2="178.23"/>
                <line class="cls-4" x1="1220.52" y1="198.86" x2="686.29" y2="198.86"/>
              </g>
            </g>
            <g class="cls-45">
              <polyline class="cls-7" points="911.4 401.49 766.97 402.21 754.62 379.59 692.9 379.59"/>
              <line class="cls-7" x1="910.16" y1="390.18" x2="805.88" y2="390.9"/>
              <polyline class="cls-7" points="845.49 426.49 756.49 426.49 744.25 407.08 672.78 407.08"/>
              <polyline class="cls-7" points="910.16 415.5 762.06 415.5 747.07 390.9 641.59 390.9"/>
              <path class="cls-7" d="M635.44,390.9c0-1.92,1.55-3.47,3.47-3.47s3.47,1.55,3.47,3.47-1.55,3.47-3.47,3.47-3.47-1.55-3.47-3.47Z"/>
              <path class="cls-7" d="M666.09,407.08c0-1.92,1.55-3.47,3.47-3.47s3.47,1.55,3.47,3.47-1.55,3.47-3.47,3.47-3.47-1.55-3.47-3.47Z"/>
              <path class="cls-7" d="M685.96,379.59c0-1.92,1.55-3.47,3.47-3.47s3.47,1.55,3.47,3.47-1.55,3.47-3.47,3.47-3.47-1.55-3.47-3.47Z"/>
              <path class="cls-7" d="M798.94,390.18c0-1.92,1.55-3.47,3.47-3.47s3.47,1.55,3.47,3.47-1.55,3.47-3.47,3.47-3.47-1.55-3.47-3.47Z"/>
            </g>
            <g class="cls-45">
              <polyline class="cls-7" points="911.4 468.44 766.97 467.72 754.62 490.34 692.9 490.34"/>
              <line class="cls-7" x1="910.16" y1="479.75" x2="805.88" y2="479.03"/>
              <polyline class="cls-7" points="845.49 443.44 756.49 443.44 744.25 462.85 672.78 462.85"/>
              <polyline class="cls-7" points="910.16 454.43 762.06 454.43 747.07 479.03 641.59 479.03"/>
              <path class="cls-7" d="M635.44,479.03c0,1.92,1.55,3.47,3.47,3.47s3.47-1.55,3.47-3.47-1.55-3.47-3.47-3.47-3.47,1.55-3.47,3.47Z"/>
              <path class="cls-7" d="M666.09,462.85c0,1.92,1.55,3.47,3.47,3.47s3.47-1.55,3.47-3.47-1.55-3.47-3.47-3.47-3.47,1.55-3.47,3.47Z"/>
              <path class="cls-7" d="M685.96,490.34c0,1.92,1.55,3.47,3.47,3.47s3.47-1.55,3.47-3.47-1.55-3.47-3.47-3.47-3.47,1.55-3.47,3.47Z"/>
              <path class="cls-7" d="M798.94,479.75c0,1.92,1.55,3.47,3.47,3.47s3.47-1.55,3.47-3.47-1.55-3.47-3.47-3.47-3.47,1.55-3.47,3.47Z"/>
            </g>
            <g>
              <path class="cls-1" d="M1168.21,395.8c.12.65.24,1.31.36,1.97"/>
              <path class="cls-9" d="M1169.25,401.84c1.69,10.79,2.56,21.86,2.56,33.12,0,13.29-1.22,26.29-3.55,38.9"/>
              <path class="cls-1" d="M1167.87,475.9c-.13.65-.26,1.31-.39,1.96"/>
            </g>
            <g>
              <path class="cls-1" d="M762.11,353.83c.25-.62.51-1.23.77-1.84"/>
              <path class="cls-10" d="M764.49,348.3c33.19-74.36,107.78-126.18,194.47-126.18,77.72,0,145.71,41.65,182.86,103.85"/>
              <path class="cls-1" d="M1142.84,327.7c.34.58.67,1.15,1,1.73"/>
            </g>
            <g>
              <path class="cls-1" d="M1149.68,529.56c-.3.6-.6,1.19-.9,1.79"/>
              <path class="cls-2" d="M1146.94,534.9c-35.79,67.19-106.55,112.92-187.98,112.92-90.31,0-167.48-56.24-198.4-135.6"/>
              <path class="cls-1" d="M759.84,510.35c-.24-.62-.47-1.25-.7-1.88"/>
            </g>
            <path class="cls-8" d="M844.59,242.61c33.47-19.94,72.58-31.39,114.36-31.39,53.28,0,102.2,18.62,140.63,49.7"/>
            <path class="cls-3" d="M844.59,226.05c33.47-19.94,72.58-31.39,114.36-31.39,53.28,0,102.2,18.62,140.63,49.7"/>
            <path class="cls-8" d="M745.76,366.84c13.84-43.36,40.55-80.97,75.62-108.35"/>
            <path class="cls-8" d="M750.35,516.05c-2.02-5.18-3.85-10.46-5.48-15.83"/>
            <path class="cls-8" d="M1000.86,654.8c-13.58,2.57-27.58,3.92-41.91,3.92-77.23,0-145.33-39.13-185.54-98.65"/>
            <path class="cls-3" d="M995.19,662.27c-13.58,2.57-27.58,3.92-41.91,3.92-77.23,0-145.33-39.13-185.54-98.65"/>
            <path class="cls-8" d="M1129.1,580.29c-26.49,30.98-61.29,54.64-100.96,67.53"/>
            <path class="cls-3" d="M1166.34,562.13c-21.15,34.85-51.69,63.81-88.76,82.91"/>
            <path class="cls-8" d="M1161.95,529.22c-5.01,10.78-10.86,21.09-17.45,30.85"/>
            <path class="cls-8" d="M1179.29,395.8c2.25,12.72,3.42,25.81,3.42,39.17s-1.29,27.69-3.74,40.98"/>
            <path class="cls-8" d="M1158.68,333.98c1.04,2.05,2.05,4.12,3.02,6.21"/>
            <g>
              <polygon class="cls-20" points="1203.17 523.9 1140.83 523.9 1128.47 501.27 956.08 501.99 956.07 499.9 1129.72 499.17 1142.07 521.8 1203.17 521.8 1203.17 523.9"/>
              <rect class="cls-20" x="945.5" y="510.85" width="144.69" height="2.1" transform="translate(-3 6.01) rotate(-.34)"/>
              <polygon class="cls-20" points="1223.28 496.4 1151.24 496.4 1139 476.99 985.41 476.99 985.41 474.9 1140.15 474.9 1152.4 494.31 1223.28 494.31 1223.28 496.4"/>
              <polygon class="cls-20" points="1254.48 512.58 1148.41 512.58 1133.42 487.98 1076.31 487.98 1076.31 485.88 1134.6 485.88 1149.59 510.49 1254.48 510.49 1254.48 512.58"/>
              <path class="cls-20" d="M1257.16,516.05c-2.49,0-4.52-2.03-4.52-4.52s2.03-4.52,4.52-4.52,4.52,2.03,4.52,4.52-2.03,4.52-4.52,4.52ZM1257.16,509.11c-1.34,0-2.42,1.09-2.42,2.42s1.09,2.42,2.42,2.42,2.42-1.09,2.42-2.42-1.09-2.42-2.42-2.42Z"/>
              <path class="cls-20" d="M1226.51,499.87c-2.49,0-4.52-2.03-4.52-4.52s2.03-4.52,4.52-4.52,4.52,2.03,4.52,4.52-2.03,4.52-4.52,4.52ZM1226.51,492.93c-1.34,0-2.42,1.09-2.42,2.42s1.09,2.42,2.42,2.42,2.42-1.09,2.42-2.42-1.09-2.42-2.42-2.42Z"/>
              <path class="cls-20" d="M1206.64,527.37c-2.49,0-4.52-2.03-4.52-4.52s2.03-4.52,4.52-4.52,4.52,2.03,4.52,4.52-2.03,4.52-4.52,4.52ZM1206.64,520.43c-1.34,0-2.42,1.09-2.42,2.42s1.09,2.42,2.42,2.42,2.42-1.09,2.42-2.42-1.09-2.42-2.42-2.42Z"/>
              <path class="cls-20" d="M1093.66,516.78c-2.49,0-4.52-2.03-4.52-4.52s2.03-4.52,4.52-4.52,4.52,2.03,4.52,4.52-2.03,4.52-4.52,4.52ZM1093.66,509.83c-1.34,0-2.42,1.09-2.42,2.42s1.09,2.42,2.42,2.42,2.42-1.09,2.42-2.42-1.09-2.42-2.42-2.42Z"/>
            </g>
            <g>
              <polygon class="cls-20" points="1004.46 546.28 1003.84 546.28 881.35 545.77 881.36 543.67 1003.22 544.18 1011.96 528.16 1056.28 528.16 1056.28 530.26 1013.21 530.26 1004.46 546.28"/>
              <rect class="cls-20" x="924.04" y="485.75" width="2.1" height="102.43" transform="translate(383.52 1459.36) rotate(-89.71)"/>
              <polygon class="cls-20" points="1011.84 563.46 902.12 563.46 902.12 561.37 1010.68 561.37 1019.35 547.63 1070.52 547.63 1070.52 549.72 1020.5 549.72 1011.84 563.46"/>
              <polygon class="cls-20" points="1007.91 555.69 893.49 555.69 893.49 553.59 1006.73 553.59 1017.34 536.17 1092.6 536.17 1092.6 538.27 1018.52 538.27 1007.91 555.69"/>
              <path class="cls-20" d="M1094.5,540.72c-1.93,0-3.5-1.57-3.5-3.51s1.57-3.5,3.5-3.5,3.51,1.57,3.51,3.5-1.57,3.51-3.51,3.51ZM1094.5,535.81c-.78,0-1.41.63-1.41,1.41s.63,1.41,1.41,1.41,1.41-.63,1.41-1.41-.63-1.41-1.41-1.41Z"/>
              <path class="cls-20" d="M1072.8,552.18c-1.93,0-3.5-1.57-3.5-3.51s1.57-3.51,3.5-3.51,3.51,1.57,3.51,3.51-1.57,3.51-3.51,3.51ZM1072.8,547.27c-.78,0-1.41.63-1.41,1.41s.63,1.41,1.41,1.41,1.41-.63,1.41-1.41-.63-1.41-1.41-1.41Z"/>
              <path class="cls-20" d="M1058.73,532.72c-1.93,0-3.51-1.57-3.51-3.51s1.57-3.5,3.51-3.5,3.5,1.57,3.5,3.5-1.57,3.51-3.5,3.51ZM1058.73,527.8c-.78,0-1.41.63-1.41,1.41s.63,1.41,1.41,1.41,1.41-.63,1.41-1.41-.63-1.41-1.41-1.41Z"/>
              <path class="cls-20" d="M978.76,540.21c-1.93,0-3.51-1.57-3.51-3.5s1.57-3.51,3.51-3.51,3.51,1.57,3.51,3.51-1.57,3.5-3.51,3.5ZM978.76,535.3c-.78,0-1.41.63-1.41,1.41s.63,1.41,1.41,1.41,1.41-.63,1.41-1.41-.63-1.41-1.41-1.41Z"/>
            </g>
            <g>
              <polygon class="cls-20" points="1056.28 343.58 1011.96 343.58 1003.22 327.56 881.36 328.07 881.35 325.97 1004.46 325.46 1013.21 341.48 1056.28 341.48 1056.28 343.58"/>
              <rect class="cls-20" x="873.87" y="333.73" width="102.43" height="2.1" transform="translate(-1.93 5.37) rotate(-.33)"/>
              <polygon class="cls-20" points="1070.52 324.11 1019.35 324.11 1010.68 310.37 902.12 310.37 902.12 308.28 1011.84 308.28 1020.5 322.02 1070.52 322.02 1070.52 324.11"/>
              <polygon class="cls-20" points="1092.6 335.57 1017.34 335.57 1006.73 318.15 893.49 318.15 893.49 316.06 1007.91 316.06 1018.52 333.47 1092.6 333.47 1092.6 335.57"/>
              <path class="cls-20" d="M1094.5,338.03c-1.93,0-3.5-1.57-3.5-3.5s1.57-3.51,3.5-3.51,3.51,1.57,3.51,3.51-1.57,3.5-3.51,3.5ZM1094.5,333.11c-.78,0-1.41.63-1.41,1.41s.63,1.41,1.41,1.41,1.41-.63,1.41-1.41-.63-1.41-1.41-1.41Z"/>
              <path class="cls-20" d="M1072.8,326.57c-1.93,0-3.5-1.57-3.5-3.5s1.57-3.5,3.5-3.5,3.51,1.57,3.51,3.5-1.57,3.5-3.51,3.5ZM1072.8,321.66c-.78,0-1.41.63-1.41,1.41s.63,1.41,1.41,1.41,1.41-.63,1.41-1.41-.63-1.41-1.41-1.41Z"/>
              <path class="cls-20" d="M1058.73,346.03c-1.93,0-3.51-1.57-3.51-3.5s1.57-3.51,3.51-3.51,3.5,1.57,3.5,3.51-1.57,3.5-3.5,3.5ZM1058.73,341.12c-.78,0-1.41.63-1.41,1.41s.63,1.41,1.41,1.41,1.41-.63,1.41-1.41-.63-1.41-1.41-1.41Z"/>
              <path class="cls-20" d="M978.76,338.54c-1.93,0-3.51-1.57-3.51-3.5s1.57-3.51,3.51-3.51,3.51,1.57,3.51,3.51-1.57,3.5-3.51,3.5ZM978.76,333.62c-.78,0-1.41.63-1.41,1.41s.63,1.41,1.41,1.41,1.41-.63,1.41-1.41-.63-1.41-1.41-1.41Z"/>
            </g>
            <g>
              <polygon class="cls-20" points="1129.72 370.39 929.95 369.67 929.96 367.57 1128.47 368.29 1140.83 345.67 1203.17 345.67 1203.17 347.76 1142.07 347.76 1129.72 370.39"/>
              <rect class="cls-20" x="1009.64" y="278.16" width="2.1" height="159.01" transform="translate(648.44 1366.72) rotate(-89.74)"/>
              <polygon class="cls-20" points="1140.15 394.67 1074.71 394.67 1074.71 392.57 1139 392.57 1151.24 373.16 1223.28 373.16 1223.28 375.26 1152.4 375.26 1140.15 394.67"/>
              <polygon class="cls-20" points="1134.6 383.68 969.17 383.68 969.17 381.58 1133.42 381.58 1148.41 356.98 1254.48 356.98 1254.48 359.07 1149.59 359.07 1134.6 383.68"/>
              <path class="cls-20" d="M1257.16,362.55c-2.49,0-4.52-2.03-4.52-4.52s2.03-4.52,4.52-4.52,4.52,2.03,4.52,4.52-2.03,4.52-4.52,4.52ZM1257.16,355.61c-1.34,0-2.42,1.09-2.42,2.42s1.09,2.42,2.42,2.42,2.42-1.09,2.42-2.42-1.09-2.42-2.42-2.42Z"/>
              <path class="cls-20" d="M1226.51,378.73c-2.49,0-4.52-2.03-4.52-4.52s2.03-4.52,4.52-4.52,4.52,2.03,4.52,4.52-2.03,4.52-4.52,4.52ZM1226.51,371.79c-1.34,0-2.42,1.09-2.42,2.42s1.09,2.42,2.42,2.42,2.42-1.09,2.42-2.42-1.09-2.42-2.42-2.42Z"/>
              <path class="cls-20" d="M1206.64,351.23c-2.49,0-4.52-2.03-4.52-4.52s2.03-4.52,4.52-4.52,4.52,2.03,4.52,4.52-2.03,4.52-4.52,4.52ZM1206.64,344.29c-1.34,0-2.42,1.09-2.42,2.42s1.09,2.42,2.42,2.42,2.42-1.09,2.42-2.42-1.09-2.42-2.42-2.42Z"/>
              <path class="cls-20" d="M1093.66,361.82c-2.49,0-4.52-2.03-4.52-4.52s2.03-4.52,4.52-4.52,4.52,2.03,4.52,4.52-2.03,4.52-4.52,4.52ZM1093.66,354.88c-1.34,0-2.42,1.09-2.42,2.42s1.09,2.42,2.42,2.42,2.42-1.09,2.42-2.42-1.09-2.42-2.42-2.42Z"/>
            </g>
            <g>
              <path class="cls-16" d="M1087.95,688.71h0c-1.52,0-2.28-1.84-1.21-2.92h0c.67-.67.67-1.75,0-2.42l-2.93-2.93c-.67-.67-1.75-.67-2.42,0h0c-1.08,1.08-2.92.31-2.92-1.21h0c0-.94-.76-1.71-1.71-1.71h-4.14c-.94,0-1.71.76-1.71,1.71,0,1.52-1.84,2.28-2.92,1.21h0c-.67-.67-1.75-.67-2.42,0l-2.93,2.93c-.67.67-.67,1.75,0,2.42h0c1.08,1.08.31,2.92-1.21,2.92-.94,0-1.71.76-1.71,1.71v4.14c0,.94.76,1.71,1.71,1.71h0c1.52,0,2.28,1.84,1.21,2.92h0c-.67.67-.67,1.75,0,2.42l2.93,2.93c.67.67,1.75.67,2.42,0h0c1.08-1.08,2.92-.31,2.92,1.21h0c0,.94.76,1.71,1.71,1.71h4.14c.94,0,1.71-.76,1.71-1.71h0c0-1.52,1.84-2.28,2.92-1.21h0c.67.67,1.75.67,2.42,0l2.93-2.93c.67-.67.67-1.75,0-2.42h0c-1.08-1.08-.31-2.92,1.21-2.92h0c.94,0,1.71-.76,1.71-1.71v-4.14c0-.94-.76-1.71-1.71-1.71ZM1074.71,702.01c-5.26,0-9.53-4.27-9.53-9.53s4.27-9.53,9.53-9.53,9.53,4.27,9.53,9.53-4.27,9.53-9.53,9.53Z"/>
              <path class="cls-16" d="M1080.83,692.48c0,3.38-2.74,6.12-6.12,6.12s-6.12-2.74-6.12-6.12,2.74-6.12,6.12-6.12,6.12,2.74,6.12,6.12Z"/>
            </g>
            <g>
              <path class="cls-16" d="M1049.25,286.72h0c-.76,0-1.14-.92-.6-1.46h0c.33-.33.33-.87,0-1.21l-1.46-1.46c-.33-.33-.87-.33-1.21,0h0c-.54.54-1.46.16-1.46-.6h0c0-.47-.38-.85-.85-.85h-2.07c-.47,0-.85.38-.85.85,0,.76-.92,1.14-1.46.6h0c-.33-.33-.87-.33-1.21,0l-1.46,1.46c-.33.33-.33.87,0,1.21h0c.54.54.16,1.46-.6,1.46-.47,0-.85.38-.85.85v2.07c0,.47.38.85.85.85h0c.76,0,1.14.92.6,1.46h0c-.33.33-.33.87,0,1.21l1.46,1.46c.33.33.87.33,1.21,0h0c.54-.54,1.46-.16,1.46.6h0c0,.47.38.85.85.85h2.07c.47,0,.85-.38.85-.85h0c0-.76.92-1.14,1.46-.6h0c.33.33.87.33,1.21,0l1.46-1.46c.33-.33.33-.87,0-1.21h0c-.54-.54-.16-1.46.6-1.46h0c.47,0,.85-.38.85-.85v-2.07c0-.47-.38-.85-.85-.85ZM1042.63,293.37c-2.63,0-4.76-2.13-4.76-4.76s2.13-4.76,4.76-4.76,4.76,2.13,4.76,4.76-2.13,4.76-4.76,4.76Z"/>
              <path class="cls-16" d="M1045.69,288.61c0,1.69-1.37,3.06-3.06,3.06s-3.06-1.37-3.06-3.06,1.37-3.06,3.06-3.06,3.06,1.37,3.06,3.06Z"/>
            </g>
            <g>
              <path class="cls-16" d="M1063.57,420.49h0c-.95,0-1.43-1.15-.76-1.83h0c.42-.42.42-1.09,0-1.51l-1.83-1.83c-.42-.42-1.09-.42-1.51,0h0c-.67.67-1.83.2-1.83-.76h0c0-.59-.48-1.07-1.07-1.07h-2.59c-.59,0-1.07.48-1.07,1.07,0,.95-1.15,1.43-1.83.76h0c-.42-.42-1.09-.42-1.51,0l-1.83,1.83c-.42.42-.42,1.09,0,1.51h0c.67.67.2,1.83-.76,1.83-.59,0-1.07.48-1.07,1.07v2.59c0,.59.48,1.07,1.07,1.07h0c.95,0,1.43,1.15.76,1.83h0c-.42.42-.42,1.09,0,1.51l1.83,1.83c.42.42,1.09.42,1.51,0h0c.67-.67,1.83-.2,1.83.76h0c0,.59.48,1.07,1.07,1.07h2.59c.59,0,1.07-.48,1.07-1.07h0c0-.95,1.15-1.43,1.83-.76h0c.42.42,1.09.42,1.51,0l1.83-1.83c.42-.42.42-1.09,0-1.51h0c-.67-.67-.2-1.83.76-1.83h0c.59,0,1.07-.48,1.07-1.07v-2.59c0-.59-.48-1.07-1.07-1.07ZM1055.27,428.82c-3.3,0-5.97-2.67-5.97-5.97s2.67-5.97,5.97-5.97,5.97,2.67,5.97,5.97-2.67,5.97-5.97,5.97Z"/>
              <path class="cls-16" d="M1059.11,422.85c0,2.12-1.72,3.83-3.83,3.83s-3.83-1.72-3.83-3.83,1.72-3.83,3.83-3.83,3.83,1.72,3.83,3.83Z"/>
            </g>
            <circle class="cls-23" cx="1129.1" cy="369.34" r="20.6" transform="translate(583.14 1424.42) rotate(-80.75)"/>
            <circle class="cls-41" cx="717.66" cy="407.08" r="22.88"/>
            <circle class="cls-37" cx="1165.39" cy="267.98" r="17.31"/>
            <circle class="cls-43" cx="1189.9" cy="619.98" r="31.72" transform="translate(311.56 1634.25) rotate(-76.63)"/>
            <circle class="cls-27" cx="740.54" cy="626.98" r="17.31" transform="translate(.64 1254.71) rotate(-80.56)"/>
            <circle class="cls-26" cx="768.47" cy="467.72" r="30.47" transform="translate(137.64 1109.09) rotate(-76.8)"/>
            <circle class="cls-35" cx="1135.51" cy="486.93" r="30.47" transform="translate(374.38 1460.16) rotate(-75.18)"/>
            <circle class="cls-39" cx="1236.01" cy="358.03" r="15.79" transform="translate(685.07 1520.94) rotate(-80.8)"/>
            <circle class="cls-13" cx="666.09" cy="480.19" r="15.79" transform="translate(-133.71 666.13) rotate(-48.88)"/>
            <circle class="cls-16" cx="786.02" cy="223.1" r="4.68"/>
            <path class="cls-16" d="M675.98,267.98c0,1.77-1.43,3.2-3.2,3.2s-3.2-1.43-3.2-3.2,1.43-3.2,3.2-3.2,3.2,1.43,3.2,3.2Z"/>
            <path class="cls-16" d="M744.35,567.54c0,1.77-1.43,3.2-3.2,3.2s-3.2-1.43-3.2-3.2,1.43-3.2,3.2-3.2,3.2,1.43,3.2,3.2Z"/>
            <path class="cls-16" d="M1193.1,298.21c0,1.77-1.43,3.2-3.2,3.2s-3.2-1.43-3.2-3.2,1.43-3.2,3.2-3.2,3.2,1.43,3.2,3.2Z"/>
            <circle class="cls-16" cx="806.66" cy="711.85" r="3.2"/>
            <circle class="cls-16" cx="1239.21" cy="602.73" r="3.2"/>
            <path class="cls-16" d="M1148.22,705.67c0,1.77-1.43,3.2-3.2,3.2s-3.2-1.43-3.2-3.2,1.43-3.2,3.2-3.2,3.2,1.43,3.2,3.2Z"/>
            <path class="cls-16" d="M1239.21,243.73c0,1.77-1.43,3.2-3.2,3.2s-3.2-1.43-3.2-3.2,1.43-3.2,3.2-3.2,3.2,1.43,3.2,3.2Z"/>
            <circle class="cls-16" cx="762.11" cy="145.77" r="3.33"/>
          </g>
          <rect class="cls-6" width="1348.47" height="900"/>
          <g class="cls-47">
            <g>
              <g class="cls-44">
                <g>
                  <line class="cls-4" x1="16.12" y1="-393.35" x2="16.12" y2="251.04"/>
                  <line class="cls-4" x1="64.38" y1="-393.35" x2="64.38" y2="181.15"/>
                  <line class="cls-4" x1="42.2" y1="181.15" x2="42.2" y2="-393.35"/>
                  <line class="cls-4" x1="112.64" y1="-393.35" x2="112.64" y2="181.15"/>
                  <line class="cls-4" x1="90.45" y1="181.15" x2="90.45" y2="-393.35"/>
                  <line class="cls-4" x1="160.9" y1="-393.35" x2="160.9" y2="181.15"/>
                  <line class="cls-4" x1="138.71" y1="181.15" x2="138.71" y2="-393.35"/>
                  <line class="cls-4" x1="209.16" y1="-393.35" x2="209.16" y2="181.15"/>
                  <line class="cls-4" x1="186.97" y1="181.15" x2="186.97" y2="-393.35"/>
                  <line class="cls-4" x1="257.42" y1="-393.35" x2="257.42" y2="181.15"/>
                  <line class="cls-4" x1="235.23" y1="181.15" x2="235.23" y2="-393.35"/>
                  <line class="cls-4" x1="305.67" y1="-393.35" x2="305.67" y2="181.15"/>
                  <line class="cls-4" x1="283.49" y1="181.15" x2="283.49" y2="-393.35"/>
                  <line class="cls-4" x1="353.93" y1="-393.35" x2="353.93" y2="283.9"/>
                  <line class="cls-4" x1="331.74" y1="181.15" x2="331.74" y2="-393.35"/>
                  <line class="cls-4" x1="402.19" y1="-411.18" x2="402.19" y2="242.73"/>
                  <line class="cls-4" x1="380" y1="208.61" x2="380" y2="-393.35"/>
                  <line class="cls-4" x1="450.45" y1="-393.35" x2="450.45" y2="181.15"/>
                  <line class="cls-4" x1="428.26" y1="181.15" x2="428.26" y2="-436.5"/>
                </g>
                <g>
                  <line class="cls-4" x1="-113.32" y1="148.23" x2="525.88" y2="148.23"/>
                  <line class="cls-4" x1="461.19" y1="170.41" x2="-113.32" y2="170.41"/>
                  <line class="cls-4" x1="-247.56" y1="99.97" x2="461.19" y2="99.97"/>
                  <line class="cls-4" x1="461.19" y1="122.15" x2="-140.77" y2="122.15"/>
                  <line class="cls-4" x1="-113.32" y1="51.71" x2="504.33" y2="51.71"/>
                  <line class="cls-4" x1="522.77" y1="73.9" x2="-113.32" y2="73.9"/>
                  <line class="cls-4" x1="-113.32" y1="3.45" x2="461.19" y2="3.45"/>
                  <line class="cls-4" x1="461.19" y1="25.64" x2="-113.32" y2="25.64"/>
                </g>
              </g>
              <g class="cls-44">
                <g>
                  <line class="cls-4" x1="1224.16" y1="-481.58" x2="1224.16" y2="92.92"/>
                  <line class="cls-4" x1="1201.98" y1="92.92" x2="1201.98" y2="-481.58"/>
                  <line class="cls-4" x1="1272.42" y1="-564.7" x2="1272.42" y2="92.92"/>
                  <line class="cls-4" x1="1250.24" y1="92.92" x2="1250.24" y2="-481.58"/>
                  <line class="cls-4" x1="1320.68" y1="-481.58" x2="1320.68" y2="162.81"/>
                  <line class="cls-4" x1="1298.49" y1="120.38" x2="1298.49" y2="-481.58"/>
                  <line class="cls-4" x1="1346.75" y1="92.92" x2="1346.75" y2="-481.58"/>
                </g>
                <g>
                  <line class="cls-4" x1="1191.24" y1="60" x2="1830.44" y2="60"/>
                  <line class="cls-4" x1="1765.74" y1="82.18" x2="1191.24" y2="82.18"/>
                  <line class="cls-4" x1="1056.99" y1="11.74" x2="1765.74" y2="11.74"/>
                  <line class="cls-4" x1="1765.74" y1="33.92" x2="1163.78" y2="33.92"/>
                </g>
              </g>
              <g class="cls-44">
                <g>
                  <line class="cls-4" x1="369.08" y1="891.9" x2="1022.99" y2="891.9"/>
                  <line class="cls-4" x1="386.91" y1="843.64" x2="961.41" y2="843.64"/>
                  <line class="cls-4" x1="961.41" y1="865.83" x2="343.76" y2="865.83"/>
                </g>
                <g>
                  <line class="cls-4" x1="928.49" y1="1407.41" x2="928.49" y2="768.21"/>
                  <line class="cls-4" x1="950.67" y1="832.9" x2="950.67" y2="1407.41"/>
                  <line class="cls-4" x1="880.23" y1="1541.65" x2="880.23" y2="832.9"/>
                  <line class="cls-4" x1="902.41" y1="832.9" x2="902.41" y2="1434.86"/>
                  <line class="cls-4" x1="831.97" y1="1407.41" x2="831.97" y2="789.76"/>
                  <line class="cls-4" x1="854.16" y1="771.33" x2="854.16" y2="1407.41"/>
                  <line class="cls-4" x1="783.71" y1="1407.41" x2="783.71" y2="832.9"/>
                  <line class="cls-4" x1="805.9" y1="832.9" x2="805.9" y2="1407.41"/>
                  <line class="cls-4" x1="735.45" y1="1407.41" x2="735.45" y2="832.9"/>
                  <line class="cls-4" x1="757.64" y1="832.9" x2="757.64" y2="1407.41"/>
                  <line class="cls-4" x1="687.19" y1="1407.41" x2="687.19" y2="832.9"/>
                  <line class="cls-4" x1="709.38" y1="832.9" x2="709.38" y2="1407.41"/>
                  <line class="cls-4" x1="638.94" y1="1407.41" x2="638.94" y2="832.9"/>
                  <line class="cls-4" x1="661.12" y1="832.9" x2="661.12" y2="1407.41"/>
                  <line class="cls-4" x1="590.68" y1="1407.41" x2="590.68" y2="832.9"/>
                  <line class="cls-4" x1="612.87" y1="832.9" x2="612.87" y2="1407.41"/>
                  <line class="cls-4" x1="542.42" y1="1407.41" x2="542.42" y2="832.9"/>
                  <line class="cls-4" x1="564.61" y1="832.9" x2="564.61" y2="1407.41"/>
                  <line class="cls-4" x1="494.16" y1="1503.11" x2="494.16" y2="820"/>
                  <line class="cls-4" x1="516.35" y1="832.9" x2="516.35" y2="1407.41"/>
                  <line class="cls-4" x1="445.9" y1="1557.2" x2="445.9" y2="832.9"/>
                  <line class="cls-4" x1="468.09" y1="789.76" x2="468.09" y2="1431.85"/>
                  <line class="cls-4" x1="397.65" y1="1407.41" x2="397.65" y2="832.9"/>
                  <line class="cls-4" x1="419.83" y1="832.9" x2="419.83" y2="1407.41"/>
                </g>
              </g>
            </g>
          </g>
          <g>
            <g>
              <g>
                <polygon class="cls-19" points="1190.99 788.55 1190.99 794.25 1178.88 782.14 1166.77 794.25 1166.77 788.55 1176.03 779.29 1176.01 779.28 1178.88 776.43 1181.74 779.28 1181.73 779.29 1190.99 788.55"/>
                <g>
                  <polygon class="cls-19" points="1190.99 757.64 1190.99 763.34 1178.88 751.23 1166.77 763.34 1166.77 757.64 1176.03 748.38 1176.01 748.37 1178.88 745.52 1181.74 748.37 1181.73 748.38 1190.99 757.64"/>
                  <polygon class="cls-19" points="1190.99 778.05 1190.99 783.76 1178.88 771.65 1166.77 783.76 1166.77 778.05 1178.88 765.94 1190.99 778.05"/>
                </g>
              </g>
              <g>
                <g>
                  <rect class="cls-17" x="1224.92" y="770.54" width="14.66" height="20.56" transform="translate(2464.49 1561.64) rotate(180)"/>
                  <rect class="cls-25" x="1224.92" y="738.7" width="14.66" height="20.56" transform="translate(2464.49 1497.96) rotate(180)"/>
                  <rect class="cls-12" x="1224.92" y="706.86" width="14.66" height="20.56" transform="translate(2464.49 1434.27) rotate(180)"/>
                  <rect class="cls-21" x="1224.92" y="675.01" width="14.66" height="20.56" transform="translate(2464.49 1370.59) rotate(180)"/>
                  <rect class="cls-11" x="1224.92" y="643.17" width="14.66" height="20.56" transform="translate(2464.49 1306.9) rotate(180)"/>
                  <rect class="cls-29" x="1224.92" y="611.33" width="14.66" height="20.56" transform="translate(2464.49 1243.21) rotate(180)"/>
                </g>
                <g>
                  <polyline class="cls-5" points="1299.52 590.28 1299.52 814.82 1058.24 814.82 1058.24 840.18 1274.71 840.18 1274.71 562.66"/>
                  <circle class="cls-17" cx="1274.6" cy="562.66" r="6.37"/>
                  <circle class="cls-17" cx="1299.52" cy="590.2" r="6.37"/>
                </g>
              </g>
              <polygon class="cls-19" points="1180.23 840.18 1170.5 830.45 1059.85 830.45 1059.85 840.18 1180.23 840.18"/>
              <polygon class="cls-19" points="1299.52 798.89 1309.26 789.15 1309.26 678.51 1299.52 678.51 1299.52 798.89"/>
            </g>
            <g>
              <rect class="cls-17" x="1072.42" y="681.01" width="91.19" height="5.76"/>
              <rect class="cls-12" x="1107.34" y="664.06" width="56.27" height="5.76"/>
              <rect class="cls-21" x="1091.39" y="647.1" width="72.22" height="5.76"/>
              <rect class="cls-11" x="1100.44" y="630.14" width="63.17" height="5.76"/>
              <rect class="cls-29" x="1124" y="613.19" width="39.61" height="5.76"/>
            </g>
          </g>
          <g>
            <g>
              <g>
                <rect class="cls-19" x="204.89" y="779.42" width="12.34" height="6.94" transform="translate(-571.82 993.95) rotate(-90)"/>
                <rect class="cls-22" x="215.1" y="779.42" width="12.34" height="6.94" transform="translate(-561.61 1004.16) rotate(-90)"/>
                <rect class="cls-40" x="225.31" y="779.42" width="12.34" height="6.94" transform="translate(-551.4 1014.37) rotate(-90)"/>
                <rect class="cls-38" x="235.52" y="779.42" width="12.34" height="6.94" transform="translate(-541.19 1024.58) rotate(-90)"/>
                <rect class="cls-14" x="245.73" y="779.42" width="12.34" height="6.94" transform="translate(-530.98 1034.79) rotate(-90)"/>
              </g>
              <g>
                <rect class="cls-19" x="204.89" y="754.43" width="12.34" height="6.94" transform="translate(-546.84 968.96) rotate(-90)"/>
                <rect class="cls-22" x="215.1" y="754.43" width="12.34" height="6.94" transform="translate(-536.63 979.17) rotate(-90)"/>
                <rect class="cls-40" x="225.31" y="754.43" width="12.34" height="6.94" transform="translate(-526.42 989.38) rotate(-90)"/>
                <rect class="cls-38" x="235.52" y="754.43" width="12.34" height="6.94" transform="translate(-516.21 999.59) rotate(-90)"/>
                <rect class="cls-14" x="245.73" y="754.43" width="12.34" height="6.94" transform="translate(-506 1009.8) rotate(-90)"/>
                <rect class="cls-42" x="255.94" y="754.43" width="12.34" height="6.94" transform="translate(-495.79 1020.01) rotate(-90)"/>
                <rect class="cls-24" x="266.15" y="754.43" width="12.34" height="6.94" transform="translate(-485.58 1030.23) rotate(-90)"/>
              </g>
              <g>
                <rect class="cls-19" x="204.89" y="729.45" width="12.34" height="6.94" transform="translate(-521.85 943.98) rotate(-90)"/>
                <rect class="cls-22" x="215.1" y="729.45" width="12.34" height="6.94" transform="translate(-511.64 954.19) rotate(-90)"/>
                <rect class="cls-40" x="225.31" y="729.45" width="12.34" height="6.94" transform="translate(-501.43 964.4) rotate(-90)"/>
                <rect class="cls-38" x="235.52" y="729.45" width="12.34" height="6.94" transform="translate(-491.22 974.61) rotate(-90)"/>
                <rect class="cls-14" x="245.73" y="729.45" width="12.34" height="6.94" transform="translate(-481.01 984.82) rotate(-90)"/>
                <rect class="cls-42" x="255.94" y="729.45" width="12.34" height="6.94" transform="translate(-470.8 995.03) rotate(-90)"/>
                <rect class="cls-24" x="266.15" y="729.45" width="12.34" height="6.94" transform="translate(-460.59 1005.24) rotate(-90)"/>
                <rect class="cls-28" x="276.36" y="729.45" width="12.34" height="6.94" transform="translate(-450.38 1015.45) rotate(-90)"/>
              </g>
              <g>
                <rect class="cls-19" x="204.89" y="704.46" width="12.34" height="6.94" transform="translate(-496.87 918.99) rotate(-90)"/>
                <rect class="cls-22" x="215.1" y="704.46" width="12.34" height="6.94" transform="translate(-486.66 929.2) rotate(-90)"/>
                <rect class="cls-40" x="225.31" y="704.46" width="12.34" height="6.94" transform="translate(-476.45 939.41) rotate(-90)"/>
                <rect class="cls-38" x="235.52" y="704.46" width="12.34" height="6.94" transform="translate(-466.24 949.62) rotate(-90)"/>
                <rect class="cls-14" x="245.73" y="704.46" width="12.34" height="6.94" transform="translate(-456.03 959.83) rotate(-90)"/>
              </g>
              <g>
                <rect class="cls-19" x="204.89" y="679.48" width="12.34" height="6.94" transform="translate(-471.88 894.01) rotate(-90)"/>
                <rect class="cls-22" x="215.1" y="679.48" width="12.34" height="6.94" transform="translate(-461.67 904.22) rotate(-90)"/>
                <rect class="cls-40" x="225.31" y="679.48" width="12.34" height="6.94" transform="translate(-451.46 914.43) rotate(-90)"/>
                <rect class="cls-38" x="235.52" y="679.48" width="12.34" height="6.94" transform="translate(-441.25 924.64) rotate(-90)"/>
                <rect class="cls-14" x="245.73" y="679.48" width="12.34" height="6.94" transform="translate(-431.04 934.85) rotate(-90)"/>
                <rect class="cls-42" x="255.94" y="679.48" width="12.34" height="6.94" transform="translate(-420.83 945.06) rotate(-90)"/>
                <rect class="cls-24" x="266.15" y="679.48" width="12.34" height="6.94" transform="translate(-410.62 955.27) rotate(-90)"/>
                <rect class="cls-28" x="276.36" y="679.48" width="12.34" height="6.94" transform="translate(-400.41 965.48) rotate(-90)"/>
              </g>
            </g>
            <g>
              <g>
                <polygon class="cls-19" points="161.49 780.52 161.49 786.22 173.6 774.11 185.71 786.22 185.71 780.52 176.45 771.26 176.47 771.24 173.6 768.39 170.74 771.24 170.75 771.26 161.49 780.52"/>
                <polygon class="cls-19" points="161.49 770.01 161.49 775.72 173.6 763.61 185.71 775.72 185.71 770.01 173.6 757.9 161.49 770.01"/>
              </g>
              <g>
                <g>
                  <rect class="cls-17" x="112.91" y="762.51" width="14.66" height="20.56"/>
                  <rect class="cls-25" x="112.91" y="730.66" width="14.66" height="20.56"/>
                  <rect class="cls-12" x="112.91" y="698.82" width="14.66" height="20.56"/>
                  <rect class="cls-21" x="112.91" y="666.98" width="14.66" height="20.56"/>
                  <rect class="cls-11" x="112.91" y="635.14" width="14.66" height="20.56"/>
                  <rect class="cls-29" x="112.91" y="603.29" width="14.66" height="20.56"/>
                </g>
                <g>
                  <polyline class="cls-5" points="52.96 582.25 52.96 806.78 294.25 806.78 294.25 832.15 77.77 832.15 77.77 554.63"/>
                  <circle class="cls-17" cx="77.88" cy="554.63" r="6.37"/>
                  <circle class="cls-17" cx="52.96" cy="582.16" r="6.37"/>
                </g>
              </g>
              <polygon class="cls-19" points="172.25 832.15 181.99 822.41 292.63 822.41 292.63 832.15 172.25 832.15"/>
              <polygon class="cls-19" points="52.96 790.86 43.23 781.12 43.23 670.47 52.96 670.47 52.96 790.86"/>
            </g>
          </g>
        </g>
      </g>
    </g>
  </g>
</svg>