<svg width="300" height="100" viewBox="0 0 300 100" fill="none" xmlns="http://www.w3.org/2000/svg">
<path fill-rule="evenodd" clip-rule="evenodd" d="M128.31 63.5975C126.375 63.5975 125.258 61.8204 125.135 60.4241L125.135 60.4208C123.301 62.8501 119.597 64.1694 116.199 64.1694C108.475 64.1694 102.214 57.9023 102.214 50.1716C102.214 42.4414 108.475 36.1751 116.199 36.1751C119.597 36.1751 122.986 37.2747 125.135 39.924V37.9009H125.139C125.163 37.4815 125.51 37.1455 125.934 37.1455H129.442C129.866 37.1455 130.212 37.4815 130.235 37.9009H130.24V62.7987C130.24 63.2378 129.881 63.5975 129.442 63.5975H128.31ZM107.318 50.1716C107.318 55.197 111.3 59.27 116.213 59.27C121.125 59.27 125.107 55.197 125.107 50.1716C125.107 45.1472 121.125 41.0738 116.213 41.0738C111.3 41.0738 107.318 45.1472 107.318 50.1716Z" fill="#0D0E10"/>
<path d="M138.621 56.8586C140.963 58.4821 143.519 59.2706 145.976 59.2706C148.316 59.2706 150.735 58.0566 150.735 55.9433C150.735 53.8035 147.703 53.0341 144.793 52.2958C143.866 52.0606 142.951 51.8285 142.151 51.5563C138.838 50.4298 135.985 48.1009 135.985 44.3295C135.985 38.5586 141.123 36.1751 145.919 36.1751C148.957 36.1751 152.092 37.1779 154.125 38.6143C154.825 39.1451 154.399 39.7545 154.399 39.7545L152.458 42.5276C152.24 42.84 151.859 43.1098 151.312 42.7718C151.274 42.7484 151.229 42.7201 151.178 42.6876C150.494 42.252 148.642 41.074 145.919 41.074C142.993 41.074 141.23 42.4263 141.23 44.1024C141.23 46.1122 143.521 46.7444 146.204 47.4295C150.88 48.6908 155.98 50.2068 155.98 55.9433C155.98 61.028 151.228 64.1702 145.976 64.1702C141.995 64.1702 138.606 63.0346 135.764 60.9474C135.172 60.3544 135.586 59.8039 135.586 59.8039L137.516 57.0447C137.909 56.5288 138.405 56.7087 138.621 56.8586Z" fill="#0D0E10"/>
<path fill-rule="evenodd" clip-rule="evenodd" d="M246.178 60.4241C246.301 61.8204 247.417 63.5975 249.352 63.5975H250.485C250.923 63.5975 251.283 63.2378 251.283 62.7987V37.9009H251.278C251.255 37.4815 250.909 37.1455 250.485 37.1455H246.977C246.552 37.1455 246.206 37.4815 246.183 37.9009H246.178V39.924C244.029 37.2747 240.64 36.1751 237.242 36.1751C229.518 36.1751 223.256 42.4414 223.256 50.1716C223.256 57.9023 229.518 64.1686 237.242 64.1686C240.64 64.1686 244.343 62.8501 246.178 60.4208L246.178 60.4241ZM237.256 59.27C232.343 59.27 228.36 55.197 228.36 50.1716C228.36 45.1472 232.343 41.0738 237.256 41.0738C242.168 41.0738 246.15 45.1472 246.15 50.1716C246.15 55.197 242.168 59.27 237.256 59.27Z" fill="#0D0E10"/>
<path d="M218.822 48.3975C218.822 41.1351 214.244 36.2358 206.943 36.2358C203.458 36.2358 200.601 38.2525 199.593 39.9849C199.374 38.6303 198.656 37.2065 196.427 37.2065H195.291C194.852 37.2065 194.493 37.5664 194.493 38.0056V62.9053H194.498C194.521 63.3242 194.868 63.6606 195.292 63.6606H198.8C198.853 63.6606 198.906 63.6541 198.957 63.6442C198.972 63.6414 198.986 63.6366 199 63.6318C199.008 63.6291 199.016 63.6265 199.024 63.6242C199.032 63.6218 199.04 63.6196 199.048 63.6174C199.066 63.6122 199.085 63.607 199.102 63.5999C199.127 63.5898 199.149 63.577 199.172 63.5641L199.191 63.5533C199.197 63.5494 199.204 63.5461 199.21 63.5428C199.215 63.5404 199.219 63.5379 199.224 63.5353C199.227 63.5334 199.231 63.5314 199.234 63.5292C199.269 63.5067 199.301 63.4795 199.332 63.4518C199.337 63.4465 199.343 63.4433 199.348 63.4386C199.383 63.4048 199.415 63.3675 199.443 63.3289C199.531 63.2081 199.585 63.0623 199.593 62.9053H199.598V48.1978C199.598 44.2973 202.758 41.1351 206.656 41.1351C210.553 41.1351 213.713 44.2973 213.713 48.1978L213.716 60.4913L213.717 60.487C213.717 60.4924 213.718 60.4978 213.718 60.5033C213.718 60.5091 213.719 60.5149 213.719 60.5209V62.9053H213.724C213.747 63.3242 214.093 63.6606 214.517 63.6606H218.026C218.079 63.6606 218.132 63.6541 218.183 63.6442C218.203 63.6404 218.223 63.6321 218.243 63.6264L218.262 63.6209C218.285 63.6146 218.307 63.6083 218.329 63.5999L218.337 63.5961C218.346 63.5921 218.355 63.5877 218.363 63.5831C218.372 63.5781 218.381 63.5728 218.391 63.5676L218.411 63.5561L218.419 63.5517L218.43 63.5461C218.44 63.5409 218.451 63.5358 218.461 63.5292C218.493 63.5081 218.523 63.4824 218.552 63.4569L218.556 63.4532L218.568 63.4437C218.57 63.4419 218.572 63.4399 218.574 63.4378C218.608 63.4058 218.637 63.3712 218.664 63.3349L218.666 63.3322L218.668 63.3301L218.67 63.3272C218.757 63.2075 218.81 63.0633 218.819 62.9076L218.819 62.9064L218.819 62.9053H218.824L218.822 48.3975Z" fill="#0D0E10"/>
<path fill-rule="evenodd" clip-rule="evenodd" d="M185.462 63.5984C183.527 63.5984 182.41 61.8214 182.288 60.4251L182.287 60.4218C180.453 62.8511 176.75 64.1704 173.351 64.1704C165.627 64.1704 159.366 57.9033 159.366 50.1726C159.366 42.4423 165.627 36.1761 173.351 36.1761C176.75 36.1761 180.138 37.2757 182.288 39.925V37.9019H182.292C182.315 37.4825 182.662 37.1465 183.086 37.1465H186.594C187.018 37.1465 187.365 37.4825 187.388 37.9019H187.392V62.7996C187.392 63.2387 187.033 63.5984 186.594 63.5984H185.462ZM164.47 50.1726C164.47 55.1979 168.453 59.271 173.365 59.271C178.278 59.271 182.259 55.1979 182.259 50.1726C182.259 45.1482 178.278 41.0748 173.365 41.0748C168.453 41.0748 164.47 45.1482 164.47 50.1726Z" fill="#0D0E10"/>
<path fill-rule="evenodd" clip-rule="evenodd" d="M82.6051 51.1245C77.407 51.1245 73.1933 55.3383 73.1933 60.5365C73.1933 65.7344 77.407 69.9482 82.6051 69.9482C87.8032 69.9482 92.0169 65.7344 92.0169 60.5365C92.0169 55.3383 87.8032 51.1245 82.6051 51.1245ZM58.1524 51.1253C52.9544 51.1253 48.7406 55.3383 48.7406 60.5365C48.7406 65.7344 52.9544 69.9482 58.1524 69.9482C63.3506 69.9482 67.5646 65.7344 67.5646 60.5365C67.5646 55.3383 63.3506 51.1253 58.1524 51.1253ZM79.7904 39.3597C79.7904 44.558 75.5767 48.7722 70.3788 48.7722C65.1806 48.7722 60.9669 44.558 60.9669 39.3597C60.9669 34.1624 65.1806 29.9482 70.3788 29.9482C75.5767 29.9482 79.7904 34.1624 79.7904 39.3597Z" fill="#F06A6A"/>
</svg>
