<svg width="300" height="100" viewBox="0 0 300 100" fill="none" xmlns="http://www.w3.org/2000/svg">
<path d="M167.075 39.2308H153.229V60.7692H167.075M219.383 39.2308H205.537V60.7692H219.383M214.768 50H205.537M162.46 50H153.229M231.691 60.7692V39.2308L248.614 60.7692V39.2308M77.8445 55.6923L94.7676 66.9231M77.8445 55.6923V44.3077M77.8445 55.6923L94.7676 44.3077M94.7676 66.9231L111.691 55.6923M94.7676 66.9231V55.6923M111.691 55.6923V44.3077M111.691 55.6923L94.7676 44.3077M111.691 44.3077L94.7676 33.0769M111.691 44.3077L94.7676 55.5385L77.8445 44.3077M94.7676 33.0769L77.8445 44.3077M94.7676 33.0769V44.3077M179.383 51.5385H188.614C191.998 51.5385 194.768 48.7692 194.768 45.3846C194.768 42 191.998 39.2308 188.614 39.2308H179.383V60.7692M67.0753 42.3077C65.0753 40.3077 62.4599 39.2308 59.383 39.2308C53.2292 39.2308 48.6138 43.8462 48.6138 50C48.6138 56.1538 53.2292 60.7692 59.383 60.7692C62.4599 60.7692 65.0753 59.5385 67.0753 57.6923M142.46 50C142.46 56.1538 137.845 60.7692 131.691 60.7692H123.998V39.2308H131.691C137.845 39.2308 142.46 43.8462 142.46 50Z" stroke="#000008" stroke-width="3.53846" stroke-linecap="round" stroke-linejoin="round"/>
</svg>
