<svg width="300" height="100" viewBox="0 0 300 100" fill="none" xmlns="http://www.w3.org/2000/svg">
<path d="M85.1385 21H45.3969C39.3787 21 34.5 25.8789 34.5 31.8974V70.1026C34.5 76.1211 39.3787 81 45.3969 81H85.1385C91.1567 81 96.0354 76.1211 96.0354 70.1026V31.8974C96.0354 25.8789 91.1567 21 85.1385 21Z" fill="#330000"/>
<path d="M64.3197 57.01H54.7841L52.844 63.0372C52.8175 63.1471 52.7536 63.2443 52.6631 63.3121C52.5727 63.38 52.4615 63.4141 52.3486 63.4087H47.5188C47.2434 63.4087 47.1471 63.2574 47.2299 62.9546L55.4858 39.1761C55.5684 38.9285 55.651 38.6464 55.7336 38.3298C55.8415 37.7791 55.8968 37.2192 55.8987 36.658C55.8931 36.6187 55.8967 36.5787 55.9092 36.5411C55.9218 36.5035 55.9429 36.4693 55.9709 36.4413C55.999 36.4132 56.0331 36.3921 56.0708 36.3795C56.1084 36.367 56.1484 36.3634 56.1876 36.369H62.7511C62.9434 36.369 63.0534 36.4378 63.0813 36.5754L72.452 62.9959C72.5345 63.2713 72.4519 63.4089 72.2042 63.4087H66.8378C66.7456 63.4189 66.6529 63.3952 66.5769 63.3421C66.501 63.2889 66.447 63.2099 66.425 63.1198L64.3197 57.01ZM56.2701 51.8085H62.7924C62.6273 51.2583 62.4346 50.639 62.2145 49.9508C61.9939 49.2632 61.76 48.527 61.5128 47.7422C61.265 46.9578 61.0173 46.1735 60.7696 45.3891C60.522 44.6048 60.295 43.8479 60.0886 43.1186C59.8821 42.3897 59.6964 41.7223 59.5313 41.1164H59.49C59.2576 42.2313 58.9683 43.3336 58.6232 44.419C58.2375 45.6574 57.8453 46.9234 57.4466 48.2169C57.0474 49.5109 56.6552 50.708 56.2701 51.8085Z" fill="#FF9A00"/>
<path d="M78.0322 40.7448C77.6112 40.7617 77.1913 40.6895 76.8001 40.533C76.4088 40.3765 76.055 40.1392 75.7618 39.8366C75.4694 39.5208 75.2423 39.1504 75.0935 38.7466C74.9447 38.3427 74.8772 37.9135 74.8948 37.4835C74.8798 37.0577 74.9548 36.6336 75.1149 36.2388C75.2749 35.844 75.5164 35.4874 75.8237 35.1923C76.1279 34.9003 76.487 34.6714 76.8803 34.5191C77.2736 34.3668 77.6931 34.2939 78.1147 34.3048C79.1055 34.3048 79.8829 34.6006 80.4471 35.1923C80.7318 35.4998 80.9531 35.8605 81.0983 36.2536C81.2435 36.6468 81.3098 37.0647 81.2933 37.4835C81.3105 37.9152 81.2409 38.3459 81.0884 38.7501C80.9359 39.1543 80.7038 39.5238 80.4058 39.8366C80.0943 40.1436 79.7226 40.3828 79.3141 40.5392C78.9056 40.6955 78.4691 40.7655 78.0322 40.7448ZM75.1838 62.9957V43.2629C75.1838 43.0153 75.2935 42.8914 75.5141 42.8914H80.5915C80.8115 42.8914 80.9216 43.0152 80.9218 43.2629V62.9957C80.9218 63.2712 80.8117 63.4088 80.5915 63.4086H75.5554C75.3077 63.4086 75.1839 63.271 75.1838 62.9957Z" fill="#FF9A00"/>
<path d="M118.642 40.9592V64.6665C118.642 64.9258 118.568 64.9999 118.346 64.9999H114.456C114.234 64.9999 114.16 64.8888 114.16 64.6665V40.9592C114.16 40.6999 114.271 40.6628 114.456 40.6628H118.346C118.568 40.6628 118.642 40.7369 118.642 40.9592Z" fill="#000008"/>
<path d="M123.52 60.5918V38.9218C123.52 38.7366 123.631 38.6255 123.853 38.6255H127.669C127.891 38.6255 128.002 38.7366 128.002 38.9218V60.1844C128.002 61.3327 128.409 61.7031 129.298 61.7031C129.595 61.7031 129.669 61.7031 130.002 61.6661C130.113 61.629 130.15 61.7031 130.15 61.8883V64.6665C130.15 64.9258 130.113 64.9629 129.928 65.074C129.521 65.2592 128.854 65.3703 127.817 65.3703C125.446 65.3703 123.52 64.4813 123.52 60.5918Z" fill="#000008"/>
<path d="M133.323 60.5918V38.9218C133.323 38.7366 133.434 38.6255 133.656 38.6255H137.472C137.694 38.6255 137.805 38.7366 137.805 38.9218V60.1844C137.805 61.3327 138.213 61.7031 139.102 61.7031C139.398 61.7031 139.472 61.7031 139.806 61.6661C139.917 61.629 139.954 61.7031 139.954 61.8883V64.6665C139.954 64.9258 139.917 64.9629 139.732 65.074C139.324 65.2592 138.657 65.3703 137.62 65.3703C135.249 65.3703 133.323 64.4813 133.323 60.5918Z" fill="#000008"/>
<path d="M158.321 46.9971V60.9252C158.321 62.8514 158.469 63.9627 158.543 64.7406C158.58 64.9258 158.469 64.9999 158.247 64.9999H154.839C154.58 64.9999 154.505 64.9258 154.468 64.7777C154.357 64.4072 154.246 63.8516 154.209 63.4812C152.616 64.9629 150.727 65.3703 149.06 65.3703C145.541 65.3703 142.837 63.4812 142.837 58.2952V46.9971C142.837 46.7749 142.911 46.7378 143.133 46.7378H147.023C147.245 46.7378 147.282 46.8119 147.282 46.9971V57.7766C147.282 60.0732 148.282 61.4809 150.505 61.4809C151.912 61.4809 152.95 60.9993 153.876 60.1473V46.9971C153.876 46.8119 153.95 46.7378 154.172 46.7378H158.062C158.284 46.7378 158.321 46.8119 158.321 46.9971Z" fill="#000008"/>
<path d="M173.643 51.0348C172.495 50.4051 170.643 49.9606 169.013 49.9606C167.05 49.9606 166.383 50.7755 166.383 51.5534C166.383 52.3683 166.939 52.924 169.309 53.85C173.532 55.4058 174.977 57.0728 174.977 59.7028C174.977 63.1848 172.236 65.3703 167.679 65.3703C165.494 65.3703 163.568 64.9629 162.456 64.3331C162.271 64.222 162.197 64.1479 162.197 63.9257V60.4066C162.197 60.2214 162.345 60.1473 162.493 60.2214C164.086 61.2586 166.124 61.7031 167.79 61.7031C169.717 61.7031 170.643 61.0363 170.643 60.0732C170.643 59.1472 169.939 58.5545 167.642 57.6284C163.605 56.1467 162.16 54.4798 162.16 51.8127C162.16 48.9975 164.457 46.3674 169.087 46.3674C171.235 46.3674 172.865 46.6638 173.754 47.1083C173.94 47.2194 173.977 47.3676 173.977 47.5528V50.8125C173.977 50.9978 173.866 51.1089 173.643 51.0348Z" fill="#000008"/>
<path d="M187.245 61.7401V64.4072C187.245 64.6295 187.208 64.7777 187.022 64.8517C186.022 65.2222 185.096 65.3703 183.874 65.3703C180.836 65.3703 179.021 63.8886 179.021 60.2214V50.4792H176.687C176.502 50.4421 176.428 50.368 176.428 50.1458V47.0342C176.428 46.8119 176.502 46.7378 176.724 46.7378H179.058C179.095 45.4414 179.243 43.1077 179.429 42.1816C179.466 41.9964 179.54 41.8852 179.725 41.8482L183.466 41.3296C183.651 41.2926 183.726 41.3296 183.726 41.5148C183.614 42.7372 183.54 44.9227 183.54 46.7378H187.133C187.319 46.7378 187.393 46.8119 187.393 46.9971V50.2199C187.393 50.4051 187.319 50.4792 187.133 50.4792H183.503V59.2583C183.503 60.8882 184.022 61.6661 185.615 61.6661C186.096 61.6661 186.504 61.629 187.022 61.5179C187.133 61.4808 187.245 61.5179 187.245 61.7401Z" fill="#000008"/>
<path d="M190.444 46.7378H193.926C194.148 46.7378 194.259 46.8119 194.333 47.0342C194.518 47.5157 194.666 48.4418 194.703 49.2568C195.963 47.701 198.074 46.3674 200.63 46.3674C200.853 46.3674 200.927 46.4045 200.927 46.6267V50.5532C200.927 50.7385 200.853 50.8125 200.593 50.8125C197.963 50.7385 195.778 51.6645 194.926 52.7758V64.7036C194.926 64.9258 194.815 64.9999 194.592 64.9999H190.74C190.481 64.9999 190.407 64.8888 190.407 64.7036V51.9238C190.407 50.331 190.369 48.1825 190.221 46.9601C190.221 46.7749 190.258 46.7378 190.444 46.7378Z" fill="#000008"/>
<path d="M212.512 61.4068V56.8505C211.956 56.7764 211.326 56.7394 210.474 56.7394C207.548 56.7394 206.252 57.7025 206.252 59.2953C206.252 60.6659 207.215 61.8513 209.882 61.8513C210.845 61.8513 211.697 61.7401 212.512 61.4068ZM216.846 53.7019V61.2215C216.846 62.0365 216.846 62.7773 216.92 63.5552C216.92 63.6293 216.92 63.6664 216.846 63.7034C213.808 64.9999 211.66 65.3703 209.141 65.3703C205.103 65.3703 201.881 63.4812 201.881 59.2953C201.881 55.3688 205.4 53.4055 210.215 53.4055C211.326 53.4055 212.178 53.4426 212.512 53.4796V53.0351C212.512 52.1831 212.03 50.2569 208.77 50.2569C206.918 50.2569 205.288 50.6273 203.918 51.2941C203.807 51.3311 203.622 51.2941 203.622 51.0718V47.8491C203.622 47.6639 203.659 47.5898 203.844 47.4787C205.437 46.7378 207.474 46.3674 209.474 46.3674C214.623 46.3674 216.846 49.5901 216.846 53.7019Z" fill="#000008"/>
<path d="M229.967 61.7401V64.4072C229.967 64.6295 229.93 64.7777 229.744 64.8517C228.744 65.2222 227.818 65.3703 226.596 65.3703C223.558 65.3703 221.743 63.8886 221.743 60.2214V50.4792H219.41C219.224 50.4421 219.15 50.368 219.15 50.1458V47.0342C219.15 46.8119 219.224 46.7378 219.447 46.7378H221.78C221.817 45.4414 221.965 43.1077 222.151 42.1816C222.188 41.9964 222.262 41.8852 222.447 41.8482L226.188 41.3296C226.374 41.2926 226.448 41.3296 226.448 41.5148C226.337 42.7372 226.262 44.9227 226.262 46.7378H229.856C230.041 46.7378 230.115 46.8119 230.115 46.9971V50.2199C230.115 50.4051 230.041 50.4792 229.856 50.4792H226.225V59.2583C226.225 60.8882 226.744 61.6661 228.337 61.6661C228.818 61.6661 229.226 61.629 229.744 61.5179C229.856 61.4808 229.967 61.5179 229.967 61.7401Z" fill="#000008"/>
<path d="M240.873 46.3674C246.578 46.3674 249.689 50.7014 249.689 55.7763C249.689 61.5179 246.022 65.3703 240.799 65.3703C234.613 65.3703 231.872 60.5918 231.872 55.8874C231.872 50.6273 235.317 46.3674 240.873 46.3674ZM240.651 50.1087C238.169 50.1087 236.391 52.2943 236.391 55.8133C236.391 59.2212 238.058 61.592 240.873 61.592C243.17 61.592 245.133 59.7028 245.133 55.8874C245.133 52.8129 243.8 50.1087 240.651 50.1087Z" fill="#000008"/>
<path d="M253.206 46.7378H256.688C256.911 46.7378 257.022 46.8119 257.096 47.0342C257.281 47.5157 257.429 48.4418 257.466 49.2568C258.726 47.701 260.837 46.3674 263.393 46.3674C263.615 46.3674 263.689 46.4045 263.689 46.6267V50.5532C263.689 50.7385 263.615 50.8125 263.356 50.8125C260.726 50.7385 258.541 51.6645 257.689 52.7758V64.7036C257.689 64.9258 257.577 64.9999 257.355 64.9999H253.503C253.243 64.9999 253.169 64.8888 253.169 64.7036V51.9238C253.169 50.331 253.132 48.1825 252.984 46.9601C252.984 46.7749 253.021 46.7378 253.206 46.7378Z" fill="#000008"/>
</svg>
