<svg width="380" height="100" viewBox="0 0 380 100" fill="none" xmlns="http://www.w3.org/2000/svg">
<path d="M226.729 41.1592V45.1994H220.35V66.5551H216.21V45.1994H212.182V41.1592H216.154V38.3888C216.154 33.6559 218.727 30.4814 223.986 30.4814C225.168 30.4814 225.971 30.6758 226.657 30.8416C226.719 30.8565 226.779 30.8712 226.839 30.8855V34.9257C226.113 34.7526 225.161 34.6948 224.155 34.6948C221.525 34.6948 220.238 36.2532 220.238 38.5619V41.1592H226.729Z" fill="#253858"/>
<path d="M103.587 34.4633C103.587 32.5009 102.356 31.4043 100.621 31.4043C98.887 31.4043 97.6562 32.5009 97.6562 34.4633C97.6562 36.4257 98.887 37.5224 100.621 37.5224C102.356 37.5224 103.587 36.368 103.587 34.4633Z" fill="#253858"/>
<path d="M102.747 41.1586H98.4953V66.5544H102.747V41.1586Z" fill="#253858"/>
<path d="M92.572 33.1943H88.1521V56.6855C88.1521 60.033 86.8654 62.3417 83.117 62.3417C81.4945 62.3417 79.872 62.0532 78.5293 61.476V65.9202C79.7601 66.3821 81.5504 66.786 83.8443 66.786C89.9424 66.786 92.572 62.5149 92.572 56.3969V33.1943Z" fill="#253858"/>
<path d="M113.275 66.5555H109.135V41.1596H113.275V45.6039C114.729 42.6025 117.191 40.467 122.003 40.7556V45.0267C116.576 44.4495 113.275 46.1233 113.275 51.5488V66.5555Z" fill="#253858"/>
<path fill-rule="evenodd" clip-rule="evenodd" d="M133.466 67.0743C137.27 67.0743 140.235 65.3428 141.802 61.9953V66.5549H146.054V41.1591H141.802V45.6034C140.347 42.3135 137.55 40.6396 133.969 40.6396C127.088 40.6396 123.619 46.6999 123.619 53.857C123.619 61.3603 126.92 67.0743 133.466 67.0743ZM141.746 54.8382C141.746 60.4945 138.389 62.9764 134.585 62.9764C130.221 62.9764 127.871 59.9751 127.815 53.7993C127.815 47.9121 130.277 44.6799 135.032 44.6799C138.669 44.6799 141.746 47.1618 141.746 52.8181V54.8382Z" fill="#253858"/>
<path d="M171.121 67.0756C164.855 67.0756 161.945 65.8059 159.428 64.4784V59.8032C162.449 61.4193 167.036 62.5737 171.344 62.5737C176.212 62.5737 178.058 60.6112 178.058 57.6676C178.058 54.724 176.268 53.1657 170.114 51.6073C162.841 49.7603 159.596 47.1631 159.596 41.6799C159.596 36.4853 163.456 32.6182 170.953 32.6182C175.652 32.6182 178.618 33.7725 180.855 35.0423V39.602C177.611 37.6973 174.086 37.0624 170.785 37.0624C166.533 37.0624 164.015 38.5631 164.015 41.6221C164.015 44.3926 166.085 45.7201 171.792 47.2207C178.618 49.0099 182.478 51.261 182.478 57.2637C182.478 63.1509 179.121 67.0756 171.121 67.0756Z" fill="#253858"/>
<path fill-rule="evenodd" clip-rule="evenodd" d="M197.923 40.6396C190.538 40.6396 186.23 46.1806 186.23 53.7993C186.23 61.4181 190.538 67.0743 197.923 67.0743C205.252 67.0743 209.56 61.4181 209.56 53.7993C209.56 46.1806 205.252 40.6396 197.923 40.6396ZM197.979 62.9764C192.665 62.9764 190.371 58.6476 190.371 53.7993C190.371 49.0087 192.665 44.7376 197.979 44.6799C203.238 44.6799 205.476 49.0087 205.476 53.7993C205.476 58.5898 203.182 62.9764 197.979 62.9764Z" fill="#253858"/>
<path d="M243.008 62.2255C242.395 62.3362 241.724 62.4576 240.993 62.4576C238.363 62.4576 237.134 60.8991 237.077 58.6482V45.1999H243.623V41.1597H237.077V35.792H232.937V41.1597H228.965V45.1999H232.993V58.8213C232.993 63.5541 235.566 66.7287 240.826 66.7287C242.112 66.7287 242.951 66.5556 243.679 66.3246V62.1113C243.464 62.143 243.24 62.1835 243.008 62.2255Z" fill="#253858"/>
<path d="M272.334 66.556L268.08 54.2621L265.843 46.4124L263.605 54.2621L259.354 66.556H253.926L244.863 41.1602H249.563L256.668 62.6888L263.829 41.1602H267.857L275.018 62.6888L282.124 41.1602H286.823L277.76 66.556H272.334Z" fill="#253858"/>
<path fill-rule="evenodd" clip-rule="evenodd" d="M297.79 67.0743C301.595 67.0743 304.561 65.3428 306.126 61.9953V66.5549H310.379V41.1591H306.126V45.6034C304.673 42.3135 301.875 40.6396 298.295 40.6396C291.412 40.6396 287.943 46.6999 287.943 53.857C287.943 61.3603 291.245 67.0743 297.79 67.0743ZM306.126 54.8382C306.126 60.4945 302.77 62.9764 298.965 62.9764C294.601 62.9764 292.196 59.9751 292.196 53.7993C292.196 47.9121 294.657 44.6799 299.414 44.6799C303.05 44.6799 306.126 47.1618 306.126 52.8181V54.8382Z" fill="#253858"/>
<path d="M320.891 66.5555H316.752V41.1596H320.891V45.6039C322.346 42.6025 324.808 40.467 329.619 40.7556V45.0267C324.193 44.4495 320.891 46.1233 320.891 51.5488V66.5555Z" fill="#253858"/>
<path fill-rule="evenodd" clip-rule="evenodd" d="M331.303 53.7993C331.303 61.5912 335.331 67.0743 344.562 67.0743C347.081 67.0743 350.157 66.6703 352.228 65.516V61.4757C349.989 62.2839 347.584 62.8609 344.731 62.8609C338.912 62.8609 336.226 60.0906 335.611 55.7617H353.57V53.7993C353.57 46.0651 350.548 40.6396 342.94 40.6396C335.443 40.6396 331.303 46.1228 331.303 53.7993ZM349.262 52.0101H335.554C336.003 47.6235 338.24 44.6221 342.717 44.6221C346.968 44.6221 349.039 47.2771 349.262 52.0101Z" fill="#253858"/>
<path d="M67.6678 48.8272L49.3761 30.5352L47.6172 28.7764L33.8984 42.4954L27.6253 48.7686C26.9804 49.4135 26.9804 50.4688 27.6253 51.1724L40.1716 63.7188L47.6172 71.2232L61.3361 57.5042L61.5706 57.2697L67.6678 51.1724C68.3129 50.5274 68.3129 49.4722 67.6678 48.8272ZM47.6172 56.2731L41.3442 49.9998L47.6172 43.7265L53.8904 49.9998L47.6172 56.2731Z" fill="#2684FF"/>
<path d="M47.6178 43.7265C43.5139 39.6226 43.5139 32.9389 47.5592 28.8349L33.8403 42.5539L41.286 49.9998L47.6178 43.7265Z" fill="url(#paint0_linear_1303_2790)"/>
<path d="M53.8911 49.9998L47.6179 56.2731C51.7218 60.377 51.7218 67.0606 47.6179 71.2232L61.3953 57.4455L53.8911 49.9998Z" fill="url(#paint1_linear_1303_2790)"/>
<defs>
<linearGradient id="paint0_linear_1303_2790" x1="46.4988" y1="37.3708" x2="37.7378" y2="46.1317" gradientUnits="userSpaceOnUse">
<stop offset="0.176" stop-color="#0052CC"/>
<stop offset="1" stop-color="#2684FF"/>
</linearGradient>
<linearGradient id="paint1_linear_1303_2790" x1="48.8177" y1="62.5379" x2="57.5613" y2="53.7946" gradientUnits="userSpaceOnUse">
<stop offset="0.176" stop-color="#0052CC"/>
<stop offset="1" stop-color="#2684FF"/>
</linearGradient>
</defs>
</svg>
