<svg width="300" height="100" viewBox="0 0 300 100" fill="none" xmlns="http://www.w3.org/2000/svg">
<path d="M77.6385 20H37.8969C31.8787 20 27 24.8789 27 30.8974V69.1026C27 75.1211 31.8787 80 37.8969 80H77.6385C83.6567 80 88.5354 75.1211 88.5354 69.1026V30.8974C88.5354 24.8789 83.6567 20 77.6385 20Z" fill="#001E36"/>
<path d="M40.8516 62.0753V35.6961C40.8516 35.5038 40.9342 35.4071 41.0993 35.4071C41.5391 35.4071 41.9407 35.4006 42.5464 35.3864C43.1515 35.3729 43.8051 35.3592 44.5072 35.3452C45.209 35.3316 45.9521 35.3178 46.7364 35.3039C47.5206 35.2903 48.298 35.2835 49.0686 35.2832C51.1598 35.2832 52.921 35.5447 54.3524 36.0676C55.6437 36.5044 56.8212 37.2236 57.7994 38.173C58.6286 38.9958 59.2694 39.9888 59.6776 41.0834C60.0638 42.1486 60.2594 43.2735 60.2556 44.4066C60.2556 46.6087 59.7465 48.4251 58.7282 49.8558C57.7032 51.2924 56.2625 52.3802 54.6002 52.9726C52.8664 53.6196 50.9398 53.839 48.821 53.839C48.2153 53.839 47.7887 53.8321 47.5413 53.8183C47.2936 53.8047 46.9222 53.7978 46.4268 53.7977V62.034C46.434 62.0845 46.4294 62.1359 46.4132 62.1843C46.3971 62.2327 46.3699 62.2766 46.3339 62.3127C46.2978 62.3487 46.2539 62.3759 46.2055 62.392C46.1572 62.4081 46.1057 62.4128 46.0552 62.4056H41.1405C40.9477 62.4055 40.8516 62.2959 40.8516 62.0753ZM46.4268 40.3609V48.9647C46.7841 48.9925 47.1143 49.0062 47.4174 49.006H48.7797C49.782 49.0027 50.7777 48.8437 51.7313 48.5348C52.5491 48.2919 53.2798 47.819 53.8365 47.1725C54.3731 46.5397 54.6414 45.659 54.6415 44.5304C54.6633 43.7319 54.4555 42.9439 54.0428 42.2599C53.609 41.5985 52.9821 41.0868 52.2472 40.7944C51.2877 40.4214 50.2627 40.2459 49.2338 40.2784C48.5732 40.2784 47.9885 40.2853 47.4794 40.299C46.9699 40.3132 46.619 40.3338 46.4268 40.3609Z" fill="#31A8FF"/>
<path d="M76.2175 47.3994C75.4418 47.0008 74.6155 46.7091 73.7614 46.5325C72.8202 46.3165 71.858 46.2057 70.8924 46.2022C70.3701 46.188 69.8485 46.2506 69.3444 46.388C69.0235 46.4594 68.7383 46.6423 68.5394 46.904C68.4049 47.1134 68.3333 47.3569 68.3331 47.6058C68.3406 47.8472 68.4277 48.0794 68.5807 48.2663C68.8218 48.5484 69.1165 48.7799 69.4476 48.9475C70.0361 49.2644 70.6426 49.547 71.2639 49.7937C72.6493 50.2575 73.9731 50.8883 75.2061 51.6721C76.0461 52.2022 76.7411 52.9328 77.2289 53.7981C77.639 54.6175 77.8444 55.524 77.8274 56.4402C77.8521 57.6499 77.5065 58.8382 76.8368 59.8459C76.1198 60.8689 75.1239 61.6641 73.9677 62.1371C72.7151 62.6873 71.1671 62.9625 69.3238 62.9627C68.1527 62.9746 66.9836 62.8639 65.8356 62.6325C64.9311 62.4666 64.0506 62.1893 63.2143 61.8068C63.124 61.7602 63.0489 61.6889 62.9978 61.6011C62.9466 61.5134 62.9215 61.4129 62.9253 61.3114V56.853C62.9204 56.8093 62.9273 56.7651 62.9455 56.7251C62.9637 56.6852 62.9924 56.6509 63.0286 56.6259C63.0641 56.6059 63.1048 56.5971 63.1453 56.6008C63.1859 56.6045 63.2243 56.6205 63.2556 56.6466C64.2432 57.229 65.3156 57.6538 66.4341 57.9057C67.42 58.1528 68.4313 58.2844 69.4476 58.2978C70.4106 58.2978 71.1192 58.174 71.5735 57.9263C71.7786 57.8324 71.9522 57.681 72.073 57.4905C72.1939 57.3 72.257 57.0786 72.2547 56.853C72.2547 56.4956 72.0483 56.1516 71.6355 55.8209C71.2227 55.4907 70.3833 55.0916 69.1173 54.6237C67.8211 54.1726 66.5922 53.5476 65.464 52.7661C64.6571 52.2048 63.9927 51.4626 63.5239 50.5987C63.1179 49.7853 62.9127 48.8864 62.9253 47.9773C62.923 46.8851 63.2231 45.8135 63.7922 44.8812C64.4411 43.8546 65.3729 43.0374 66.4755 42.5281C67.6861 41.9231 69.1997 41.6203 71.0163 41.6199C72.0801 41.6113 73.143 41.6873 74.1948 41.847C74.9565 41.9436 75.7012 42.145 76.4077 42.4455C76.4637 42.4616 76.5153 42.4905 76.5583 42.5299C76.6012 42.5693 76.6345 42.6181 76.6553 42.6726C76.6832 42.7734 76.6971 42.8776 76.6967 42.9822V47.1517C76.6995 47.2002 76.6896 47.2486 76.6679 47.2921C76.6461 47.3356 76.6134 47.3726 76.5728 47.3994C76.5176 47.4269 76.4568 47.4411 76.3952 47.4411C76.3335 47.4411 76.2727 47.4269 76.2175 47.3994Z" fill="#31A8FF"/>
<path d="M106.645 63.7418V40.0754C106.645 39.8907 106.718 39.78 106.903 39.78C108.306 39.7431 111.038 39.6692 113.733 39.6692C120.896 39.6692 123.554 43.6567 123.554 47.718C123.554 53.5885 119.013 56.1361 113.438 56.1361C112.257 56.1361 111.961 56.1361 111.112 56.1361V63.7049C111.112 63.8895 111.038 64.0003 110.817 64.0003H106.94C106.755 64.0003 106.645 63.9264 106.645 63.7418ZM111.112 43.6198V52.1855C111.74 52.2224 112.22 52.2224 113.438 52.2224C116.539 52.2224 119.161 51.1886 119.161 47.8288C119.161 45.1336 117.241 43.5459 113.844 43.5459C112.552 43.5459 111.518 43.5829 111.112 43.6198Z" fill="#000008"/>
<path d="M131.654 50.5979V63.7418C131.654 63.9264 131.617 64.0003 131.396 64.0003H127.482C127.261 64.0003 127.187 63.8895 127.187 63.7049V37.9708C127.187 37.8232 127.261 37.7124 127.482 37.7124H131.396C131.617 37.7124 131.654 37.7862 131.654 37.9708V47.1273C133.057 46.0935 134.608 45.4289 136.712 45.4289C139.518 45.4289 142.878 46.8319 142.878 52.7393V63.668C142.878 63.9264 142.768 64.0003 142.583 64.0003H138.743C138.522 64.0003 138.411 63.8895 138.411 63.668V53.1824C138.411 50.7087 137.34 49.3056 135.199 49.3056C133.833 49.3056 132.614 49.7487 131.654 50.5979Z" fill="#000008"/>
<path d="M155.386 45.4289C161.072 45.4289 164.173 49.7487 164.173 54.8069C164.173 60.5297 160.518 64.3695 155.312 64.3695C149.146 64.3695 146.414 59.6067 146.414 54.9177C146.414 49.6749 149.847 45.4289 155.386 45.4289ZM155.164 49.158C152.69 49.158 150.918 51.3363 150.918 54.8438C150.918 58.2406 152.58 60.6035 155.386 60.6035C157.675 60.6035 159.632 58.7205 159.632 54.9177C159.632 51.8532 158.302 49.158 155.164 49.158Z" fill="#000008"/>
<path d="M176.496 60.7512V63.4095C176.496 63.6311 176.46 63.7787 176.275 63.8526C175.278 64.2218 174.355 64.3695 173.137 64.3695C170.109 64.3695 168.3 62.8926 168.3 59.2374V49.5272H165.974C165.789 49.4903 165.716 49.4164 165.716 49.1949V46.0935C165.716 45.872 165.789 45.7981 166.011 45.7981H168.337C168.374 44.5059 168.522 42.1799 168.706 41.2568C168.743 41.0722 168.817 40.9615 169.001 40.9245L172.731 40.4076C172.915 40.3707 172.989 40.4076 172.989 40.5923C172.878 41.8107 172.804 43.989 172.804 45.7981H176.386C176.57 45.7981 176.644 45.872 176.644 46.0566V49.2687C176.644 49.4533 176.57 49.5272 176.386 49.5272H172.767V58.2775C172.767 59.902 173.284 60.6774 174.872 60.6774C175.352 60.6774 175.758 60.6404 176.275 60.5297C176.386 60.4928 176.496 60.5297 176.496 60.7512Z" fill="#000008"/>
<path d="M187.367 45.4289C193.053 45.4289 196.154 49.7487 196.154 54.8069C196.154 60.5297 192.499 64.3695 187.293 64.3695C181.127 64.3695 178.395 59.6067 178.395 54.9177C178.395 49.6749 181.829 45.4289 187.367 45.4289ZM187.146 49.158C184.672 49.158 182.9 51.3363 182.9 54.8438C182.9 58.2406 184.561 60.6035 187.367 60.6035C189.656 60.6035 191.613 58.7205 191.613 54.9177C191.613 51.8532 190.284 49.158 187.146 49.158Z" fill="#000008"/>
<path d="M210.497 50.081C209.353 49.4533 207.507 49.0103 205.882 49.0103C203.925 49.0103 203.261 49.8225 203.261 50.5979C203.261 51.4102 203.815 51.964 206.178 52.887C210.387 54.4377 211.827 56.0991 211.827 58.7205C211.827 62.1911 209.094 64.3695 204.553 64.3695C202.375 64.3695 200.455 63.9633 199.347 63.3357C199.163 63.2249 199.089 63.1511 199.089 62.9296V59.422C199.089 59.2374 199.236 59.1636 199.384 59.2374C200.972 60.2712 203.002 60.7143 204.664 60.7143C206.584 60.7143 207.507 60.0497 207.507 59.0898C207.507 58.1667 206.805 57.576 204.516 56.653C200.492 55.1761 199.052 53.5147 199.052 50.8563C199.052 48.0503 201.341 45.4289 205.956 45.4289C208.098 45.4289 209.722 45.7243 210.608 46.1673C210.793 46.2781 210.83 46.4258 210.83 46.6104V49.8595C210.83 50.0441 210.719 50.1548 210.497 50.081Z" fill="#000008"/>
<path d="M219.45 50.5979V63.7418C219.45 63.9264 219.413 64.0003 219.192 64.0003H215.278C215.057 64.0003 214.983 63.8895 214.983 63.7049V37.9708C214.983 37.8232 215.057 37.7124 215.278 37.7124H219.192C219.413 37.7124 219.45 37.7862 219.45 37.9708V47.1273C220.853 46.0935 222.404 45.4289 224.508 45.4289C227.314 45.4289 230.674 46.8319 230.674 52.7393V63.668C230.674 63.9264 230.563 64.0003 230.379 64.0003H226.539C226.318 64.0003 226.207 63.8895 226.207 63.668V53.1824C226.207 50.7087 225.136 49.3056 222.995 49.3056C221.629 49.3056 220.41 49.7487 219.45 50.5979Z" fill="#000008"/>
<path d="M243.182 45.4289C248.867 45.4289 251.969 49.7487 251.969 54.8069C251.969 60.5297 248.314 64.3695 243.108 64.3695C236.942 64.3695 234.21 59.6067 234.21 54.9177C234.21 49.6749 237.643 45.4289 243.182 45.4289ZM242.96 49.158C240.486 49.158 238.714 51.3363 238.714 54.8438C238.714 58.2406 240.376 60.6035 243.182 60.6035C245.471 60.6035 247.428 58.7205 247.428 54.9177C247.428 51.8532 246.098 49.158 242.96 49.158Z" fill="#000008"/>
<path d="M262.932 45.4289C269.024 45.4289 272.052 49.5641 272.052 54.29C272.052 61.0466 266.588 64.3695 261.012 64.3695C260.606 64.3695 260.237 64.3326 259.905 64.2956V70.9414C259.905 71.0891 259.868 71.1999 259.646 71.2368C258.354 71.3845 255.88 71.606 255.696 71.606C255.474 71.606 255.437 71.5691 255.437 71.3845V49.2687C255.437 48.8257 255.4 47.6073 255.327 47.0904C255.327 47.0535 255.327 46.9427 255.474 46.9058C257.136 46.352 259.72 45.4289 262.932 45.4289ZM262.526 49.2318C261.529 49.2318 260.717 49.3426 259.905 49.601V60.4928C260.311 60.6035 260.902 60.6035 261.382 60.6035C264.262 60.6035 267.474 58.9051 267.474 54.5854C267.474 51.2255 265.665 49.2318 262.526 49.2318Z" fill="#000008"/>
</svg>
