<svg width="300" height="100" viewBox="0 0 300 100" fill="none" xmlns="http://www.w3.org/2000/svg">
<path fill-rule="evenodd" clip-rule="evenodd" d="M70.7412 25.4033H33.2554C31.704 25.4055 30.2167 26.0227 29.1197 27.1198C28.0227 28.2169 27.4055 29.7042 27.4033 31.2557V68.7433C27.4055 70.2948 28.0227 71.7822 29.1197 72.8792C30.2167 73.9763 31.704 74.5936 33.2554 74.5957H70.7412C72.2926 74.5936 73.7799 73.9763 74.8769 72.8792C75.9739 71.7822 76.5912 70.2948 76.5933 68.7433V31.2557C76.5912 29.7042 75.9739 28.2169 74.8769 27.1198C73.7799 26.0227 72.2926 25.4055 70.7412 25.4033ZM48.592 60.8325C48.592 61.3485 48.387 61.8433 48.0222 62.2081C47.6574 62.573 47.1626 62.7779 46.6467 62.7779H38.4295C37.9136 62.7779 37.4188 62.573 37.0539 62.2081C36.6891 61.8433 36.4842 61.3485 36.4842 60.8325V36.43C36.4842 35.9141 36.6891 35.4193 37.0539 35.0544C37.4188 34.6896 37.9136 34.4846 38.4295 34.4846H46.6467C47.1626 34.4846 47.6574 34.6896 48.0222 35.0544C48.387 35.4193 48.592 35.9141 48.592 36.43V60.8325ZM67.5125 49.6282C67.5178 49.887 67.4715 50.1444 67.3761 50.3851C67.2808 50.6258 67.1383 50.845 66.9572 51.03C66.776 51.2149 66.5597 51.3618 66.321 51.4621C66.0823 51.5624 65.826 51.614 65.5671 51.614H57.35C56.834 51.614 56.3392 51.409 55.9744 51.0442C55.6096 50.6793 55.4047 50.1845 55.4047 49.6686V36.43C55.4047 35.9141 55.6096 35.4193 55.9744 35.0544C56.3392 34.6896 56.834 34.4846 57.35 34.4846H65.5671C66.0831 34.4846 66.5779 34.6896 66.9427 35.0544C67.3075 35.4193 67.5125 35.9141 67.5125 36.43V49.6282Z" fill="url(#paint0_linear_1303_2797)"/>
<path d="M208.002 74.4399C201.421 74.4399 197.283 71.2873 197.283 63.8316V25H207.395V62.4444C207.395 64.5961 208.814 65.3605 210.547 65.3605C211.048 65.3707 211.548 65.347 212.045 65.2896V74.0301C210.722 74.3522 209.362 74.4901 208.002 74.4399Z" fill="#293856"/>
<path d="M128.932 38.1065V28.6016H95.5469V38.1065H106.809V74.1638H117.67V38.1065H128.932Z" fill="#293856"/>
<path d="M132.721 74.164H142.761V55.5797C142.761 49.8972 146.056 48.1633 153.149 48.715V38.2091C147.719 37.8623 144.669 40.7075 142.761 45.4915V38.6978H132.721V74.164Z" fill="#293856"/>
<path d="M218.369 63.8316C218.369 71.2873 222.515 74.4399 229.096 74.4399C230.464 74.4932 231.832 74.3553 233.162 74.0301V65.2896C232.668 65.3472 232.17 65.3709 231.673 65.3605C229.907 65.3605 228.481 64.5961 228.481 62.4444V25H218.369V63.8316Z" fill="#293856"/>
<path fill-rule="evenodd" clip-rule="evenodd" d="M238.004 56.4161C238.004 45.461 244.309 37.9658 255.169 37.9658C266.03 37.9658 272.201 45.4374 272.201 56.4161C272.201 67.3949 265.959 75.0004 255.169 75.0004C244.38 75.0004 238.004 67.3003 238.004 56.4161ZM247.848 56.4161C247.848 61.7518 250.086 65.9841 255.169 65.9841C260.253 65.9841 262.365 61.7518 262.365 56.4161C262.365 51.0804 260.198 46.9585 255.169 46.9585C250.141 46.9585 247.848 51.0726 247.848 56.4161Z" fill="#293856"/>
<path fill-rule="evenodd" clip-rule="evenodd" d="M175.167 60.1195C172.339 60.0976 169.514 59.9319 166.703 59.623C167.617 64.7301 171.361 66.4956 176.736 66.4956C180.739 66.4956 184.64 65.3922 188.108 64.2809V72.777C184.362 74.1952 180.386 74.9061 176.381 74.8735C162.88 74.8735 156.906 68.1191 156.906 56.7463C156.906 45.7912 163.834 37.9492 174.647 37.9492C182.678 37.9492 189.353 43.3795 189.353 50.6067C189.353 58.0546 182.859 60.1195 175.167 60.1195ZM179.573 50.2599C179.573 47.6197 177.287 45.6887 174.442 45.6887V45.7045C173.122 45.7194 171.829 46.0858 170.698 46.7659C169.566 47.446 168.636 48.4154 168.003 49.5743C167.214 51.0364 166.739 52.647 166.608 54.3031C168.345 54.5731 170.099 54.7127 171.857 54.7208C175.987 54.7208 179.573 53.6568 179.573 50.2599Z" fill="#293856"/>
<defs>
<linearGradient id="paint0_linear_1303_2797" x1="51.9983" y1="74.5957" x2="51.9983" y2="25.4033" gradientUnits="userSpaceOnUse">
<stop stop-color="#0052CC"/>
<stop offset="1" stop-color="#2684FF"/>
</linearGradient>
</defs>
</svg>
